NotoSansBengali_anchors.glyphspackage
{
color = 0;
glyphname = seven.beng;
layers = (
{
associatedMasterId = UUID0;
attr = {
coordinates = (
151,
100
);
};
background = {
shapes = (
{
closed = 1;
nodes = (
(115.04,0,l),
(272.87,0,l),
(528.62,616.16,l),
(528.62,713.39,l),
(40.34,713.39,l),
(40.34,584.81,l),
(369.3,584.81,l)
);
}
);
};
layerId = "6c847d35-682e-42b5-be5f-89b30ca38d9a";
name = "Bold Semi (intermediate)";
shapes = (
{
closed = 1;
nodes = (
(101,0,l),
(259,0,l),
(519,618,l),
(519,713,l),
(27,713,l),
(27,586,l),
(355,586,l)
);
}
);
width = 551;
},
{
background = {
shapes = (
{
closed = 1;
nodes = (
(137,0,l),
(232,0,l),
(503,643,l),
(503,714,l),
(44,714,l),
(44,633,l),
(412,633,l)
);
}
);
};
layerId = UUID0;
shapes = (
{
closed = 1;
nodes = (
(137,0,l),
(232,0,l),
(503,643,l),
(503,714,l),
(44,714,l),
(44,633,l),
(412,633,l)
);
}
);
width = 551;
},
{
layerId = "28FB090A-653E-4199-B7BE-FAE23D31B682";
shapes = (
{
closed = 1;
nodes = (
(168,0,l),
(198,0,l),
(491,692,l),
(491,714,l),
(56,714,l),
(56,688,l),
(461,688,l)
);
}
);
width = 551;
},
{
layerId = "F455777D-7EDD-47E2-866A-D8A5173CE243";
shapes = (
{
closed = 1;
nodes = (
(101,0,l),
(299,0,l),
(545,599,l),
(545,713,l),
(38,713,l),
(38,554,l),
(342,554,l)
);
}
);
width = 578;
},
{
layerId = "ADAF9463-560A-4353-9B5A-2FAD12EBF6B5";
shapes = (
{
closed = 1;
nodes = (
(128,0,l),
(149,0,l),
(362,687,l),
(362,714,l),
(45,714,l),
(45,690,l),
(343,690,l)
);
}
);
width = 411;
},
{
layerId = "D7742CE6-1B18-47A0-AEB5-463D77EA217C";
shapes = (
{
closed = 1;
nodes = (
(97,0,l),
(178,0,l),
(375,650,l),
(375,714,l),
(32,714,l),
(32,642,l),
(295,642,l)
);
}
);
width = 411;
},
{
layerId = "F138D99C-4E28-42C5-9F3E-22494052B08F";
shapes = (
{
closed = 1;
nodes = (
(45,0,l),
(228,0,l),
(397,589,l),
(397,714,l),
(11,714,l),
(11,560,l),
(213,560,l)
);
}
);
width = 411;
}
);
unicode = 55;
}
{
color = 0;
glyphname = bracketright.beng;
layers = (
{
associatedMasterId = UUID0;
attr = {
coordinates = (
151,
100
);
};
background = {
shapes = (
{
closed = 1;
nodes = (
(74.9,-128.9,l),
(304.28,-128.9,l),
(304.28,788.1,l),
(74.9,788.1,l),
(74.9,685.16,l),
(178.14,685.16,l),
(178.14,-25.96,l),
(74.9,-25.96,l)
);
}
);
};
layerId = "53b48389-c9f3-4391-95ac-b309524a3e0b";
name = "Bold Semi (intermediate)";
shapes = (
{
closed = 1;
nodes = (
(77,-125,l),
(313,-125,l),
(313,792,l),
(77,792,l),
(77,689,l),
(186,689,l),
(186,-22,l),
(77,-22,l)
);
}
);
width = 452;
},
{
background = {
shapes = (
{
closed = 1;
nodes = (
(81,-135,l),
(275,-135,l),
(275,782,l),
(81,782,l),
(81,712,l),
(194,712,l),
(194,-65,l),
(81,-65,l)
);
}
);
};
layerId = UUID0;
shapes = (
{
closed = 1;
nodes = (
(81,-135,l),
(275,-135,l),
(275,782,l),
(81,782,l),
(81,712,l),
(194,712,l),
(194,-65,l),
(81,-65,l)
);
}
);
width = 415;
},
{
layerId = "28FB090A-653E-4199-B7BE-FAE23D31B682";
shapes = (
{
closed = 1;
nodes = (
(81,-135,l),
(230,-135,l),
(230,792,l),
(81,792,l),
(81,766,l),
(204,766,l),
(204,-109,l),
(81,-109,l)
);
}
);
width = 375;
},
{
layerId = "F455777D-7EDD-47E2-866A-D8A5173CE243";
shapes = (
{
closed = 1;
nodes = (
(71,-125,l),
(323,-125,l),
(323,792,l),
(71,792,l),
(71,668,l),
(168,668,l),
(168,-1,l),
(71,-1,l)
);
}
);
width = 451;
},
{
layerId = "ADAF9463-560A-4353-9B5A-2FAD12EBF6B5";
shapes = (
{
closed = 1;
nodes = (
(73,-139,l),
(198,-139,l),
(198,794,l),
(73,794,l),
(73,767,l),
(171,767,l),
(171,-112,l),
(73,-112,l)
);
}
);
width = 339;
},
{
layerId = "D7742CE6-1B18-47A0-AEB5-463D77EA217C";
shapes = (
{
closed = 1;
nodes = (
(71,-135,l),
(237,-135,l),
(237,792,l),
(71,792,l),
(71,729,l),
(163,729,l),
(163,-72,l),
(71,-72,l)
);
}
);
width = 376;
},
{
layerId = "F138D99C-4E28-42C5-9F3E-22494052B08F";
shapes = (
{
closed = 1;
nodes = (
(68,-129,l),
(303,-129,l),
(303,789,l),
(68,789,l),
(68,664,l),
(149,664,l),
(149,-4,l),
(68,-4,l)
);
}
);
width = 437;
}
);
unicode = 93;
}
{
category = Letter;
color = 5;
glyphname = "u-beng";
layers = (
{
anchors = (
{
name = top_candrabindu;
pos = (406,647);
},
{
name = top_vedic;
pos = (356,622);
}
);
background = {
anchors = (
{
name = Anchor8;
pos = (356,622);
}
);
shapes = (
{
closed = 1;
nodes = (
(580,617,l),
(576,728,o),
(516,776,o),
(406,776,cs),
(273,776,ls),
(193,776,o),
(148,802,o),
(148,869,cs),
(148,879,o),
(149,891,o),
(152,907,c),
(78,912,l),
(75,893,o),
(73,876,o),
(73,859,cs),
(73,749,o),
(158,704,o),
(289,704,cs),
(426,704,ls),
(487,704,o),
(508,682,o),
(508,617,c)
);
},
{
ref = "dda-beng";
}
);
};
layerId = UUID0;
shapes = (
{
closed = 1;
nodes = (
(580,617,l),
(576,728,o),
(516,776,o),
(406,776,cs),
(273,776,ls),
(193,776,o),
(148,802,o),
(148,869,cs),
(148,879,o),
(149,891,o),
(152,907,c),
(78,912,l),
(75,893,o),
(73,876,o),
(73,859,cs),
(73,749,o),
(158,704,o),
(289,704,cs),
(426,704,ls),
(487,704,o),
(508,682,o),
(508,617,c)
);
},
{
ref = "dda-beng";
}
);
width = 712;
},
{
anchors = (
{
name = top_candrabindu;
pos = (313,635);
},
{
name = top_vedic;
pos = (338,607);
}
);
background = {
anchors = (
{
name = Anchor8;
pos = (347,622);
}
);
shapes = (
{
closed = 1;
nodes = (
(545,602,l),
(544,701,o),
(494,739,o),
(408,739,cs),
(234,739,ls),
(143,739,o),
(100,758,o),
(100,847,cs),
(100,862,o),
(102,881,o),
(104,895,c),
(83,897,l),
(81,883,o),
(79,863,o),
(79,847,cs),
(79,742,o),
(134,718,o),
(235,718,cs),
(408,718,ls),
(497,718,o),
(522,679,o),
(524,602,c)
);
},
{
alignment = -1;
ref = "dda-beng";
}
);
};
layerId = "28FB090A-653E-4199-B7BE-FAE23D31B682";
shapes = (
{
closed = 1;
nodes = (
(545,602,l),
(545,701,o),
(494,739,o),
(408,739,cs),
(234,739,ls),
(143,739,o),
(100,758,o),
(100,847,cs),
(100,862,o),
(102,881,o),
(104,895,c),
(83,897,l),
(81,883,o),
(79,863,o),
(79,847,cs),
(79,742,o),
(134,718,o),
(235,718,cs),
(408,718,ls),
(497,718,o),
(524,679,o),
(524,602,c)
);
},
{
alignment = -1;
ref = "dda-beng";
}
);
width = 677;
},
{
anchors = (
{
name = top_candrabindu;
pos = (476,683);
},
{
name = top_vedic;
pos = (362,635);
}
);
background = {
anchors = (
{
name = Anchor8;
pos = (387,635);
}
);
shapes = (
{
closed = 1;
nodes = (
(655,626,l),
(655,762,o),
(567,823,o),
(448,823,cs),
(284,823,ls),
(235,823,o),
(210,838,o),
(210,879,cs),
(210,885,o),
(211,895,o),
(214,905,c),
(60,915,l),
(56,897,o),
(54,882,o),
(54,863,cs),
(54,742,o),
(143,685,o),
(301,685,cs),
(437,685,ls),
(483,685,o),
(499,667,o),
(499,626,c)
);
},
{
alignment = -1;
ref = "dda-beng";
}
);
};
layerId = "F455777D-7EDD-47E2-866A-D8A5173CE243";
shapes = (
{
closed = 1;
nodes = (
(655,626,l),
(655,762,o),
(567,823,o),
(448,823,cs),
(284,823,ls),
(235,823,o),
(210,838,o),
(210,879,cs),
(210,885,o),
(211,895,o),
(214,905,c),
(60,915,l),
(56,897,o),
(54,882,o),
(54,863,cs),
(54,742,o),
(143,685,o),
(301,685,cs),
(437,685,ls),
(483,685,o),
(499,667,o),
(499,626,c)
);
},
{
alignment = -1;
ref = "dda-beng";
}
);
width = 725;
},
{
anchors = (
{
name = top_candrabindu;
pos = (224,635);
},
{
name = top_vedic;
pos = (239,607);
}
);
background = {
shapes = (
{
closed = 1;
nodes = (
(383,602,l),
(383,698,o),
(348,738,o),
(280,738,cs),
(169,738,ls),
(105,738,o),
(72,761,o),
(73,844,cs),
(73,860,o),
(74,877,o),
(76,895,c),
(56,897,l),
(54,880,o),
(53,860,o),
(53,845,cs),
(53,746,o),
(96,720,o),
(171,720,cs),
(279,720,ls),
(343,720,o),
(363,678,o),
(363,602,c)
);
}
);
};
layerId = "ADAF9463-560A-4353-9B5A-2FAD12EBF6B5";
shapes = (
{
closed = 1;
nodes = (
(383,602,l),
(383,698,o),
(348,738,o),
(280,738,cs),
(169,738,ls),
(105,738,o),
(72,761,o),
(73,844,cs),
(73,860,o),
(74,877,o),
(76,895,c),
(56,897,l),
(54,880,o),
(53,860,o),
(53,845,cs),
(53,746,o),
(96,720,o),
(171,720,cs),
(279,720,ls),
(343,720,o),
(363,678,o),
(363,602,c)
);
},
{
alignment = -1;
ref = "dda-beng";
}
);
width = 478;
},
{
anchors = (
{
name = top_candrabindu;
pos = (310,645);
},
{
name = top_vedic;
pos = (266,621);
}
);
layerId = "D7742CE6-1B18-47A0-AEB5-463D77EA217C";
shapes = (
{
closed = 1;
nodes = (
(444,615,l),
(442,715,o),
(405,770,o),
(306,770,cs),
(203,770,ls),
(142,770,o),
(120,795,o),
(120,862,cs),
(120,880,o),
(121,893,o),
(122,907,c),
(55,910,l),
(53,895,o),
(51,873,o),
(51,857,cs),
(51,749,o),
(104,706,o),
(206,706,cs),
(307,706,ls),
(363,706,o),
(378,682,o),
(378,615,c)
);
},
{
alignment = -1;
ref = "dda-beng";
}
);
width = 533;
},
{
anchors = (
{
name = top_candrabindu;
pos = (385,679);
},
{
name = top_vedic;
pos = (280,634);
}
);
layerId = "F138D99C-4E28-42C5-9F3E-22494052B08F";
shapes = (
{
closed = 1;
nodes = (
(525,628,l),
(526,761,o),
(452,815,o),
(353,815,cs),
(241,815,ls),
(198,815,o),
(180,832,o),
(180,875,cs),
(180,887,o),
(181,897,o),
(182,907,c),
(40,914,l),
(37,899,o),
(35,883,o),
(35,864,cs),
(35,743,o),
(106,688,o),
(226,688,cs),
(329,688,ls),
(371,688,o),
(381,668,o),
(381,628,c)
);
},
{
alignment = -1;
ref = "dda-beng";
}
);
width = 561;
}
);
script = bengali;
subCategory = Spacing;
unicode = 2441;
}
{
category = Letter;
color = 5;
glyphname = "gha-beng";
kernLeft = L_BNG_gha;
layers = (
{
anchors = (
{
name = bottom;
pos = (449,0);
},
{
name = nukta;
pos = (229,26);
},
{
name = top_candrabindu;
pos = (483,622);
},
{
name = top_vedic;
pos = (310,622);
}
);
background = {
anchors = (
{
name = Anchor8;
pos = (310,622);
},
{
name = bottom;
pos = (449,0);
},
{
name = nukta;
pos = (229,26);
},
{
name = top_candrabindu;
pos = (483,622);
}
);
shapes = (
{
closed = 1;
nodes = (
(526,0,l),
(526,551,l),
(631,551,l),
(631,622,l),
(-10,622,l),
(-10,551,l),
(449,551,l),
(449,165,ls),
(449,132,o),
(451,97,o),
(453,72,c),
(465,77,l),
(388,163,o),
(302,233,o),
(139,257,c),
(154,234,l),
(212,279,o),
(299,338,o),
(379,385,c),
(334,451,l),
(283,418,o),
(250,410,o),
(221,410,cs),
(185,410,o),
(147,428,o),
(147,476,cs),
(147,519,o),
(173,558,o),
(250,581,c),
(185,615,l),
(105,577,o),
(66,536,o),
(66,472,cs),
(66,397,o),
(127,345,o),
(227,345,cs),
(239,345,o),
(252,347,o),
(269,352,c),
(214,364,l),
(165,334,o),
(122,306,o),
(78,272,c),
(113,185,l),
(267,174,o),
(386,85,o),
(449,0,c)
);
}
);
};
guides = (
{
angle = 90;
pos = (78,272);
}
);
layerId = UUID0;
shapes = (
{
closed = 1;
nodes = (
(526,0,l),
(526,551,l),
(631,551,l),
(631,622,l),
(-10,622,l),
(-10,551,l),
(449,551,l),
(449,165,ls),
(449,132,o),
(451,97,o),
(453,72,c),
(465,77,l),
(388,163,o),
(302,233,o),
(139,257,c),
(154,234,l),
(212,279,o),
(299,338,o),
(379,385,c),
(334,451,l),
(283,418,o),
(250,410,o),
(221,410,cs),
(185,410,o),
(147,428,o),
(147,476,cs),
(147,519,o),
(173,558,o),
(250,581,c),
(185,615,l),
(105,577,o),
(66,536,o),
(66,472,cs),
(66,397,o),
(127,345,o),
(227,345,cs),
(239,345,o),
(252,347,o),
(269,352,c),
(214,364,l),
(165,334,o),
(122,306,o),
(78,272,c),
(113,185,l),
(267,174,o),
(386,85,o),
(449,0,c)
);
}
);
width = 621;
},
{
anchors = (
{
name = bottom;
pos = (455,0);
},
{
name = nukta;
pos = (208,56);
},
{
name = top_candrabindu;
pos = (466,607);
},
{
name = top_vedic;
pos = (291,607);
}
);
background = {
anchors = (
{
name = Anchor8;
pos = (295,607);
},
{
name = bottom;
pos = (455,0);
},
{
name = nukta;
pos = (208,56);
},
{
name = top_candrabindu;
pos = (466,607);
}
);
shapes = (
{
closed = 1;
nodes = (
(476,0,l),
(476,586,l),
(592,586,l),
(592,607,l),
(-10,607,l),
(-10,586,l),
(455,586,l),
(455,106,ls),
(455,77,o),
(455,46,o),
(458,22,c),
(461,23,l),
(390,142,o),
(268,226,o),
(84,254,c),
(88,245,l),
(147,293,o),
(252,370,o),
(332,423,c),
(317,442,l),
(271,407,o),
(236,398,o),
(191,398,cs),
(125,398,o),
(85,428,o),
(85,486,cs),
(85,520,o),
(101,566,o),
(171,597,c),
(150,605,l),
(90,580,o),
(63,534,o),
(63,486,cs),
(63,426,o),
(105,376,o),
(191,376,cs),
(228,376,o),
(246,383,o),
(268,395,c),
(276,403,l),
(204,366,o),
(125,304,o),
(73,260,c),
(85,233,l),
(263,206,o),
(373,121,o),
(455,0,c)
);
}
);
};
layerId = "28FB090A-653E-4199-B7BE-FAE23D31B682";
shapes = (
{
closed = 1;
nodes = (
(476,0,l),
(476,586,l),
(592,586,l),
(592,607,l),
(-10,607,l),
(-10,586,l),
(455,586,l),
(455,106,ls),
(455,77,o),
(455,46,o),
(458,22,c),
(461,23,l),
(390,142,o),
(268,226,o),
(84,254,c),
(88,245,l),
(147,293,o),
(252,370,o),
(332,423,c),
(320,442,l),
(274,407,o),
(236,398,o),
(191,398,cs),
(125,398,o),
(85,428,o),
(85,486,cs),
(85,520,o),
(101,566,o),
(171,597,c),
(150,605,l),
(90,579,o),
(63,532,o),
(63,486,cs),
(63,426,o),
(105,376,o),
(191,376,cs),
(228,376,o),
(246,384,o),
(268,395,c),
(267,398,l),
(197,361,o),
(123,302,o),
(73,260,c),
(85,233,l),
(263,206,o),
(373,121,o),
(455,0,c)
);
}
);
width = 582;
},
{
anchors = (
{
name = bottom;
pos = (400,0);
},
{
name = nukta;
pos = (192,0);
},
{
name = top_candrabindu;
pos = (488,635);
},
{
name = top_vedic;
pos = (313,635);
}
);
background = {
anchors = (
{
name = Anchor8;
pos = (331,635);
},
{
name = bottom;
pos = (401,0);
},
{
name = nukta;
pos = (192,0);
},
{
name = top_candrabindu;
pos = (488,635);
}
);
shapes = (
{
closed = 1;
nodes = (
(564,0,l),
(564,505,l),
(860,505,l),
(860,635,l),
(34,635,l),
(34,505,l),
(407,505,l),
(407,460,l),
(423,489,l),
(305,459,o),
(175,399,o),
(52,326,c),
(112,175,l),
(256,151,o),
(337,97,o),
(406,0,c)
);
}
);
};
layerId = "F455777D-7EDD-47E2-866A-D8A5173CE243";
shapes = (
{
closed = 1;
nodes = (
(564,0,l),
(564,505,l),
(637,505,l),
(637,635,l),
(-10,635,l),
(-10,505,l),
(401,505,l),
(401,225,ls),
(401,170,o),
(405,138,o),
(409,117,c),
(425,126,l),
(386,188,o),
(301,250,o),
(193,258,c),
(216,233,l),
(260,268,o),
(336,314,o),
(367,330,c),
(317,445,l),
(294,431,o),
(269,421,o),
(246,421,cs),
(216,421,o),
(199,437,o),
(199,462,cs),
(199,490,o),
(222,516,o),
(274,529,c),
(130,586,l),
(65,550,o),
(31,506,o),
(31,450,cs),
(31,382,o),
(88,333,o),
(186,333,cs),
(201,333,o),
(214,334,o),
(228,336,c),
(159,366,l),
(116,342,o),
(72,311,o),
(39,284,c),
(95,143,l),
(249,131,o),
(342,78,o),
(406,0,c)
);
}
);
width = 627;
},
{
anchors = (
{
name = bottom;
pos = (319,0);
},
{
name = nukta;
pos = (150,56);
},
{
name = top_candrabindu;
pos = (329,607);
},
{
name = top_vedic;
pos = (205,607);
}
);
background = {
shapes = (
{
closed = 1;
nodes = (
(336,10,l),
(336,599,l),
(415,599,l),
(415,617,l),
(-3,617,l),
(-3,599,l),
(55,599,l),
(54,602,l),
(44,587,l),
(119,535,o),
(172,477,o),
(220,415,c),
(222,427,l),
(159,385,o),
(108,342,o),
(57,290,c),
(67,264,l),
(182,229,o),
(262,156,o),
(317,10,c)
);
},
{
closed = 1;
nodes = (
(325,24,l),
(276,175,o),
(185,241,o),
(74,283,c),
(75,279,l),
(123,328,o),
(179,374,o),
(233,409,c),
(232,429,l),
(184,494,o),
(129,548,o),
(58,601,c),
(57,599,l),
(317,599,l),
(317,161,ls),
(317,109,o),
(319,59,o),
(322,24,c)
);
}
);
};
layerId = "ADAF9463-560A-4353-9B5A-2FAD12EBF6B5";
shapes = (
{
closed = 1;
nodes = (
(339,0,l),
(339,589,l),
(419,589,l),
(419,607,l),
(-8,607,l),
(-8,589,l),
(319,589,l),
(319,151,ls),
(319,99,o),
(321,49,o),
(324,14,c),
(328,14,l),
(281,170,o),
(179,243,o),
(75,283,c),
(75,277,l),
(127,332,o),
(181,378,o),
(238,422,c),
(226,438,l),
(195,413,o),
(170,398,o),
(138,398,cs),
(95,398,o),
(68,428,o),
(68,486,cs),
(68,517,o),
(81,566,o),
(129,598,c),
(108,605,l),
(73,585,o),
(47,536,o),
(47,484,cs),
(47,419,o),
(81,378,o),
(140,378,cs),
(169,378,o),
(184,386,o),
(198,397,c),
(179,401,l),
(138,371,o),
(98,334,o),
(57,290,c),
(67,264,l),
(182,227,o),
(270,145,o),
(319,0,c)
);
}
);
width = 411;
},
{
anchors = (
{
name = bottom;
pos = (327,0);
},
{
name = nukta;
pos = (163,30);
},
{
name = top_candrabindu;
pos = (360,621);
},
{
name = top_vedic;
pos = (231,621);
}
);
layerId = "D7742CE6-1B18-47A0-AEB5-463D77EA217C";
shapes = (
{
closed = 1;
nodes = (
(397,0,l),
(397,558,l),
(471,558,l),
(471,621,l),
(-8,621,l),
(-8,558,l),
(326,558,l),
(326,184,ls),
(326,137,o),
(328,105,o),
(330,77,c),
(342,77,l),
(300,194,o),
(184,249,o),
(103,272,c),
(100,257,l),
(155,305,o),
(222,349,o),
(282,383,c),
(250,442,l),
(222,423,o),
(200,409,o),
(172,409,cs),
(141,409,o),
(116,427,o),
(116,478,cs),
(116,517,o),
(138,559,o),
(185,584,c),
(117,614,l),
(74,586,o),
(40,540,o),
(40,478,cs),
(40,403,o),
(85,353,o),
(156,353,cs),
(172,353,o),
(189,358,o),
(199,364,c),
(143,377,l),
(108,353,o),
(72,326,o),
(38,297,c),
(70,212,l),
(185,186,o),
(279,120,o),
(327,0,c)
);
}
);
width = 463;
},
{
anchors = (
{
name = bottom;
pos = (299,0);
},
{
name = nukta;
pos = (141,5);
},
{
name = top_candrabindu;
pos = (380,634);
},
{
name = top_vedic;
pos = (247,634);
}
);
layerId = "F138D99C-4E28-42C5-9F3E-22494052B08F";
shapes = (
{
closed = 1;
nodes = (
(448,0,l),
(448,514,l),
(503,514,l),
(503,634,l),
(-8,634,l),
(-8,514,l),
(302,514,l),
(302,221,ls),
(302,185,o),
(305,148,o),
(307,125,c),
(323,123,l),
(293,202,o),
(205,247,o),
(145,259,c),
(136,218,l),
(187,259,o),
(247,298,o),
(290,318,c),
(241,433,l),
(230,427,o),
(219,421,o),
(205,421,cs),
(183,421,o),
(169,435,o),
(169,462,cs),
(169,498,o),
(189,524,o),
(221,539,c),
(86,592,l),
(40,554,o),
(17,523,o),
(17,467,cs),
(17,401,o),
(62,344,o),
(141,344,cs),
(152,344,o),
(163,346,o),
(174,349,c),
(123,368,l),
(87,344,o),
(51,317,o),
(17,288,c),
(69,156,l),
(177,132,o),
(254,98,o),
(302,0,c)
);
}
);
width = 495;
}
);
script = bengali;
subCategory = Spacing;
unicode = 2456;
}
{
category = Mark;
color = 5;
glyphname = "rrVocalicMatra-beng";
layers = (
{
anchors = (
{
name = _bottom;
}
);
background = {
anchors = (
{
name = _bottom;
}
);
shapes = (
{
closed = 1;
nodes = (
(154,-184,l),
(71,-128,o),
(-12,-93,o),
(-116,-72,c),
(-100,-105,l),
(-53,-85,o),
(20,-59,o),
(100,-41,c),
(74,25,l),
(-27,0,o),
(-98,-24,o),
(-176,-61,c),
(-148,-127,l),
(-100,-135,o),
(-53,-148,o),
(0,-169,c),
(14,-175,l),
(48,-190,o),
(84,-208,o),
(125,-232,c)
);
},
{
closed = 1;
nodes = (
(155,-334,l),
(80,-284,o),
(-25,-239,o),
(-113,-228,c),
(-95,-259,l),
(-53,-230,o),
(27,-204,o),
(91,-185,c),
(16,-142,l),
(-44,-159,o),
(-112,-185,o),
(-171,-215,c),
(-143,-281,l),
(-35,-300,o),
(38,-332,o),
(124,-384,c)
);
}
);
};
guides = (
{
angle = 90;
pos = (-183,-80);
}
);
layerId = UUID0;
shapes = (
{
closed = 1;
nodes = (
(154,-184,l),
(71,-128,o),
(-12,-93,o),
(-116,-72,c),
(-100,-105,l),
(-53,-85,o),
(20,-59,o),
(100,-41,c),
(74,25,l),
(-27,0,o),
(-98,-24,o),
(-176,-61,c),
(-148,-127,l),
(-100,-135,o),
(-53,-148,o),
(0,-169,c),
(14,-175,l),
(48,-190,o),
(84,-208,o),
(125,-232,c)
);
},
{
closed = 1;
nodes = (
(155,-334,l),
(80,-284,o),
(-25,-239,o),
(-113,-228,c),
(-95,-259,l),
(-53,-230,o),
(27,-204,o),
(91,-185,c),
(16,-142,l),
(-44,-159,o),
(-112,-185,o),
(-171,-215,c),
(-143,-281,l),
(-35,-300,o),
(38,-332,o),
(124,-384,c)
);
}
);
width = 0;
},
{
anchors = (
{
name = _bottom;
}
);
associatedMasterId = UUID0;
background = {
anchors = (
{
name = _Anchor6;
pos = (-172,0);
}
);
shapes = (
{
closed = 1;
nodes = (
(-321,-160,l),
(-263,-165,o),
(-212,-174,o),
(-165,-190,c),
(-112,-207,o),
(-61,-230,o),
(-3,-261,c),
(28,-211,l),
(-56,-162,o),
(-159,-121,o),
(-289,-102,c),
(-279,-114,l),
(-232,-89,o),
(-146,-61,o),
(-79,-41,c),
(-105,25,l),
(-192,-6,o),
(-277,-42,o),
(-355,-80,c)
);
},
{
closed = 1;
nodes = (
(-323,-312,l),
(-230,-325,o),
(-150,-344,o),
(-63,-394,c),
(-32,-342,l),
(-114,-293,o),
(-207,-266,o),
(-283,-257,c),
(-276,-266,l),
(-244,-250,o),
(-140,-211,o),
(-86,-194,c),
(-156,-162,l),
(-235,-184,o),
(-295,-210,o),
(-355,-238,c)
);
}
);
};
layerId = "00967C96-E82E-4710-9BCF-33D47E1ADAE2";
name = "15 May 24 at 17:11";
shapes = (
{
closed = 1;
nodes = (
(-149,-160,l),
(-91,-165,o),
(-40,-174,o),
(7,-190,c),
(60,-207,o),
(111,-230,o),
(169,-261,c),
(200,-211,l),
(116,-162,o),
(13,-121,o),
(-117,-102,c),
(-107,-114,l),
(-60,-89,o),
(26,-61,o),
(93,-41,c),
(67,25,l),
(-20,-6,o),
(-105,-42,o),
(-183,-80,c)
);
},
{
closed = 1;
nodes = (
(-151,-312,l),
(-58,-325,o),
(22,-344,o),
(109,-394,c),
(140,-342,l),
(58,-293,o),
(-35,-266,o),
(-111,-257,c),
(-104,-266,l),
(-72,-250,o),
(32,-211,o),
(86,-194,c),
(16,-162,l),
(-63,-184,o),
(-123,-210,o),
(-183,-238,c)
);
}
);
width = 0;
},
{
anchors = (
{
name = _bottom;
}
);
background = {
anchors = (
{
name = _bottom;
}
);
shapes = (
{
closed = 1;
nodes = (
(85,-232,l),
(-2,-165,o),
(-57,-136,o),
(-171,-99,c),
(-170,-116,l),
(-111,-76,o),
(-58,-44,o),
(27,-10,c),
(19,8,l),
(-68,-27,o),
(-120,-58,o),
(-181,-100,c),
(-172,-119,l),
(-57,-158,o),
(-14,-183,o),
(73,-249,c)
);
}
);
};
layerId = "28FB090A-653E-4199-B7BE-FAE23D31B682";
shapes = (
{
closed = 1;
nodes = (
(96,-201,l),
(-8,-136,o),
(-66,-108,o),
(-170,-82,c),
(-166,-98,l),
(-112,-65,o),
(-52,-36,o),
(28,-3,c),
(21,14,l),
(-63,-18,o),
(-115,-45,o),
(-178,-82,c),
(-168,-101,l),
(-106,-118,o),
(-68,-133,o),
(-15,-159,c),
(-9,-163,l),
(20,-177,o),
(51,-195,o),
(85,-218,c)
);
},
{
closed = 1;
nodes = (
(102,-349,l),
(15,-292,o),
(-50,-255,o),
(-165,-229,c),
(-160,-248,l),
(-111,-216,o),
(-60,-188,o),
(3,-163,c),
(-21,-152,l),
(-73,-172,o),
(-123,-199,o),
(-173,-229,c),
(-163,-248,l),
(-71,-270,o),
(8,-309,o),
(91,-367,c)
);
}
);
width = 0;
},
{
anchors = (
{
name = _bottom;
}
);
background = {
anchors = (
{
name = _bottom;
}
);
shapes = (
{
closed = 1;
nodes = (
(264,-162,l),
(176,-120,o),
(69,-92,o),
(-12,-87,c),
(-14,-110,l),
(39,-89,o),
(124,-64,o),
(184,-51,c),
(154,63,l),
(39,35,o),
(-51,5,o),
(-148,-33,c),
(-105,-151,l),
(-53,-153,o),
(-6,-159,o),
(41,-170,c),
(60,-186,l),
(112,-203,o),
(173,-224,o),
(229,-246,c)
);
},
{
closed = 1;
nodes = (
(264,-321,l),
(182,-286,o),
(104,-262,o),
(6,-251,c),
(-13,-285,l),
(63,-246,o),
(112,-227,o),
(199,-201,c),
(110,-130,l),
(48,-149,o),
(-38,-178,o),
(-120,-214,c),
(-78,-329,l),
(31,-341,o),
(128,-365,o),
(229,-405,c)
);
}
);
};
layerId = "F455777D-7EDD-47E2-866A-D8A5173CE243";
shapes = (
{
closed = 1;
nodes = (
(264,-162,l),
(176,-120,o),
(69,-92,o),
(-12,-87,c),
(-14,-110,l),
(39,-89,o),
(124,-64,o),
(184,-51,c),
(154,63,l),
(39,35,o),
(-51,5,o),
(-148,-33,c),
(-105,-151,l),
(-53,-153,o),
(-6,-159,o),
(41,-170,c),
(60,-186,l),
(112,-203,o),
(173,-224,o),
(229,-246,c)
);
},
{
closed = 1;
nodes = (
(264,-321,l),
(182,-286,o),
(104,-262,o),
(6,-251,c),
(-13,-285,l),
(63,-246,o),
(112,-227,o),
(199,-201,c),
(110,-130,l),
(48,-149,o),
(-38,-178,o),
(-120,-214,c),
(-78,-329,l),
(31,-341,o),
(128,-365,o),
(229,-405,c)
);
}
);
width = 0;
},
{
anchors = (
{
name = _bottom;
pos = (-1,0);
}
);
background = {
shapes = (
{
pos = (11,-115);
ref = "rVocalicMatra-beng";
}
);
};
layerId = "ADAF9463-560A-4353-9B5A-2FAD12EBF6B5";
shapes = (
{
closed = 1;
nodes = (
(72,-202,l),
(7,-143,o),
(-41,-112,o),
(-114,-81,c),
(-110,-100,l),
(-73,-67,o),
(-30,-36,o),
(25,-3,c),
(17,16,l),
(-40,-19,o),
(-79,-46,o),
(-123,-83,c),
(-115,-100,l),
(-73,-117,o),
(-46,-133,o),
(-8,-158,c),
(-3,-162,l),
(17,-177,o),
(38,-195,o),
(60,-215,c)
);
},
{
closed = 1;
nodes = (
(75,-350,l),
(16,-294,o),
(-33,-257,o),
(-110,-229,c),
(-105,-245,l),
(-74,-217,o),
(-37,-190,o),
(9,-162,c),
(-11,-150,l),
(-48,-172,o),
(-84,-200,o),
(-120,-229,c),
(-112,-248,l),
(-47,-270,o),
(12,-310,o),
(64,-362,c)
);
}
);
width = 0;
},
{
anchors = (
{
name = _bottom;
}
);
layerId = "D7742CE6-1B18-47A0-AEB5-463D77EA217C";
shapes = (
{
closed = 1;
nodes = (
(136,-188,l),
(69,-131,o),
(4,-96,o),
(-70,-75,c),
(-62,-105,l),
(-25,-83,o),
(30,-56,o),
(86,-36,c),
(67,23,l),
(-9,-5,o),
(-66,-30,o),
(-126,-65,c),
(-103,-123,l),
(-66,-133,o),
(-31,-146,o),
(8,-167,c),
(18,-173,l),
(46,-188,o),
(77,-206,o),
(108,-229,c)
);
},
{
closed = 1;
nodes = (
(135,-340,l),
(75,-287,o),
(4,-242,o),
(-65,-229,c),
(-59,-258,l),
(-22,-229,o),
(31,-202,o),
(83,-182,c),
(22,-141,l),
(-19,-160,o),
(-70,-187,o),
(-118,-217,c),
(-96,-276,l),
(-16,-296,o),
(44,-329,o),
(109,-380,c)
);
}
);
width = 0;
},
{
anchors = (
{
name = _bottom;
}
);
layerId = "F138D99C-4E28-42C5-9F3E-22494052B08F";
shapes = (
{
closed = 1;
nodes = (
(235,-166,l),
(165,-122,o),
(76,-92,o),
(21,-84,c),
(15,-109,l),
(57,-88,o),
(125,-63,o),
(166,-49,c),
(140,58,l),
(48,30,o),
(-26,0,o),
(-105,-38,c),
(-68,-146,l),
(-27,-150,o),
(9,-157,o),
(43,-170,c),
(59,-184,l),
(105,-201,o),
(158,-221,o),
(206,-243,c)
);
},
{
closed = 1;
nodes = (
(235,-323,l),
(169,-285,o),
(118,-258,o),
(40,-247,c),
(14,-280,l),
(72,-243,o),
(112,-225,o),
(186,-201,c),
(110,-131,l),
(62,-150,o),
(-7,-179,o),
(-77,-214,c),
(-41,-321,l),
(43,-334,o),
(124,-360,o),
(206,-402,c)
);
}
);
width = 0;
}
);
script = bengali;
subCategory = Nonspacing;
unicode = 2500;
}
{
category = Mark;
color = 5;
glyphname = "halant-beng";
layers = (
{
anchors = (
{
name = _bottom;
}
);
background = {
anchors = (
{
name = _bottom;
}
);
shapes = (
{
closed = 1;
nodes = (
(-64,-81,l),
(27,-141,o),
(105,-199,o),
(191,-268,c),
(231,-215,l),
(157,-145,o),
(75,-80,o),
(-12,-17,c)
);
}
);
};
layerId = UUID0;
shapes = (
{
closed = 1;
nodes = (
(-64,-81,l),
(27,-141,o),
(105,-199,o),
(191,-268,c),
(231,-215,l),
(157,-145,o),
(75,-80,o),
(-12,-17,c)
);
}
);
width = 0;
},
{
anchors = (
{
name = _bottom;
}
);
background = {
anchors = (
{
name = _bottom;
}
);
shapes = (
{
closed = 1;
nodes = (
(-29,-39,l),
(55,-101,o),
(124,-156,o),
(200,-229,c),
(212,-216,l),
(137,-145,o),
(68,-84,o),
(-12,-20,c)
);
}
);
};
layerId = "28FB090A-653E-4199-B7BE-FAE23D31B682";
shapes = (
{
closed = 1;
nodes = (
(-29,-39,l),
(55,-101,o),
(124,-156,o),
(200,-229,c),
(212,-216,l),
(137,-145,o),
(68,-84,o),
(-12,-20,c)
);
}
);
width = 0;
},
{
anchors = (
{
name = _bottom;
}
);
background = {
anchors = (
{
name = _bottom;
}
);
shapes = (
{
closed = 1;
nodes = (
(-68,-119,l),
(36,-166,o),
(129,-212,o),
(230,-271,c),
(279,-180,l),
(187,-114,o),
(97,-59,o),
(-2,-4,c)
);
}
);
};
layerId = "F455777D-7EDD-47E2-866A-D8A5173CE243";
shapes = (
{
closed = 1;
nodes = (
(-68,-119,l),
(36,-166,o),
(129,-212,o),
(230,-271,c),
(279,-180,l),
(187,-114,o),
(97,-59,o),
(-2,-4,c)
);
}
);
width = 0;
},
{
anchors = (
{
name = _bottom;
}
);
layerId = "ADAF9463-560A-4353-9B5A-2FAD12EBF6B5";
shapes = (
{
closed = 1;
nodes = (
(-23,-37,l),
(38,-98,o),
(83,-153,o),
(138,-227,c),
(150,-217,l),
(97,-142,o),
(51,-84,o),
(-7,-21,c)
);
}
);
width = 0;
},
{
anchors = (
{
name = _bottom;
}
);
layerId = "D7742CE6-1B18-47A0-AEB5-463D77EA217C";
shapes = (
{
closed = 1;
nodes = (
(-53,-66,l),
(26,-129,o),
(81,-183,o),
(146,-257,c),
(182,-222,l),
(121,-145,o),
(59,-77,o),
(-7,-17,c)
);
}
);
width = 0;
},
{
anchors = (
{
name = _bottom;
}
);
layerId = "F138D99C-4E28-42C5-9F3E-22494052B08F";
shapes = (
{
closed = 1;
nodes = (
(-62,-97,l),
(36,-152,o),
(105,-202,o),
(184,-269,c),
(238,-199,l),
(163,-124,o),
(86,-63,o),
(1,-6,c)
);
}
);
width = 0;
}
);
script = bengali;
subCategory = Nonspacing;
unicode = 2509;
}
{
color = 5;
glyphname = "nine-beng";
layers = (
{
anchors = (
{
name = top_vedic;
pos = (296,622);
}
);
background = {
anchors = (
{
name = Anchor8;
pos = (296,622);
}
);
shapes = (
{
closed = 1;
nodes = (
(447,19,o),
(544,92,o),
(544,223,cs),
(544,330,o),
(494,403,o),
(303,453,cs),
(147,494,o),
(134,532,o),
(134,576,cs),
(134,586,o),
(135,599,o),
(139,622,c),
(61,629,l),
(56,607,o),
(53,589,o),
(53,567,cs),
(53,476,o),
(109,425,o),
(269,382,cs),
(438,337,o),
(462,291,o),
(462,219,cs),
(462,132,o),
(390,86,o),
(313,63,c),
(349,38,l),
(359,68,o),
(363,95,o),
(363,126,cs),
(363,232,o),
(297,292,o),
(198,292,cs),
(99,292,o),
(41,226,o),
(41,137,cs),
(41,49,o),
(94,4,o),
(149,4,cs),
(189,4,o),
(217,27,o),
(217,67,cs),
(217,107,o),
(192,127,o),
(158,127,cs),
(120,127,o),
(97,102,o),
(97,68,c),
(116,62,l),
(138,76,l),
(128,91,o),
(122,116,o),
(122,136,cs),
(122,187,o),
(152,222,o),
(202,222,cs),
(258,222,o),
(286,186,o),
(286,133,cs),
(286,98,o),
(281,73,o),
(268,38,c),
(333,-10,l)
);
}
);
};
guides = (
{
angle = -14.6697;
pos = (269,371);
},
{
angle = 90;
pos = (41,183);
}
);
layerId = UUID0;
shapes = (
{
closed = 1;
nodes = (
(447,19,o),
(544,92,o),
(544,223,cs),
(544,330,o),
(494,403,o),
(303,453,cs),
(147,494,o),
(134,532,o),
(134,576,cs),
(134,586,o),
(135,599,o),
(139,622,c),
(61,629,l),
(56,607,o),
(53,589,o),
(53,567,cs),
(53,476,o),
(109,425,o),
(269,382,cs),
(438,337,o),
(462,291,o),
(462,219,cs),
(462,132,o),
(390,86,o),
(313,63,c),
(349,38,l),
(359,68,o),
(363,95,o),
(363,126,cs),
(363,232,o),
(297,292,o),
(198,292,cs),
(99,292,o),
(41,226,o),
(41,137,cs),
(41,49,o),
(94,4,o),
(149,4,cs),
(189,4,o),
(217,27,o),
(217,67,cs),
(217,107,o),
(192,127,o),
(158,127,cs),
(120,127,o),
(97,102,o),
(97,68,c),
(116,62,l),
(138,76,l),
(128,91,o),
(122,116,o),
(122,136,cs),
(122,187,o),
(152,222,o),
(202,222,cs),
(258,222,o),
(286,186,o),
(286,133,cs),
(286,98,o),
(281,73,o),
(268,38,c),
(333,-10,l)
);
}
);
width = 592;
},
{
anchors = (
{
name = top_vedic;
pos = (296,622);
}
);
associatedMasterId = UUID0;
background = {
anchors = (
{
name = Anchor8;
pos = (296,622);
}
);
shapes = (
{
closed = 1;
nodes = (
(78,315,o),
(27,271,o),
(27,207,cs),
(27,182,o),
(33,159,o),
(44,135,c),
(119,152,l),
(112,165,o),
(108,183,o),
(108,196,cs),
(108,224,o),
(127,245,o),
(175,245,cs),
(229,245,o),
(257,214,o),
(257,169,cs),
(257,120,o),
(221,89,o),
(161,68,c),
(183,0,l),
(197,0,ls),
(390,0,o),
(558,53,o),
(558,216,cs),
(558,315,o),
(516,387,o),
(304,447,cs),
(135,495,o),
(119,511,o),
(119,547,cs),
(119,561,o),
(126,577,o),
(146,596,c),
(83,631,l),
(48,598,o),
(35,566,o),
(35,536,cs),
(35,460,o),
(91,427,o),
(274,375,cs),
(437,328,o),
(476,286,o),
(476,214,cs),
(476,131,o),
(400,85,o),
(275,72,c),
(278,62,l),
(315,95,o),
(333,129,o),
(333,181,cs),
(333,259,o),
(266,315,o),
(174,315,cs)
);
}
);
};
layerId = "A438B240-95AE-4946-86DC-3975CF9A9D61";
name = "20 May 24 at 19:33";
shapes = (
{
closed = 1;
nodes = (
(78,315,o),
(27,271,o),
(27,207,cs),
(27,182,o),
(33,159,o),
(44,135,c),
(119,152,l),
(112,165,o),
(108,183,o),
(108,196,cs),
(108,224,o),
(127,245,o),
(175,245,cs),
(229,245,o),
(257,214,o),
(257,169,cs),
(257,120,o),
(221,89,o),
(161,68,c),
(183,0,l),
(197,0,ls),
(390,0,o),
(558,53,o),
(558,216,cs),
(558,315,o),
(516,387,o),
(304,447,cs),
(135,495,o),
(119,511,o),
(119,547,cs),
(119,561,o),
(126,577,o),
(146,596,c),
(83,631,l),
(48,598,o),
(35,566,o),
(35,536,cs),
(35,460,o),
(91,427,o),
(274,375,cs),
(437,328,o),
(476,286,o),
(476,214,cs),
(476,131,o),
(400,85,o),
(275,72,c),
(278,62,l),
(315,95,o),
(333,129,o),
(333,181,cs),
(333,259,o),
(266,315,o),
(174,315,cs)
);
}
);
width = 592;
},
{
anchors = (
{
name = top_vedic;
pos = (296,622);
}
);
associatedMasterId = UUID0;
background = {
anchors = (
{
name = Anchor8;
pos = (296,622);
}
);
};
guides = (
{
angle = -14.6697;
pos = (269,371);
},
{
angle = 90;
pos = (41,183);
}
);
layerId = "4B58001B-58F3-48A5-91B5-2255E4FE1AB9";
name = "10 Jun 24 at 16:54";
shapes = (
{
closed = 1;
nodes = (
(396,0,o),
(544,60,o),
(544,222,cs),
(544,329,o),
(494,403,o),
(303,453,cs),
(147,494,o),
(134,532,o),
(134,576,cs),
(134,586,o),
(135,599,o),
(139,622,c),
(61,629,l),
(56,607,o),
(53,589,o),
(53,567,cs),
(53,476,o),
(109,425,o),
(269,382,cs),
(438,337,o),
(462,291,o),
(462,218,cs),
(462,125,o),
(390,85,o),
(297,74,c),
(295,55,l),
(332,88,o),
(349,129,o),
(349,186,cs),
(349,269,o),
(293,325,o),
(193,325,cs),
(102,325,o),
(41,257,o),
(41,183,cs),
(41,127,o),
(73,87,o),
(127,87,cs),
(166,87,o),
(193,111,o),
(193,150,cs),
(193,189,o),
(166,210,o),
(130,210,cs),
(95,210,o),
(69,185,o),
(69,151,c),
(133,162,l),
(126,170,o),
(122,181,o),
(122,191,cs),
(122,226,o),
(148,255,o),
(198,255,cs),
(247,255,o),
(272,222,o),
(272,177,cs),
(272,123,o),
(242,91,o),
(217,68,c),
(240,0,l)
);
}
);
width = 592;
},
{
anchors = (
{
name = top_vedic;
pos = (296,607);
}
);
background = {
anchors = (
{
name = Anchor8;
pos = (295,622);
}
);
shapes = (
{
closed = 1;
nodes = (
(425,15,o),
(515,81,o),
(515,199,cs),
(515,289,o),
(469,354,o),
(299,405,cs),
(126,457,o),
(104,508,o),
(104,556,cs),
(104,573,o),
(106,591,o),
(112,616,c),
(91,618,l),
(85,596,o),
(82,575,o),
(82,554,cs),
(82,489,o),
(122,436,o),
(297,386,cs),
(463,337,o),
(493,274,o),
(493,200,cs),
(493,98,o),
(415,35,o),
(298,20,c),
(297,10,l),
(310,38,o),
(320,81,o),
(320,121,cs),
(320,198,o),
(272,258,o),
(188,258,cs),
(116,258,o),
(60,209,o),
(60,135,cs),
(60,60,o),
(111,19,o),
(147,19,cs),
(179,19,o),
(191,36,o),
(191,58,cs),
(191,81,o),
(177,94,o),
(155,94,cs),
(131,94,o),
(117,76,o),
(117,48,c),
(123,26,l),
(152,35,l),
(129,34,o),
(82,60,o),
(82,133,cs),
(82,187,o),
(123,236,o),
(189,236,cs),
(265,236,o),
(298,185,o),
(298,123,cs),
(298,85,o),
(290,56,o),
(276,18,c),
(296,1,l)
);
}
);
};
layerId = "28FB090A-653E-4199-B7BE-FAE23D31B682";
shapes = (
{
closed = 1;
nodes = (
(435,15,o),
(525,81,o),
(525,199,cs),
(525,289,o),
(479,354,o),
(309,405,cs),
(136,457,o),
(114,508,o),
(114,556,cs),
(114,573,o),
(116,591,o),
(122,616,c),
(101,618,l),
(95,596,o),
(92,575,o),
(92,554,cs),
(92,489,o),
(132,437,o),
(307,386,cs),
(474,337,o),
(503,274,o),
(503,200,cs),
(503,98,o),
(425,35,o),
(308,20,c),
(307,10,l),
(320,38,o),
(330,81,o),
(330,121,cs),
(330,198,o),
(282,258,o),
(198,258,cs),
(126,258,o),
(70,209,o),
(70,135,cs),
(70,60,o),
(121,19,o),
(157,19,cs),
(189,19,o),
(201,36,o),
(201,58,cs),
(201,81,o),
(187,94,o),
(165,94,cs),
(141,94,o),
(127,76,o),
(127,48,c),
(133,26,l),
(162,35,l),
(138,35,o),
(92,60,o),
(92,133,cs),
(92,187,o),
(133,236,o),
(199,236,cs),
(275,236,o),
(308,185,o),
(308,123,cs),
(308,85,o),
(300,56,o),
(286,18,c),
(306,1,l)
);
}
);
width = 592;
},
{
anchors = (
{
name = top_vedic;
pos = (308,635);
}
);
background = {
anchors = (
{
name = Anchor8;
pos = (323,622);
}
);
shapes = (
{
closed = 1;
nodes = (
(508,16,o),
(601,98,o),
(601,233,cs),
(601,352,o),
(539,437,o),
(328,493,cs),
(206,526,o),
(182,551,o),
(182,593,cs),
(182,603,o),
(183,615,o),
(187,633,c),
(36,645,l),
(27,612,o),
(24,589,o),
(24,567,cs),
(24,476,o),
(76,414,o),
(258,366,cs),
(415,326,o),
(437,269,o),
(437,229,cs),
(437,168,o),
(400,140,o),
(354,132,c),
(391,25,l),
(408,59,o),
(414,112,o),
(414,146,cs),
(414,256,o),
(322,328,o),
(205,328,cs),
(82,328,o),
(12,244,o),
(12,151,cs),
(12,53,o),
(73,0,o),
(145,0,cs),
(201,0,o),
(237,31,o),
(237,88,cs),
(237,131,o),
(210,165,o),
(156,164,cs),
(103,163,o),
(77,133,o),
(77,94,c),
(130,100,l),
(178,124,l),
(169,130,o),
(162,145,o),
(162,161,cs),
(162,182,o),
(183,203,o),
(214,203,cs),
(253,203,o),
(279,181,o),
(279,130,cs),
(279,109,o),
(277,86,o),
(272,67,c),
(379,-10,l)
);
}
);
};
layerId = "F455777D-7EDD-47E2-866A-D8A5173CE243";
shapes = (
{
closed = 1;
nodes = (
(508,16,o),
(601,98,o),
(601,233,cs),
(601,352,o),
(540,437,o),
(328,493,cs),
(206,525,o),
(182,551,o),
(182,593,cs),
(182,603,o),
(183,615,o),
(187,633,c),
(36,645,l),
(27,612,o),
(24,589,o),
(24,567,cs),
(24,476,o),
(76,412,o),
(258,366,cs),
(416,326,o),
(437,269,o),
(437,229,cs),
(437,168,o),
(400,140,o),
(354,132,c),
(391,25,l),
(408,59,o),
(414,112,o),
(414,146,cs),
(414,256,o),
(322,328,o),
(205,328,cs),
(82,328,o),
(12,244,o),
(12,151,cs),
(12,53,o),
(73,0,o),
(145,0,cs),
(201,0,o),
(237,31,o),
(237,88,cs),
(237,131,o),
(210,164,o),
(156,164,cs),
(103,164,o),
(77,133,o),
(77,94,c),
(130,100,l),
(178,124,l),
(169,130,o),
(162,145,o),
(162,161,cs),
(162,182,o),
(183,203,o),
(214,203,cs),
(253,203,o),
(279,181,o),
(279,130,cs),
(279,109,o),
(277,86,o),
(272,67,c),
(379,-10,l)
);
}
);
width = 616;
},
{
anchors = (
{
name = top_vedic;
pos = (224,607);
}
);
background = {
shapes = (
{
closed = 1;
nodes = (
(280,-29,o),
(365,23,o),
(365,181,cs),
(365,282,o),
(337,356,o),
(207,405,cs),
(103,444,o),
(82,489,o),
(82,559,cs),
(82,578,o),
(83,596,o),
(88,627,c),
(68,629,l),
(65,611,o),
(62,582,o),
(62,562,cs),
(62,472,o),
(94,427,o),
(200,387,cs),
(322,341,o),
(345,272,o),
(345,184,cs),
(345,47,o),
(280,-9,o),
(212,-28,c),
(217,-37,l),
(224,-12,o),
(233,34,o),
(233,74,cs),
(233,156,o),
(199,211,o),
(137,211,cs),
(84,211,o),
(46,161,o),
(46,87,cs),
(46,13,o),
(78,-28,o),
(110,-28,cs),
(132,-28,o),
(143,-12,o),
(143,11,cs),
(143,33,o),
(132,47,o),
(115,47,cs),
(97,47,o),
(86,30,o),
(86,1,c),
(95,-17,l),
(114,-10,l),
(98,-9,o),
(66,12,o),
(66,86,cs),
(66,143,o),
(92,192,o),
(139,192,cs),
(192,192,o),
(214,140,o),
(214,78,cs),
(214,38,o),
(208,6,o),
(199,-33,c),
(216,-46,l)
);
}
);
};
guides = (
{
angle = -23.0255;
pos = (200,386);
}
);
layerId = "ADAF9463-560A-4353-9B5A-2FAD12EBF6B5";
shapes = (
{
closed = 1;
nodes = (
(316,19,o),
(398,75,o),
(398,198,cs),
(398,289,o),
(365,353,o),
(245,404,cs),
(139,449,o),
(115,487,o),
(115,549,cs),
(115,567,o),
(117,584,o),
(121,609,c),
(101,611,l),
(97,591,o),
(95,569,o),
(95,551,cs),
(95,471,o),
(132,431,o),
(238,386,cs),
(346,340,o),
(378,281,o),
(378,199,cs),
(378,93,o),
(313,37,o),
(250,20,c),
(256,10,l),
(262,35,o),
(271,81,o),
(271,121,cs),
(271,204,o),
(237,258,o),
(175,258,cs),
(122,258,o),
(84,208,o),
(84,134,cs),
(84,60,o),
(116,19,o),
(148,19,cs),
(170,19,o),
(181,35,o),
(181,59,cs),
(181,80,o),
(170,94,o),
(153,94,cs),
(135,94,o),
(124,77,o),
(124,48,c),
(132,30,l),
(151,37,l),
(136,38,o),
(104,59,o),
(104,133,cs),
(104,192,o),
(130,239,o),
(177,239,cs),
(230,239,o),
(252,187,o),
(252,125,cs),
(252,85,o),
(246,53,o),
(237,14,c),
(254,1,l)
);
}
);
width = 449;
},
{
anchors = (
{
name = top_vedic;
pos = (224,621);
}
);
layerId = "D7742CE6-1B18-47A0-AEB5-463D77EA217C";
shapes = (
{
closed = 1;
nodes = (
(354,29,o),
(423,98,o),
(423,219,cs),
(423,316,o),
(382,392,o),
(240,446,cs),
(137,486,o),
(116,520,o),
(116,572,cs),
(116,584,o),
(118,601,o),
(121,620,c),
(52,627,l),
(47,604,o),
(45,585,o),
(45,565,cs),
(45,476,o),
(86,431,o),
(211,383,cs),
(330,337,o),
(351,288,o),
(351,214,cs),
(351,133,o),
(303,79,o),
(249,57,c),
(274,34,l),
(283,65,o),
(287,93,o),
(287,126,cs),
(287,228,o),
(237,287,o),
(158,287,cs),
(81,287,o),
(36,225,o),
(36,139,cs),
(36,49,o),
(74,6,o),
(120,6,cs),
(152,6,o),
(174,27,o),
(174,65,cs),
(174,103,o),
(155,122,o),
(127,122,cs),
(97,122,o),
(79,99,o),
(79,65,c),
(99,57,l),
(120,70,l),
(111,84,o),
(105,110,o),
(105,136,cs),
(105,187,o),
(126,224,o),
(165,224,cs),
(204,224,o),
(222,186,o),
(222,131,cs),
(222,97,o),
(219,70,o),
(210,33,c),
(266,-8,l)
);
}
);
width = 449;
},
{
anchors = (
{
name = top_vedic;
pos = (240,634);
}
);
layerId = "F138D99C-4E28-42C5-9F3E-22494052B08F";
shapes = (
{
closed = 1;
nodes = (
(403,25,o),
(475,106,o),
(475,239,cs),
(475,346,o),
(435,423,o),
(302,475,cs),
(209,511,o),
(167,539,o),
(167,587,cs),
(167,598,o),
(168,609,o),
(171,628,c),
(36,640,l),
(30,613,o),
(27,588,o),
(27,559,cs),
(27,484,o),
(71,425,o),
(199,379,cs),
(303,342,o),
(330,301,o),
(330,228,cs),
(330,186,o),
(321,136,o),
(261,119,c),
(298,27,l),
(314,59,o),
(320,107,o),
(320,143,cs),
(320,254,o),
(264,326,o),
(162,326,cs),
(66,326,o),
(10,247,o),
(10,152,cs),
(10,60,o),
(55,6,o),
(116,6,cs),
(160,6,o),
(194,34,o),
(194,87,cs),
(194,128,o),
(173,159,o),
(123,159,cs),
(82,159,o),
(60,132,o),
(60,94,c),
(107,97,l),
(152,120,l),
(146,128,o),
(141,146,o),
(141,161,cs),
(141,187,o),
(152,210,o),
(176,210,cs),
(201,210,o),
(221,186,o),
(221,123,cs),
(221,94,o),
(220,76,o),
(217,53,c),
(314,-9,l)
);
}
);
width = 481;
}
);
unicode = 2543;
}
{
color = 5;
glyphname = "oneNumr-beng";
layers = (
{
background = {
shapes = (
{
closed = 1;
nodes = (
(144,18,l),
(289,121,o),
(427,254,o),
(520,489,c),
(447,517,l),
(358,307,o),
(234,189,o),
(91,91,c)
);
}
);
};
layerId = UUID0;
shapes = (
{
closed = 1;
nodes = (
(144,18,l),
(289,121,o),
(427,254,o),
(520,489,c),
(447,517,l),
(358,307,o),
(234,189,o),
(91,91,c)
);
}
);
width = 589;
},
{
background = {
shapes = (
{
closed = 1;
nodes = (
(116,44,l),
(250,142,o),
(367,262,o),
(461,480,c),
(448,486,l),
(360,287,o),
(245,159,o),
(104,60,c)
);
}
);
};
layerId = "28FB090A-653E-4199-B7BE-FAE23D31B682";
shapes = (
{
closed = 1;
nodes = (
(116,44,l),
(250,142,o),
(367,262,o),
(461,480,c),
(448,486,l),
(360,287,o),
(245,159,o),
(104,60,c)
);
}
);
width = 569;
},
{
background = {
shapes = (
{
closed = 1;
nodes = (
(170,0,l),
(353,122,o),
(472,269,o),
(557,489,c),
(421,542,l),
(332,357,o),
(223,250,o),
(68,146,c)
);
}
);
};
layerId = "F455777D-7EDD-47E2-866A-D8A5173CE243";
shapes = (
{
closed = 1;
nodes = (
(170,0,l),
(353,122,o),
(472,269,o),
(557,489,c),
(421,542,l),
(332,357,o),
(223,250,o),
(68,146,c)
);
}
);
width = 620;
},
{
layerId = "ADAF9463-560A-4353-9B5A-2FAD12EBF6B5";
shapes = (
{
closed = 1;
nodes = (
(82,45,l),
(177,143,o),
(259,262,o),
(325,480,c),
(309,485,l),
(248,288,o),
(169,160,o),
(70,59,c)
);
}
);
width = 397;
},
{
layerId = "D7742CE6-1B18-47A0-AEB5-463D77EA217C";
shapes = (
{
closed = 1;
nodes = (
(110,22,l),
(225,125,o),
(324,255,o),
(395,491,c),
(326,513,l),
(256,301,o),
(173,185,o),
(60,84,c)
);
}
);
width = 445;
},
{
layerId = "F138D99C-4E28-42C5-9F3E-22494052B08F";
shapes = (
{
closed = 1;
nodes = (
(138,3,l),
(290,122,o),
(378,267,o),
(443,494,c),
(316,537,l),
(248,348,o),
(168,237,o),
(35,134,c)
);
}
);
width = 485;
}
);
script = bengali;
unicode = 2548;
}
{
color = 5;
glyphname = uni1CEA;
layers = (
{
anchors = (
{
name = top_vedic;
pos = (358,622);
}
);
background = {
shapes = (
{
closed = 1;
nodes = (
(550,0,o),
(634,82,o),
(634,197,cs),
(634,265,o),
(599,316,o),
(541,375,cs),
(502,415,o),
(479,444,o),
(479,493,cs),
(479,538,o),
(514,568,o),
(557,568,cs),
(595,568,o),
(617,548,o),
(617,518,cs),
(617,488,o),
(592,464,o),
(533,456,c),
(548,389,l),
(659,402,o),
(692,464,o),
(692,521,cs),
(692,585,o),
(644,632,o),
(562,632,cs),
(439,632,o),
(401,548,o),
(401,489,cs),
(401,425,o),
(434,379,o),
(491,317,cs),
(533,271,o),
(554,245,o),
(554,197,cs),
(554,141,o),
(512,74,o),
(360,74,cs),
(203,74,o),
(161,149,o),
(161,200,cs),
(161,248,o),
(178,275,o),
(230,324,cs),
(294,384,o),
(314,425,o),
(314,496,cs),
(314,557,o),
(272,632,o),
(154,632,cs),
(67,632,o),
(24,583,o),
(24,514,cs),
(24,461,o),
(54,400,o),
(172,388,c),
(182,458,l),
(123,462,o),
(98,484,o),
(98,518,cs),
(98,548,o),
(113,568,o),
(151,568,cs),
(199,568,o),
(236,538,o),
(236,487,cs),
(236,444,o),
(218,414,o),
(172,371,cs),
(128,329,o),
(81,273,o),
(81,197,cs),
(81,86,o),
(161,0,o),
(360,0,cs)
);
}
);
};
layerId = UUID0;
shapes = (
{
closed = 1;
nodes = (
(540,0,o),
(624,82,o),
(624,197,cs),
(624,273,o),
(580,323,o),
(534,371,cs),
(493,414,o),
(469,446,o),
(469,487,cs),
(469,540,o),
(503,568,o),
(546,568,cs),
(585,568,o),
(602,548,o),
(602,518,cs),
(602,484,o),
(577,462,o),
(524,458,c),
(540,388,l),
(646,400,o),
(676,461,o),
(676,514,cs),
(676,583,o),
(628,632,o),
(543,632,cs),
(434,632,o),
(391,557,o),
(391,493,cs),
(391,425,o),
(424,379,o),
(481,317,cs),
(524,271,o),
(544,246,o),
(544,196,cs),
(544,141,o),
(502,74,o),
(356,74,cs),
(214,74,o),
(172,139,o),
(172,195,cs),
(172,243,o),
(193,271,o),
(235,317,cs),
(292,379,o),
(325,425,o),
(325,489,cs),
(325,548,o),
(286,632,o),
(165,632,cs),
(88,632,o),
(40,585,o),
(40,521,cs),
(40,464,o),
(73,402,o),
(178,389,c),
(193,456,l),
(140,464,o),
(115,488,o),
(115,518,cs),
(115,548,o),
(137,568,o),
(174,568,cs),
(216,568,o),
(247,538,o),
(247,493,cs),
(247,444,o),
(224,415,o),
(185,375,cs),
(127,316,o),
(92,265,o),
(92,197,cs),
(92,82,o),
(176,0,o),
(356,0,cs)
);
}
);
width = 716;
},
{
anchors = (
{
name = top_vedic;
pos = (347,607);
}
);
background = {
shapes = (
{
closed = 1;
nodes = (
(517,0,o),
(586,91,o),
(586,190,cs),
(586,264,o),
(543,315,o),
(508,352,cs),
(458,404,o),
(435,438,o),
(435,496,cs),
(435,565,o),
(480,606,o),
(538,606,cs),
(589,606,o),
(615,577,o),
(615,539,cs),
(615,495,o),
(581,461,o),
(502,451,c),
(507,425,l),
(599,437,o),
(642,484,o),
(642,541,cs),
(642,594,o),
(603,632,o),
(545,632,cs),
(449,632,o),
(408,559,o),
(408,497,cs),
(408,423,o),
(436,392,o),
(491,332,cs),
(535,284,o),
(559,246,o),
(559,191,cs),
(559,115,o),
(515,26,o),
(347,26,cs),
(161,26,o),
(129,125,o),
(129,191,cs),
(129,237,o),
(146,279,o),
(197,332,cs),
(250,388,o),
(280,432,o),
(280,498,cs),
(280,566,o),
(234,632,o),
(148,632,cs),
(82,632,o),
(46,588,o),
(46,537,cs),
(46,478,o),
(86,439,o),
(181,425,c),
(184,451,l),
(102,462,o),
(73,491,o),
(73,536,cs),
(73,569,o),
(92,606,o),
(148,606,cs),
(208,606,o),
(253,567,o),
(253,496,cs),
(253,436,o),
(227,404,o),
(176,348,cs),
(138,307,o),
(102,258,o),
(102,190,cs),
(102,89,o),
(168,0,o),
(348,0,cs)
);
}
);
};
layerId = "28FB090A-653E-4199-B7BE-FAE23D31B682";
shapes = (
{
closed = 1;
nodes = (
(520,0,o),
(586,89,o),
(586,185,cs),
(586,248,o),
(551,297,o),
(512,338,cs),
(458,394,o),
(435,428,o),
(435,486,cs),
(435,552,o),
(480,591,o),
(538,591,cs),
(598,591,o),
(615,556,o),
(615,524,cs),
(615,473,o),
(584,442,o),
(502,431,c),
(507,405,l),
(596,416,o),
(642,460,o),
(642,525,cs),
(642,575,o),
(608,617,o),
(536,617,cs),
(454,617,o),
(408,551,o),
(408,487,cs),
(408,414,o),
(436,382,o),
(491,322,cs),
(539,270,o),
(559,232,o),
(559,186,cs),
(559,125,o),
(527,26,o),
(347,26,cs),
(173,26,o),
(129,115,o),
(129,186,cs),
(129,236,o),
(153,274,o),
(197,322,cs),
(252,382,o),
(280,413,o),
(280,487,cs),
(280,548,o),
(239,617,o),
(143,617,cs),
(85,617,o),
(46,579,o),
(46,525,cs),
(46,464,o),
(89,417,o),
(181,405,c),
(186,431,l),
(107,441,o),
(73,475,o),
(73,523,cs),
(73,562,o),
(99,591,o),
(150,591,cs),
(208,591,o),
(253,550,o),
(253,486,cs),
(253,428,o),
(230,394,o),
(180,342,cs),
(145,305,o),
(102,254,o),
(102,185,cs),
(102,91,o),
(171,0,o),
(346,0,cs)
);
}
);
width = 688;
},
{
anchors = (
{
name = top_vedic;
pos = (408,635);
}
);
background = {
shapes = (
{
closed = 1;
nodes = (
(621,0,o),
(718,87,o),
(718,212,cs),
(718,275,o),
(684,333,o),
(632,395,cs),
(593,441,o),
(577,459,o),
(577,482,cs),
(577,505,o),
(592,520,o),
(620,520,cs),
(640,520,o),
(655,510,o),
(655,492,cs),
(655,473,o),
(642,465,o),
(621,454,c),
(686,352,l),
(759,384,o),
(801,424,o),
(801,495,cs),
(801,576,o),
(734,632,o),
(623,632,cs),
(483,632,o),
(429,548,o),
(429,474,cs),
(429,411,o),
(446,374,o),
(493,320,cs),
(537,270,o),
(546,240,o),
(546,217,cs),
(546,172,o),
(504,142,o),
(416,142,cs),
(328,142,o),
(286,172,o),
(286,217,cs),
(286,243,o),
(288,267,o),
(340,327,cs),
(389,383,o),
(405,434,o),
(405,485,cs),
(405,544,o),
(374,632,o),
(223,632,cs),
(101,632,o),
(31,573,o),
(31,487,cs),
(31,417,o),
(80,379,o),
(145,351,c),
(211,454,l),
(190,462,o),
(177,472,o),
(177,490,cs),
(177,513,o),
(197,520,o),
(215,520,cs),
(243,520,o),
(255,504,o),
(255,485,cs),
(255,460,o),
(238,436,o),
(200,395,cs),
(130,320,o),
(114,265,o),
(114,208,cs),
(114,93,o),
(181,0,o),
(416,0,cs)
);
}
);
};
layerId = "F455777D-7EDD-47E2-866A-D8A5173CE243";
shapes = (
{
closed = 1;
nodes = (
(651,0,o),
(723,93,o),
(723,206,cs),
(723,265,o),
(699,315,o),
(630,393,cs),
(592,436,o),
(573,465,o),
(573,492,cs),
(573,513,o),
(585,533,o),
(616,533,cs),
(633,533,o),
(651,526,o),
(651,503,cs),
(651,485,o),
(638,475,o),
(617,467,c),
(683,364,l),
(748,392,o),
(797,430,o),
(797,500,cs),
(797,576,o),
(727,645,o),
(605,645,cs),
(454,645,o),
(423,557,o),
(423,498,cs),
(423,447,o),
(443,396,o),
(492,340,cs),
(546,279,o),
(551,248,o),
(551,227,cs),
(551,172,o),
(504,142,o),
(416,142,cs),
(328,142,o),
(281,172,o),
(281,220,cs),
(281,250,o),
(292,270,o),
(339,320,cs),
(388,372,o),
(407,424,o),
(407,487,cs),
(407,561,o),
(353,645,o),
(213,645,cs),
(102,645,o),
(35,589,o),
(35,508,cs),
(35,437,o),
(77,397,o),
(150,365,c),
(215,467,l),
(194,478,o),
(181,486,o),
(181,505,cs),
(181,523,o),
(196,533,o),
(216,533,cs),
(244,533,o),
(259,518,o),
(259,490,cs),
(259,462,o),
(244,439,o),
(202,393,cs),
(148,333,o),
(109,275,o),
(109,212,cs),
(109,87,o),
(211,0,o),
(416,0,cs)
);
}
);
width = 832;
},
{
anchors = (
{
name = top_vedic;
pos = (243,607);
}
);
layerId = "ADAF9463-560A-4353-9B5A-2FAD12EBF6B5";
shapes = (
{
closed = 1;
nodes = (
(362,0,o),
(411,86,o),
(411,185,cs),
(411,245,o),
(386,291,o),
(357,334,cs),
(320,390,o),
(303,430,o),
(303,489,cs),
(303,560,o),
(334,598,o),
(374,598,cs),
(414,598,o),
(430,561,o),
(430,524,cs),
(430,471,o),
(404,433,o),
(351,423,c),
(356,405,l),
(419,418,o),
(450,460,o),
(450,525,cs),
(450,574,o),
(424,617,o),
(372,617,cs),
(314,617,o),
(283,557,o),
(283,490,cs),
(283,417,o),
(302,383,o),
(341,322,cs),
(373,271,o),
(391,233,o),
(391,186,cs),
(391,115,o),
(363,21,o),
(243,21,cs),
(121,21,o),
(91,109,o),
(91,186,cs),
(91,234,o),
(108,272,o),
(141,322,cs),
(180,381,o),
(199,416,o),
(199,490,cs),
(199,551,o),
(175,617,o),
(110,617,cs),
(65,617,o),
(32,578,o),
(32,525,cs),
(32,465,o),
(61,419,o),
(123,405,c),
(129,423,l),
(77,433,o),
(52,475,o),
(52,523,cs),
(52,567,o),
(75,598,o),
(112,598,cs),
(150,598,o),
(179,558,o),
(179,488,cs),
(179,431,o),
(162,389,o),
(126,337,cs),
(100,299,o),
(71,252,o),
(71,185,cs),
(71,92,o),
(120,0,o),
(242,0,cs)
);
}
);
width = 482;
},
{
anchors = (
{
name = top_vedic;
pos = (275,620);
}
);
layerId = "D7742CE6-1B18-47A0-AEB5-463D77EA217C";
shapes = (
{
closed = 1;
nodes = (
(421,0,o),
(481,82,o),
(481,195,cs),
(481,270,o),
(452,320,o),
(415,370,cs),
(382,413,o),
(366,445,o),
(366,487,cs),
(366,542,o),
(388,572,o),
(419,572,cs),
(445,572,o),
(458,550,o),
(458,519,cs),
(458,478,o),
(438,458,o),
(406,453,c),
(426,393,l),
(497,405,o),
(524,460,o),
(524,516,cs),
(524,581,o),
(485,630,o),
(416,630,cs),
(329,630,o),
(299,557,o),
(299,493,cs),
(299,424,o),
(319,379,o),
(362,317,cs),
(396,268,o),
(407,243,o),
(407,194,cs),
(407,131,o),
(375,64,o),
(276,64,cs),
(178,64,o),
(147,131,o),
(147,193,cs),
(147,242,o),
(160,271,o),
(192,318,cs),
(234,380,o),
(255,424,o),
(255,489,cs),
(255,547,o),
(225,630,o),
(133,630,cs),
(70,630,o),
(29,584,o),
(29,521,cs),
(29,466,o),
(55,404,o),
(128,391,c),
(147,451,l),
(113,460,o),
(95,485,o),
(95,518,cs),
(95,551,o),
(112,572,o),
(139,572,cs),
(168,572,o),
(187,540,o),
(187,493,cs),
(187,442,o),
(171,411,o),
(142,371,cs),
(100,315,o),
(72,264,o),
(72,195,cs),
(72,84,o),
(137,0,o),
(276,0,cs)
);
}
);
width = 553;
},
{
anchors = (
{
name = top_vedic;
pos = (328,633);
}
);
layerId = "F138D99C-4E28-42C5-9F3E-22494052B08F";
shapes = (
{
closed = 1;
nodes = (
(500,0,o),
(587,74,o),
(587,186,cs),
(587,252,o),
(567,292,o),
(514,389,cs),
(487,439,o),
(471,471,o),
(471,505,cs),
(471,520,o),
(476,539,o),
(493,539,cs),
(506,539,o),
(514,531,o),
(514,509,cs),
(514,488,o),
(507,472,o),
(493,460,c),
(576,370,l),
(607,395,o),
(647,437,o),
(647,503,cs),
(647,577,o),
(596,643,o),
(490,643,cs),
(374,643,o),
(344,560,o),
(344,496,cs),
(344,431,o),
(361,382,o),
(395,319,cs),
(419,275,o),
(429,249,o),
(429,219,cs),
(429,167,o),
(397,134,o),
(337,134,cs),
(276,134,o),
(245,170,o),
(245,214,cs),
(245,245,o),
(254,273,o),
(283,317,cs),
(321,377,o),
(327,426,o),
(327,487,cs),
(327,559,o),
(291,643,o),
(172,643,cs),
(78,643,o),
(25,587,o),
(25,505,cs),
(25,448,o),
(54,397,o),
(104,368,c),
(179,465,l),
(164,476,o),
(158,490,o),
(158,509,cs),
(158,529,o),
(166,539,o),
(178,539,cs),
(195,539,o),
(202,523,o),
(202,500,cs),
(202,459,o),
(189,434,o),
(161,389,cs),
(116,320,o),
(86,264,o),
(86,195,cs),
(86,86,o),
(173,0,o),
(337,0,cs)
);
}
);
width = 673;
}
);
unicode = 7402;
}
{
color = 5;
glyphname = uni1CF7;
kernRight = R_BNG_uni1CE1;
layers = (
{
background = {
shapes = (
{
closed = 1;
nodes = (
(513,853,l),
(466,889,o),
(406,917,o),
(329,917,cs),
(221,917,o),
(126,859,o),
(126,664,cs),
(126,416,o),
(214,157,o),
(214,-128,cs),
(214,-214,o),
(193,-329,o),
(42,-329,cs),
(1,-329,o),
(-35,-325,o),
(-72,-318,c),
(-85,-391,l),
(-40,-399,o),
(4,-404,o),
(47,-404,cs),
(260,-404,o),
(295,-264,o),
(295,-128,cs),
(295,183,o),
(207,424,o),
(207,664,cs),
(207,818,o),
(271,844,o),
(337,844,cs),
(385,844,o),
(426,826,o),
(469,794,c)
);
}
);
};
layerId = UUID0;
shapes = (
{
closed = 1;
nodes = (
(513,853,l),
(466,889,o),
(406,917,o),
(329,917,cs),
(221,917,o),
(126,859,o),
(126,668,cs),
(126,354,o),
(167,93,o),
(167,-271,c),
(247,-271,l),
(247,93,o),
(207,344,o),
(207,664,cs),
(207,818,o),
(271,844,o),
(337,844,cs),
(385,844,o),
(426,826,o),
(469,794,c)
);
}
);
width = 456;
},
{
associatedMasterId = UUID0;
attr = {
coordinates = (
151,
100
);
};
background = {
shapes = (
{
closed = 1;
nodes = (
(547.11,852.17,l),
(486.74,893.05,o),
(429.79,917,o),
(345.42,917,cs),
(235.15,917,o),
(110.75,866.71,o),
(110.75,647.26,cs),
(110.75,383.89,o),
(154.19,60.67,o),
(154.19,-271,c),
(293.97,-271,l),
(293.97,72.26,o),
(252.14,372.67,o),
(252.14,649.97,cs),
(252.14,768.98,o),
(300.72,803.74,o),
(361.74,803.74,cs),
(405.74,803.74,o),
(440.2,787.18,o),
(475.1,762.67,c)
);
}
);
};
layerId = "1311068b-8a92-4b66-bb0a-13c9f3879706";
name = "Bold Semi (intermediate)";
shapes = (
{
closed = 1;
nodes = (
(545,852,l),
(486,895,o),
(431,917,o),
(355,917,cs),
(172,917,o),
(111,793,o),
(111,644,cs),
(111,394,o),
(153,49,o),
(153,-271,c),
(287,-271,l),
(287,65,o),
(246,379,o),
(246,644,cs),
(246,756,o),
(286,806,o),
(355,806,cs),
(392,806,o),
(434,789,o),
(472,761,c)
);
}
);
width = 485;
},
{
background = {
shapes = (
{
closed = 1;
nodes = (
(494,846,l),
(450,880,o),
(394,907,o),
(328,907,cs),
(229,907,o),
(149,854,o),
(149,677,cs),
(149,424,o),
(230,155,o),
(230,-123,cs),
(230,-271,o),
(189,-365,o),
(51,-365,cs),
(19,-365,o),
(-20,-360,o),
(-46,-356,c),
(-50,-382,l),
(-31,-386,o),
(12,-391,o),
(53,-391,cs),
(207,-391,o),
(257,-286,o),
(257,-123,cs),
(257,156,o),
(176,428,o),
(176,676,cs),
(176,823,o),
(232,881,o),
(329,881,cs),
(391,881,o),
(436,857,o),
(480,825,c)
);
}
);
};
layerId = "28FB090A-653E-4199-B7BE-FAE23D31B682";
shapes = (
{
closed = 1;
nodes = (
(494,846,l),
(450,880,o),
(395,907,o),
(328,907,cs),
(230,907,o),
(149,854,o),
(149,677,cs),
(149,397,o),
(194,116,o),
(194,-254,c),
(220,-254,l),
(220,116,o),
(176,397,o),
(176,676,cs),
(176,823,o),
(232,881,o),
(329,881,cs),
(391,881,o),
(436,857,o),
(480,825,c)
);
}
);
width = 436;
},
{
background = {
shapes = (
{
closed = 1;
nodes = (
(567,851,l),
(500,895,o),
(445,917,o),
(354,917,cs),
(241,917,o),
(101,871,o),
(101,634,cs),
(101,441,o),
(197,137,o),
(197,-89,cs),
(197,-210,o),
(169,-266,o),
(56,-266,cs),
(32,-266,o),
(-14,-261,o),
(-46,-255,c),
(-65,-390,l),
(-12,-402,o),
(39,-404,o),
(75,-404,cs),
(339,-404,o),
(375,-253,o),
(375,-97,cs),
(375,154,o),
(281,430,o),
(281,641,cs),
(281,737,o),
(321,778,o),
(375,778,cs),
(419,778,o),
(448,763,o),
(479,742,c)
);
}
);
};
layerId = "F455777D-7EDD-47E2-866A-D8A5173CE243";
shapes = (
{
closed = 1;
nodes = (
(567,851,l),
(500,895,o),
(445,917,o),
(354,917,cs),
(241,917,o),
(101,871,o),
(101,634,cs),
(101,403,o),
(146,40,o),
(146,-271,c),
(324,-271,l),
(324,59,o),
(281,391,o),
(281,641,cs),
(281,737,o),
(321,778,o),
(375,778,cs),
(419,778,o),
(448,763,o),
(479,742,c)
);
}
);
width = 507;
},
{
background = {
shapes = (
{
closed = 1;
nodes = (
(346,846,l),
(316,880,o),
(279,906,o),
(229,906,cs),
(153,906,o),
(102,852,o),
(102,687,cs),
(102,425,o),
(160,154,o),
(160,-123,cs),
(160,-274,o),
(131,-371,o),
(33,-371,cs),
(12,-371,o),
(-13,-367,o),
(-33,-362,c),
(-37,-381,l),
(-16,-387,o),
(10,-390,o),
(34,-390,cs),
(147,-390,o),
(182,-286,o),
(182,-123,cs),
(182,154,o),
(124,428,o),
(124,686,cs),
(124,822,o),
(161,887,o),
(230,887,cs),
(273,887,o),
(301,866,o),
(333,833,c)
);
}
);
};
layerId = "ADAF9463-560A-4353-9B5A-2FAD12EBF6B5";
shapes = (
{
closed = 1;
nodes = (
(346,846,l),
(316,880,o),
(279,906,o),
(229,906,cs),
(153,906,o),
(102,852,o),
(102,687,cs),
(102,399,o),
(134,116,o),
(134,-254,c),
(156,-254,l),
(156,116,o),
(124,400,o),
(124,686,cs),
(124,822,o),
(161,887,o),
(230,887,cs),
(273,887,o),
(301,866,o),
(333,833,c)
);
}
);
width = 306;
},
{
layerId = "D7742CE6-1B18-47A0-AEB5-463D77EA217C";
shapes = (
{
closed = 1;
nodes = (
(391,851,l),
(353,887,o),
(309,915,o),
(250,915,cs),
(158,915,o),
(91,853,o),
(91,682,cs),
(91,361,o),
(122,97,o),
(122,-269,c),
(193,-269,l),
(193,97,o),
(162,352,o),
(162,671,cs),
(162,819,o),
(203,850,o),
(256,850,cs),
(290,850,o),
(320,833,o),
(353,803,c)
);
}
);
width = 346;
},
{
layerId = "F138D99C-4E28-42C5-9F3E-22494052B08F";
shapes = (
{
closed = 1;
nodes = (
(457,851,l),
(405,894,o),
(355,917,o),
(282,917,cs),
(176,917,o),
(68,852,o),
(68,641,cs),
(68,397,o),
(105,47,o),
(105,-271,c),
(286,-271,l),
(286,63,o),
(250,384,o),
(250,653,cs),
(250,748,o),
(275,783,o),
(317,783,cs),
(340,783,o),
(359,774,o),
(383,750,c)
);
}
);
width = 411;
}
);
unicode = 7415;
}
{
color = 0;
glyphname = quoteleft.beng;
layers = (
{
associatedMasterId = UUID0;
attr = {
coordinates = (
151,
100
);
};
background = {
shapes = (
{
closed = 1;
nodes = (
(223.21,459.6,l),
(232.6,535.31,o),
(252.21,642.29,o),
(271.6,729,c),
(162.51,729,l),
(129.51,655.39,o),
(94.9,542.21,o),
(76.51,470.6,c),
(83.51,459.6,l)
);
}
);
};
layerId = "3b52de3c-7858-473a-ab00-802fb0bd4c7d";
name = "Bold Semi (intermediate)";
shapes = (
{
closed = 1;
nodes = (
(222,484,l),
(232,553,o),
(252,651,o),
(271,729,c),
(164,729,l),
(131,656,o),
(96,566,o),
(78,495,c),
(85,484,l)
);
}
);
width = 335;
},
{
background = {
shapes = (
{
closed = 1;
nodes = (
(186,484,l),
(196,553,o),
(215,649,o),
(235,729,c),
(168,729,l),
(135,656,o),
(101,566,o),
(82,495,c),
(89,484,l)
);
}
);
};
layerId = UUID0;
shapes = (
{
closed = 1;
nodes = (
(186,484,l),
(196,553,o),
(215,649,o),
(235,729,c),
(168,729,l),
(135,656,o),
(101,566,o),
(82,495,c),
(89,484,l)
);
}
);
width = 312;
},
{
layerId = "28FB090A-653E-4199-B7BE-FAE23D31B682";
shapes = (
{
closed = 1;
nodes = (
(117,484,l),
(128,560,o),
(144,632,o),
(173,729,c),
(151,729,l),
(123,660,o),
(101,570,o),
(86,496,c),
(89,484,l)
);
}
);
width = 251;
},
{
layerId = "F455777D-7EDD-47E2-866A-D8A5173CE243";
shapes = (
{
closed = 1;
nodes = (
(247,444,l),
(256,524,o),
(276,638,o),
(295,729,c),
(159,729,l),
(126,655,o),
(91,527,o),
(73,455,c),
(80,444,l)
);
}
);
width = 354;
},
{
layerId = "ADAF9463-560A-4353-9B5A-2FAD12EBF6B5";
shapes = (
{
closed = 1;
nodes = (
(116,484,l),
(123,559,o),
(137,635,o),
(165,729,c),
(148,729,l),
(119,659,o),
(100,581,o),
(83,496,c),
(87,484,l)
);
}
);
width = 244;
},
{
layerId = "D7742CE6-1B18-47A0-AEB5-463D77EA217C";
shapes = (
{
closed = 1;
nodes = (
(167,484,l),
(174,555,o),
(190,645,o),
(213,729,c),
(155,729,l),
(124,657,o),
(98,579,o),
(79,495,c),
(85,484,l)
);
}
);
width = 286;
},
{
layerId = "F138D99C-4E28-42C5-9F3E-22494052B08F";
shapes = (
{
closed = 1;
nodes = (
(254,484,l),
(261,549,o),
(280,662,o),
(292,729,c),
(168,729,l),
(131,654,o),
(95,576,o),
(73,493,c),
(82,484,l)
);
}
);
width = 357;
}
);
unicode = 8216;
}
{
color = 4;
export = 0;
glyphname = "_smart-iMatra-beng";
layers = (
{
background = {
shapes = (
{
ref = "iMatra-beng";
}
);
};
layerId = "28FB090A-653E-4199-B7BE-FAE23D31B682";
partSelection = {
Length = 1;
};
shapes = (
{
closed = 1;
nodes = (
(127,0,l),
(127,586,l),
(243,586,l),
(243,607,l),
(128,607,l),
(98,643,o),
(65,688,o),
(49,715,c),
(84,786,o),
(162,840,o),
(246,840,cs),
(325,840,o),
(412,802,o),
(506,700,c),
(522,714,l),
(421,822,o),
(328,862,o),
(244,862,cs),
(148,862,o),
(64,803,o),
(22,714,c),
(42,682,o),
(76,634,o),
(100,607,c),
(-10,607,l),
(-10,586,l),
(106,586,l),
(106,0,l)
);
}
);
width = 233;
},
{
background = {
shapes = (
{
ref = "iMatra-beng";
}
);
};
layerId = UUID0;
partSelection = {
Length = 1;
};
shapes = (
{
closed = 1;
nodes = (
(171,0,l),
(171,551,l),
(271,551,l),
(271,622,l),
(165,622,l),
(142,657,o),
(121,692,o),
(109,716,c),
(145,778,o),
(213,820,o),
(285,820,cs),
(357,820,o),
(427,796,o),
(538,680,c),
(589,724,l),
(478,841,o),
(385,893,o),
(275,893,cs),
(169,893,o),
(71,827,o),
(20,715,c),
(35,687,o),
(57,651,o),
(77,622,c),
(-10,622,l),
(-10,551,l),
(94,551,l),
(94,0,l)
);
}
);
width = 266;
},
{
layerId = "F455777D-7EDD-47E2-866A-D8A5173CE243";
partSelection = {
Length = 1;
};
shapes = (
{
closed = 1;
nodes = (
(227,0,l),
(227,505,l),
(300,505,l),
(300,635,l),
(224,635,l),
(207,661,o),
(191,689,o),
(179,714,c),
(206,750,o),
(254,772,o),
(315,772,cs),
(371,772,o),
(433,757,o),
(533,671,c),
(613,756,l),
(494,879,o),
(395,903,o),
(293,903,cs),
(173,903,o),
(67,848,o),
(-6,731,c),
(12,696,o),
(32,661,o),
(52,635,c),
(-10,635,l),
(-10,505,l),
(63,505,l),
(63,0,l)
);
}
);
width = 290;
},
{
associatedMasterId = "28FB090A-653E-4199-B7BE-FAE23D31B682";
layerId = "9584CA3F-8162-4522-A854-E2EB9B19AD7F";
name = long;
partSelection = {
Length = 2;
};
shapes = (
{
closed = 1;
nodes = (
(127,0,l),
(127,586,l),
(243,586,l),
(243,607,l),
(128,607,l),
(97,643,o),
(69,678,o),
(49,705,c),
(151,812,o),
(322,866,o),
(550,866,cs),
(838,866,o),
(1081,807,o),
(1307,695,c),
(1316,713,l),
(1085,826,o),
(842,887,o),
(547,887,cs),
(311,887,o),
(135,832,o),
(20,708,c),
(44,675,o),
(77,634,o),
(100,607,c),
(-10,607,l),
(-10,586,l),
(106,586,l),
(106,0,l)
);
}
);
width = 233;
},
{
associatedMasterId = UUID0;
layerId = "015AD318-BA76-4EB6-AB1D-81E278B944DB";
name = long;
partSelection = {
Length = 2;
};
shapes = (
{
closed = 1;
nodes = (
(171,0,l),
(171,551,l),
(276,551,l),
(276,622,l),
(165,622,l),
(142,657,o),
(127,686,o),
(118,704,c),
(203,780,o),
(342,841,o),
(597,841,cs),
(868,841,o),
(1139,795,o),
(1418,685,c),
(1445,746,l),
(1190,850,o),
(883,912,o),
(597,912,cs),
(312,912,o),
(141,842,o),
(21,717,c),
(38,687,o),
(57,651,o),
(77,622,c),
(-10,622,l),
(-10,551,l),
(94,551,l),
(94,0,l)
);
}
);
width = 266;
},
{
associatedMasterId = "F455777D-7EDD-47E2-866A-D8A5173CE243";
background = {
shapes = (
{
closed = 1;
nodes = (
(234,622,l),
(220,638,o),
(207,658,o),
(196,678,c),
(280,733,o),
(397,788,o),
(567,788,cs),
(756,788,o),
(924,755,o),
(1242,659,c),
(1286,778,l),
(1001,872,o),
(775,917,o),
(551,917,cs),
(341,917,o),
(187,871,o),
(11,726,c),
(27,699,o),
(58,652,o),
(82,622,c),
(-10,622,l),
(-10,493,l),
(78,493,l),
(78,0,l),
(240,0,l),
(240,493,l),
(329,493,l),
(329,622,l)
);
}
);
};
layerId = "29B0D03A-B50B-4111-9ED4-2F9F71D887FE";
name = long;
partSelection = {
Length = 2;
};
shapes = (
{
closed = 1;
nodes = (
(227,0,l),
(227,505,l),
(300,505,l),
(300,635,l),
(214,635,l),
(199,658,o),
(186,683,o),
(178,700,c),
(244,746,o),
(408,792,o),
(656,792,cs),
(929,792,o),
(1193,765,o),
(1545,666,c),
(1586,776,l),
(1237,878,o),
(945,917,o),
(645,917,cs),
(313,917,o),
(113,851,o),
(-8,741,c),
(8,707,o),
(31,672,o),
(52,635,c),
(-10,635,l),
(-10,505,l),
(63,505,l),
(63,0,l)
);
}
);
width = 290;
},
{
background = {
shapes = (
{
closed = 1;
nodes = (
(91,607,l),
(88,660,l),
(72,660,l),
(72,598,ls),
(72,567,o),
(73,549,o),
(74,534,c),
(57,592,o),
(37,607,o),
(5,607,cs),
(-8,607,l),
(-8,589,l),
(0,589,ls),
(37,589,o),
(51,567,o),
(72,505,c),
(72,0,l),
(92,0,l),
(92,589,l),
(172,589,l),
(172,607,l)
);
}
);
};
layerId = "ADAF9463-560A-4353-9B5A-2FAD12EBF6B5";
partSelection = {
Length = 1;
};
shapes = (
{
closed = 1;
nodes = (
(92,0,l),
(92,589,l),
(172,589,l),
(172,607,l),
(90,607,l),
(67,646,o),
(44,684,o),
(32,713,c),
(62,792,o),
(115,842,o),
(186,842,cs),
(250,842,o),
(301,807,o),
(378,704,c),
(389,717,l),
(308,829,o),
(251,861,o),
(183,861,cs),
(108,861,o),
(43,805,o),
(11,714,c),
(27,679,o),
(49,639,o),
(70,607,c),
(-8,607,l),
(-8,589,l),
(72,589,l),
(72,0,l)
);
}
);
width = 164;
},
{
associatedMasterId = "ADAF9463-560A-4353-9B5A-2FAD12EBF6B5";
background = {
shapes = (
{
closed = 1;
nodes = (
(91,607,l),
(88,660,l),
(72,660,l),
(72,598,ls),
(72,567,o),
(73,549,o),
(74,534,c),
(57,592,o),
(37,607,o),
(5,607,cs),
(-8,607,l),
(-8,589,l),
(0,589,ls),
(37,589,o),
(51,567,o),
(72,505,c),
(72,0,l),
(92,0,l),
(92,589,l),
(172,589,l),
(172,607,l)
);
}
);
};
layerId = "CF366671-614C-4BC6-9C71-B048A9F89A49";
name = long;
partSelection = {
Length = 2;
};
shapes = (
{
closed = 1;
nodes = (
(92,0,l),
(92,589,l),
(172,589,l),
(172,607,l),
(91,607,l),
(67,645,o),
(47,679,o),
(34,706,c),
(111,812,o),
(239,869,o),
(414,869,cs),
(619,869,o),
(806,814,o),
(987,700,c),
(995,716,l),
(815,828,o),
(625,888,o),
(412,888,cs),
(234,888,o),
(94,830,o),
(10,710,c),
(28,675,o),
(49,639,o),
(70,607,c),
(-8,607,l),
(-8,589,l),
(72,589,l),
(72,0,l)
);
}
);
width = 164;
},
{
layerId = "D7742CE6-1B18-47A0-AEB5-463D77EA217C";
partSelection = {
Length = 1;
};
shapes = (
{
closed = 1;
nodes = (
(136,0,l),
(136,558,l),
(210,558,l),
(210,621,l),
(129,621,l),
(113,654,o),
(98,686,o),
(89,713,c),
(113,776,o),
(157,825,o),
(219,825,cs),
(271,825,o),
(320,798,o),
(399,686,c),
(439,719,l),
(361,843,o),
(292,890,o),
(213,890,cs),
(128,890,o),
(56,830,o),
(15,717,c),
(27,684,o),
(44,650,o),
(59,621,c),
(-8,621,l),
(-8,558,l),
(66,558,l),
(66,0,l)
);
}
);
width = 202;
},
{
layerId = "F138D99C-4E28-42C5-9F3E-22494052B08F";
partSelection = {
Length = 1;
};
shapes = (
{
closed = 1;
nodes = (
(197,0,l),
(197,514,l),
(252,514,l),
(252,634,l),
(192,634,l),
(179,661,o),
(167,685,o),
(161,714,c),
(180,750,o),
(216,780,o),
(263,780,cs),
(307,780,o),
(357,763,o),
(422,680,c),
(502,744,l),
(403,881,o),
(317,902,o),
(238,902,cs),
(151,902,o),
(52,848,o),
(2,730,c),
(13,694,o),
(30,660,o),
(43,634,c),
(-8,634,l),
(-8,514,l),
(47,514,l),
(47,0,l)
);
}
);
width = 244;
},
{
associatedMasterId = "D7742CE6-1B18-47A0-AEB5-463D77EA217C";
layerId = "87423861-359E-4F5A-A49F-647C9BF9D80E";
name = long;
partSelection = {
Length = 2;
};
shapes = (
{
closed = 1;
nodes = (
(136,0,l),
(136,558,l),
(210,558,l),
(210,621,l),
(128,621,l),
(112,654,o),
(98,684,o),
(92,704,c),
(154,785,o),
(276,846,o),
(466,846,cs),
(678,846,o),
(861,806,o),
(1083,691,c),
(1104,741,l),
(878,857,o),
(686,910,o),
(462,910,cs),
(248,910,o),
(101,835,o),
(14,715,c),
(26,684,o),
(43,650,o),
(58,621,c),
(-8,621,l),
(-8,558,l),
(66,558,l),
(66,0,l)
);
}
);
width = 202;
},
{
associatedMasterId = "F138D99C-4E28-42C5-9F3E-22494052B08F";
layerId = "B3E21148-CCD4-41E2-9DE3-96BF3D4B5694";
name = long;
partSelection = {
Length = 2;
};
shapes = (
{
closed = 1;
nodes = (
(197,0,l),
(197,514,l),
(252,514,l),
(252,634,l),
(191,634,l),
(182,651,o),
(173,677,o),
(166,703,c),
(214,757,o),
(339,796,o),
(532,796,cs),
(742,796,o),
(958,767,o),
(1258,668,c),
(1287,769,l),
(986,875,o),
(754,917,o),
(511,917,cs),
(264,917,o),
(103,858,o),
(3,739,c),
(12,704,o),
(26,666,o),
(39,634,c),
(-8,634,l),
(-8,514,l),
(47,514,l),
(47,0,l)
);
}
);
width = 244;
}
);
partsSettings = (
{
bottomValue = 0;
name = Length;
topValue = 850;
}
);
}
{
category = Letter;
color = 5;
glyphname = "aaMatra-beng.part";
kernLeft = L_BNG_aaMatra_part;
kernRight = R_BNG_aaMatra_part;
layers = (
{
anchors = (
{
name = bottomMainForm;
pos = (95,291);
},
{
name = bottomVattu;
pos = (95,185);
},
{
name = top_headline130;
pos = (254,551);
}
);
background = {
anchors = (
{
name = Anchor8;
pos = (-188,622);
},
{
name = bottom;
pos = (92,0);
}
);
shapes = (
{
closed = 1;
nodes = (
(-79,622,l),
(-102,688,l),
(-155,688,l),
(-155,585,ls),
(-155,545,o),
(-153,501,o),
(-150,483,c),
(-132,472,l),
(-213,576,o),
(-285,629,o),
(-384,629,cs),
(-483,629,o),
(-556,562,o),
(-617,458,c),
(-536,392,l),
(-502,409,o),
(-474,417,o),
(-439,417,cs),
(-396,417,o),
(-373,394,o),
(-373,365,cs),
(-373,312,o),
(-435,275,o),
(-508,245,c),
(-457,172,l),
(-345,232,o),
(-293,290,o),
(-293,369,cs),
(-293,423,o),
(-331,487,o),
(-423,487,cs),
(-474,487,o),
(-515,474,o),
(-533,457,c),
(-519,465,l),
(-486,513,o),
(-447,556,o),
(-376,556,cs),
(-291,556,o),
(-227,495,o),
(-134,362,c),
(-155,425,l),
(-155,169,l),
(-78,169,l),
(-78,551,l),
(27,551,l),
(27,622,l)
);
},
{
closed = 1;
nodes = (
(-178,193,o),
(-234,156,o),
(-234,85,cs),
(-234,29,o),
(-196,-13,o),
(-134,-37,c),
(-99,32,l),
(-135,45,o),
(-154,58,o),
(-154,85,cs),
(-154,108,o),
(-135,123,o),
(-106,123,cs),
(-25,123,o),
(42,55,o),
(105,-30,c),
(131,37,l),
(62,128,o),
(-10,193,o),
(-114,193,cs)
);
},
{
closed = 1;
nodes = (
(-2,622,l),
(-2,551,l),
(92,551,l),
(92,172,ls),
(92,139,o),
(92,106,o),
(95,74,c),
(92,32,l),
(92,-43,l),
(169,-43,l),
(169,551,l),
(274,551,l),
(274,622,l)
);
}
);
};
layerId = UUID0;
shapes = (
{
closed = 1;
nodes = (
(172,190,l),
(172,571,l),
(95,571,l),
(95,190,l)
);
},
{
closed = 1;
nodes = (
(274,551,l),
(274,622,l),
(-10,622,l),
(-10,551,l)
);
}
);
width = 264;
},
{
anchors = (
{
name = bottomMainForm;
pos = (94,288);
},
{
name = bottomVattu;
pos = (94,195);
},
{
name = top_headline130;
pos = (210,586);
}
);
background = {
anchors = (
{
name = Anchor8;
pos = (-142,622);
},
{
name = bottom;
pos = (138,0);
}
);
shapes = (
{
closed = 1;
nodes = (
(-83,622,l),
(-87,675,l),
(-104,675,l),
(-104,543,ls),
(-104,508,o),
(-103,471,o),
(-101,448,c),
(-79,439,l),
(-158,560,o),
(-217,629,o),
(-325,629,cs),
(-417,629,o),
(-485,559,o),
(-549,453,c),
(-522,431,l),
(-484,455,o),
(-445,471,o),
(-395,471,cs),
(-336,471,o),
(-304,441,o),
(-304,391,cs),
(-304,323,o),
(-351,280,o),
(-455,241,c),
(-447,221,l),
(-333,267,o),
(-281,313,o),
(-281,392,cs),
(-281,434,o),
(-308,494,o),
(-394,494,cs),
(-455,494,o),
(-495,472,o),
(-534,447,c),
(-529,447,l),
(-470,539,o),
(-412,607,o),
(-326,607,cs),
(-248,607,o),
(-197,579,o),
(-83,413,c),
(-104,448,l),
(-104,162,l),
(-83,161,l),
(-83,600,l),
(33,600,l),
(33,622,l)
);
},
{
closed = 1;
nodes = (
(-138,173,o),
(-182,142,o),
(-182,85,cs),
(-182,39,o),
(-153,6,o),
(-93,-18,c),
(-85,2,l),
(-135,23,o),
(-160,44,o),
(-160,85,cs),
(-160,127,o),
(-134,150,o),
(-84,150,cs),
(-9,150,o),
(56,103,o),
(132,-4,c),
(136,25,l),
(76,111,o),
(5,173,o),
(-83,173,cs)
);
},
{
closed = 1;
nodes = (
(7,622,l),
(7,600,l),
(118,600,l),
(118,105,ls),
(118,85,o),
(118,59,o),
(120,28,c),
(118,17,l),
(118,-43,l),
(139,-43,l),
(139,600,l),
(255,600,l),
(255,622,l)
);
}
);
};
layerId = "28FB090A-653E-4199-B7BE-FAE23D31B682";
shapes = (
{
closed = 1;
nodes = (
(115,206,l),
(115,596,l),
(94,596,l),
(94,206,l)
);
},
{
closed = 1;
nodes = (
(230,586,l),
(230,607,l),
(-10,607,l),
(-10,586,l)
);
}
);
width = 220;
},
{
anchors = (
{
name = bottomMainForm;
pos = (78,300);
},
{
name = bottomVattu;
pos = (78,160);
},
{
name = top_headline130;
pos = (295,505);
}
);
background = {
shapes = (
{
closed = 1;
nodes = (
(236,-70,l),
(236,435,l),
(314,435,l),
(314,565,l),
(-338,565,l),
(-338,435,l),
(72,435,l),
(72,250,ls),
(72,223,o),
(73,183,o),
(76,153,c),
(91,141,l),
(41,226,o),
(-39,254,o),
(-138,254,cs),
(-209,254,o),
(-267,207,o),
(-267,140,cs),
(-267,70,o),
(-214,26,o),
(-147,26,cs),
(-73,26,o),
(-17,75,o),
(-17,197,cs),
(-17,335,o),
(-79,465,o),
(-245,465,c),
(-285,475,l),
(-311,364,l),
(-211,356,o),
(-163,300,o),
(-163,229,cs),
(-163,205,o),
(-167,185,o),
(-173,171,c),
(-91,101,l),
(-2,98,o),
(61,59,o),
(91,-24,c),
(72,48,l),
(72,-70,l)
);
}
);
};
layerId = "F455777D-7EDD-47E2-866A-D8A5173CE243";
shapes = (
{
closed = 1;
nodes = (
(242,156,l),
(242,525,l),
(78,525,l),
(78,156,l)
);
},
{
closed = 1;
nodes = (
(315,505,l),
(315,635,l),
(-10,635,l),
(-10,505,l)
);
}
);
width = 305;
},
{
anchors = (
{
name = bottomMainForm;
pos = (63,293);
},
{
name = bottomVattu;
pos = (63,192);
},
{
name = top_headline130;
pos = (147,589);
}
);
background = {
shapes = (
{
closed = 1;
nodes = (
(83,207,l),
(83,597,l),
(64,597,l),
(64,207,l)
);
},
{
closed = 1;
nodes = (
(161,587,l),
(161,607,l),
(-8,607,l),
(-8,587,l)
);
}
);
};
guides = (
{
angle = 270;
pos = (63,402);
}
);
layerId = "ADAF9463-560A-4353-9B5A-2FAD12EBF6B5";
shapes = (
{
closed = 1;
nodes = (
(83,206,l),
(83,597,l),
(63,597,l),
(63,206,l)
);
},
{
closed = 1;
nodes = (
(163,589,l),
(163,607,l),
(-8,607,l),
(-8,589,l)
);
}
);
width = 155;
},
{
anchors = (
{
name = bottomMainForm;
pos = (66,291);
},
{
name = bottomVattu;
pos = (66,187);
},
{
name = top_headline130;
pos = (194,558);
}
);
layerId = "D7742CE6-1B18-47A0-AEB5-463D77EA217C";
shapes = (
{
closed = 1;
nodes = (
(136,197,l),
(136,576,l),
(66,576,l),
(66,197,l)
);
},
{
closed = 1;
nodes = (
(210,558,l),
(210,621,l),
(-8,621,l),
(-8,558,l)
);
}
);
width = 202;
},
{
anchors = (
{
name = bottomMainForm;
pos = (43,298);
},
{
name = bottomVattu;
pos = (43,174);
},
{
name = top_headline130;
pos = (231,514);
}
);
layerId = "F138D99C-4E28-42C5-9F3E-22494052B08F";
shapes = (
{
closed = 1;
nodes = (
(192,162,l),
(192,534,l),
(43,534,l),
(43,162,l)
);
},
{
closed = 1;
nodes = (
(247,514,l),
(247,634,l),
(-8,634,l),
(-8,514,l)
);
}
);
width = 239;
}
);
script = bengali;
subCategory = Spacing;
}
{
category = Letter;
color = 5;
glyphname = "aiMatra-beng.long.init";
kernRight = BNG_R_eMatra;
layers = (
{
background = {
shapes = (
{
closed = 1;
nodes = (
(140,551,ls),
(175,551,o),
(202,552,o),
(226,555,c),
(376,551,l),
(376,622,l),
(-10,622,l),
(-10,551,l)
);
},
{
closed = 1;
nodes = (
(316,-5,o),
(353,27,o),
(353,80,cs),
(353,119,o),
(328,154,o),
(278,154,cs),
(234,154,o),
(206,122,o),
(206,83,cs),
(206,42,o),
(233,14,o),
(273,14,c),
(325,92,l),
(295,75,o),
(277,69,o),
(244,69,cs),
(194,69,o),
(138,122,o),
(138,249,cs),
(138,428,o),
(250,551,o),
(364,551,cs),
(366,551,l),
(366,622,l),
(347,622,l),
(174,622,o),
(59,446,o),
(59,259,cs),
(59,100,o),
(145,-5,o),
(255,-5,cs)
);
}
);
};
layerId = UUID0;
shapes = (
{
closed = 1;
nodes = (
(353,-5,o),
(393,33,o),
(393,86,cs),
(393,125,o),
(368,160,o),
(318,160,cs),
(274,160,o),
(246,128,o),
(246,89,cs),
(246,48,o),
(273,20,o),
(313,20,c),
(365,92,l),
(335,75,o),
(317,69,o),
(284,69,cs),
(214,69,o),
(138,128,o),
(138,287,cs),
(138,442,o),
(222,551,o),
(324,551,cs),
(331,551,l),
(331,622,l),
(313,622,l),
(150,622,o),
(59,453,o),
(59,299,cs),
(59,96,o),
(165,-5,o),
(285,-5,cs)
);
},
{
closed = 1;
nodes = (
(331,622,l),
(327,728,o),
(267,776,o),
(167,776,cs),
(143,776,ls),
(83,776,o),
(38,802,o),
(38,869,cs),
(38,879,o),
(39,891,o),
(42,907,c),
(-32,912,l),
(-35,893,o),
(-37,876,o),
(-37,859,cs),
(-37,749,o),
(48,704,o),
(159,704,cs),
(187,704,ls),
(238,704,o),
(259,682,o),
(259,613,c)
);
}
);
width = 321;
},
{
associatedMasterId = UUID0;
background = {
shapes = (
{
closed = 1;
nodes = (
(-10,622,l),
(-10,551,l),
(130,551,ls),
(165,551,o),
(192,552,o),
(216,555,c),
(280,588,l),
(152,546,o),
(49,424,o),
(49,260,cs),
(49,100,o),
(137,-5,o),
(264,-5,cs),
(305,-5,o),
(348,4,o),
(383,31,c),
(348,92,l),
(318,75,o),
(300,69,o),
(267,69,cs),
(203,69,o),
(128,117,o),
(128,262,cs),
(128,422,o),
(254,532,o),
(336,551,c),
(356,551,l),
(356,622,l)
);
}
);
};
layerId = "8506A676-8879-4CC1-9A5A-B136FCE1E93C";
name = "15 May 24 at 17:35";
shapes = (
{
closed = 1;
nodes = (
(-10,622,l),
(-10,551,l),
(130,551,ls),
(165,551,o),
(192,552,o),
(216,555,c),
(280,588,l),
(152,546,o),
(49,424,o),
(49,260,cs),
(49,100,o),
(137,-5,o),
(264,-5,cs),
(305,-5,o),
(348,4,o),
(383,31,c),
(348,92,l),
(318,75,o),
(300,69,o),
(267,69,cs),
(203,69,o),
(128,117,o),
(128,262,cs),
(128,422,o),
(254,532,o),
(336,551,c),
(356,551,l),
(356,622,l)
);
}
);
width = 346;
},
{
background = {
shapes = (
{
closed = 1;
nodes = (
(286,-5,o),
(314,12,o),
(314,44,cs),
(314,70,o),
(294,86,o),
(269,86,cs),
(243,86,o),
(225,69,o),
(225,44,cs),
(225,17,o),
(246,3,o),
(264,3,c),
(291,22,l),
(282,20,o),
(267,17,o),
(244,17,cs),
(170,17,o),
(102,89,o),
(102,247,cs),
(102,442,o),
(240,585,o),
(333,585,c),
(335,585,l),
(335,607,l),
(10,607,l),
(10,585,l),
(199,585,ls),
(234,585,o),
(272,586,o),
(306,589,c),
(334,603,l),
(215,603,o),
(80,449,o),
(80,249,cs),
(80,76,o),
(157,-5,o),
(246,-5,cs)
);
}
);
};
layerId = "28FB090A-653E-4199-B7BE-FAE23D31B682";
shapes = (
{
closed = 1;
nodes = (
(318,-5,o),
(344,17,o),
(344,49,cs),
(344,75,o),
(326,92,o),
(299,92,cs),
(272,92,o),
(255,74,o),
(255,49,cs),
(255,23,o),
(273,8,o),
(294,8,c),
(321,22,l),
(312,20,o),
(297,17,o),
(272,17,cs),
(190,17,o),
(102,115,o),
(102,277,cs),
(102,484,o),
(208,586,o),
(290,586,cs),
(310,586,l),
(310,607,l),
(287,607,l),
(195,607,o),
(80,499,o),
(80,279,cs),
(80,102,o),
(177,-5,o),
(274,-5,cs)
);
},
{
closed = 1;
nodes = (
(310,607,l),
(310,696,o),
(263,740,o),
(178,740,cs),
(143,740,ls),
(66,740,o),
(14,750,o),
(14,847,cs),
(14,862,o),
(15,878,o),
(18,895,c),
(-5,897,l),
(-8,880,o),
(-9,863,o),
(-9,847,cs),
(-9,738,o),
(57,718,o),
(144,718,cs),
(180,718,ls),
(265,718,o),
(289,673,o),
(289,602,c)
);
}
);
width = 300;
},
{
background = {
shapes = (
{
closed = 1;
nodes = (
(42,505,ls),
(87,505,o),
(111,506,o),
(132,509,c),
(427,505,l),
(427,635,l),
(-10,635,l),
(-10,505,l)
);
},
{
closed = 1;
nodes = (
(360,-9,o),
(420,38,o),
(420,117,cs),
(420,174,o),
(385,221,o),
(317,221,cs),
(262,221,o),
(219,182,o),
(219,134,cs),
(219,74,o),
(271,40,o),
(324,40,c),
(375,134,l),
(353,124,o),
(334,120,o),
(293,120,cs),
(237,120,o),
(203,180,o),
(203,274,cs),
(203,411,o),
(290,505,o),
(421,505,cs),
(422,505,l),
(422,635,l),
(406,635,l),
(120,635,o),
(40,452,o),
(40,279,cs),
(40,100,o),
(145,-9,o),
(274,-9,cs)
);
}
);
};
layerId = "F455777D-7EDD-47E2-866A-D8A5173CE243";
shapes = (
{
closed = 1;
nodes = (
(400,-9,o),
(460,38,o),
(460,119,cs),
(460,175,o),
(425,221,o),
(355,221,cs),
(298,221,o),
(259,182,o),
(259,134,cs),
(259,74,o),
(311,40,o),
(364,40,c),
(415,134,l),
(393,124,o),
(374,120,o),
(323,120,cs),
(247,120,o),
(203,185,o),
(203,294,cs),
(203,423,o),
(275,505,o),
(371,505,cs),
(377,505,l),
(377,635,l),
(367,635,l),
(120,635,o),
(40,462,o),
(40,309,cs),
(40,110,o),
(153,-9,o),
(307,-9,cs)
);
},
{
closed = 1;
nodes = (
(377,635,l),
(377,765,o),
(313,823,o),
(200,823,cs),
(182,823,ls),
(139,823,o),
(119,838,o),
(119,879,cs),
(119,885,o),
(120,895,o),
(122,905,c),
(-32,915,l),
(-36,897,o),
(-38,872,o),
(-38,858,cs),
(-38,742,o),
(47,685,o),
(152,685,cs),
(159,685,ls),
(209,685,o),
(221,667,o),
(221,602,c)
);
}
);
width = 367;
},
{
layerId = "ADAF9463-560A-4353-9B5A-2FAD12EBF6B5";
shapes = (
{
closed = 1;
nodes = (
(240,-5,o),
(260,10,o),
(260,43,cs),
(260,70,o),
(244,84,o),
(225,84,cs),
(206,84,o),
(192,68,o),
(192,43,cs),
(192,15,o),
(208,3,o),
(222,3,c),
(242,19,l),
(233,16,o),
(223,15,o),
(200,15,cs),
(150,15,o),
(84,97,o),
(84,289,cs),
(84,486,o),
(151,589,o),
(218,589,cs),
(229,589,l),
(229,607,l),
(215,607,l),
(138,607,o),
(64,499,o),
(64,292,cs),
(64,83,o),
(136,-5,o),
(209,-5,cs)
);
},
{
closed = 1;
nodes = (
(229,602,l),
(229,698,o),
(194,738,o),
(129,738,cs),
(111,738,ls),
(51,738,o),
(18,761,o),
(19,844,cs),
(19,860,o),
(20,877,o),
(22,895,c),
(2,897,l),
(0,880,o),
(-1,860,o),
(-1,845,cs),
(-1,746,o),
(42,720,o),
(113,720,cs),
(128,720,ls),
(189,720,o),
(209,678,o),
(209,602,c)
);
}
);
width = 221;
},
{
layerId = "D7742CE6-1B18-47A0-AEB5-463D77EA217C";
shapes = (
{
closed = 1;
nodes = (
(280,-5,o),
(309,26,o),
(309,74,cs),
(309,116,o),
(288,143,o),
(250,143,cs),
(215,143,o),
(192,115,o),
(192,77,cs),
(192,38,o),
(216,12,o),
(247,12,c),
(284,71,l),
(263,63,o),
(250,60,o),
(226,60,cs),
(177,60,o),
(118,112,o),
(118,279,cs),
(118,451,o),
(187,558,o),
(254,558,cs),
(261,558,l),
(261,621,l),
(245,621,l),
(115,621,o),
(47,472,o),
(47,290,cs),
(47,88,o),
(132,-5,o),
(227,-5,cs)
);
},
{
closed = 1;
nodes = (
(261,615,l),
(259,719,o),
(218,770,o),
(125,770,cs),
(120,770,ls),
(66,770,o),
(44,788,o),
(44,862,cs),
(44,880,o),
(45,893,o),
(46,907,c),
(-21,910,l),
(-23,895,o),
(-25,873,o),
(-25,857,cs),
(-25,745,o),
(28,706,o),
(122,706,cs),
(127,706,ls),
(178,706,o),
(194,681,o),
(194,606,c)
);
}
);
width = 252;
},
{
layerId = "F138D99C-4E28-42C5-9F3E-22494052B08F";
shapes = (
{
closed = 1;
nodes = (
(346,-9,o),
(393,40,o),
(393,114,cs),
(393,167,o),
(364,211,o),
(306,211,cs),
(253,211,o),
(222,171,o),
(222,125,cs),
(222,59,o),
(270,35,o),
(314,35,c),
(353,125,l),
(339,115,o),
(325,111,o),
(290,111,cs),
(212,111,o),
(180,176,o),
(180,292,cs),
(180,418,o),
(230,514,o),
(317,514,cs),
(319,514,l),
(319,634,l),
(303,634,l),
(93,634,o),
(30,484,o),
(30,306,cs),
(30,109,o),
(126,-9,o),
(264,-9,cs)
);
},
{
closed = 1;
nodes = (
(319,628,l),
(319,761,o),
(259,815,o),
(173,815,cs),
(171,815,ls),
(141,815,o),
(125,828,o),
(125,876,cs),
(125,887,o),
(126,897,o),
(127,907,c),
(-16,914,l),
(-19,896,o),
(-20,865,o),
(-20,853,cs),
(-20,737,o),
(44,688,o),
(120,688,cs),
(121,688,ls),
(166,688,o),
(175,665,o),
(175,606,c)
);
}
);
width = 311;
}
);
script = bengali;
subCategory = Spacing;
}
{
category = Letter;
color = 5;
glyphname = "b-beng.half";
layers = (
{
anchors = (
{
name = bottomJhaSide;
pos = (475,316);
},
{
name = bottomVattu;
pos = (414,42);
},
{
name = top_candrabindu;
pos = (448,622);
},
{
name = top_headlineBa;
pos = (481,551);
},
{
name = top_headlineKaArm;
pos = (436,551);
},
{
name = top_vedic;
pos = (293,622);
}
);
background = {
shapes = (
{
closed = 1;
nodes = (
(491,25,l),
(491,469,l),
(437,435,l),
(597,435,o),
(683,369,o),
(683,288,cs),
(683,259,o),
(665,232,o),
(627,232,c),
(627,173,l),
(675,173,o),
(697,202,o),
(697,233,cs),
(697,274,o),
(670,295,o),
(634,295,cs),
(595,295,o),
(568,268,o),
(568,229,cs),
(568,184,o),
(604,158,o),
(651,158,cs),
(727,158,o),
(761,222,o),
(761,290,cs),
(761,432,o),
(608,510,o),
(437,510,cs),
(414,510,l),
(414,190,ls),
(414,157,o),
(415,123,o),
(418,97,c),
(430,102,l),
(376,183,o),
(265,263,o),
(104,287,c),
(110,276,l),
(168,311,o),
(253,349,o),
(321,372,c),
(316,431,l),
(250,485,o),
(164,534,o),
(84,560,c),
(83,551,l),
(817,551,l),
(817,622,l),
(-36,622,l),
(-36,551,l),
(51,551,l),
(45,570,l),
(20,505,l),
(118,473,o),
(177,448,o),
(248,402,c),
(254,423,l),
(179,392,o),
(100,354,o),
(35,314,c),
(71,223,l),
(249,193,o),
(359,115,o),
(414,25,c)
);
}
);
};
guides = (
{
angle = 90;
pos = (414,243);
},
{
pos = (453,25);
}
);
layerId = UUID0;
shapes = (
{
closed = 1;
nodes = (
(491,25,l),
(491,622,l),
(-10,622,l),
(-10,551,l),
(414,551,l),
(414,482,l),
(437,529,l),
(291,485,o),
(165,422,o),
(37,350,c),
(76,254,l),
(220,229,o),
(355,122,o),
(414,25,c)
);
},
{
closed = 1;
nodes = (
(428,108,l),
(369,212,o),
(211,300,o),
(111,319,c),
(111,303,l),
(198,357,o),
(327,416,o),
(435,451,c),
(414,474,l),
(414,209,ls),
(414,166,o),
(416,139,o),
(419,108,c)
);
}
);
width = 586;
},
{
anchors = (
{
name = bottomJhaSide;
pos = (439,310);
},
{
name = bottomVattu;
pos = (425,170);
},
{
name = top_candrabindu;
pos = (435,607);
},
{
name = top_headlineBa;
pos = (436,586);
},
{
name = top_headlineKaArm;
pos = (432,586);
},
{
name = top_vedic;
pos = (276,607);
}
);
background = {
shapes = (
{
closed = 1;
nodes = (
(446,50,l),
(446,498,l),
(431,489,l),
(580,489,o),
(682,414,o),
(682,302,cs),
(682,258,o),
(668,218,o),
(626,218,c),
(620,209,l),
(649,209,o),
(658,225,o),
(658,238,cs),
(658,253,o),
(645,272,o),
(619,272,cs),
(594,272,o),
(581,254,o),
(581,235,cs),
(581,214,o),
(595,196,o),
(629,196,cs),
(669,196,o),
(704,233,o),
(704,305,cs),
(704,428,o),
(586,510,o),
(426,510,cs),
(425,510,l),
(425,154,ls),
(425,118,o),
(425,91,o),
(429,65,c),
(435,66,l),
(372,184,o),
(246,273,o),
(70,297,c),
(67,289,l),
(125,333,o),
(207,383,o),
(301,421,c),
(300,441,l),
(226,500,o),
(154,544,o),
(45,587,c),
(46,586,l),
(776,586,l),
(776,607,l),
(-28,607,l),
(-28,586,l),
(45,586,l),
(44,587,l),
(36,569,l),
(147,527,o),
(220,482,o),
(289,429,c),
(290,439,l),
(203,401,o),
(120,353,o),
(53,305,c),
(66,278,l),
(241,253,o),
(356,171,o),
(425,50,c)
);
}
);
};
guides = (
{
pos = (436,75);
}
);
layerId = "28FB090A-653E-4199-B7BE-FAE23D31B682";
shapes = (
{
closed = 1;
nodes = (
(446,75,l),
(446,607,l),
(-10,607,l),
(-10,586,l),
(425,586,l),
(425,524,l),
(441,540,l),
(295,490,o),
(170,430,o),
(57,353,c),
(68,324,l),
(225,289,o),
(358,199,o),
(425,75,c)
);
},
{
closed = 1;
nodes = (
(435,92,l),
(372,221,o),
(229,306,o),
(73,345,c),
(75,339,l),
(181,412,o),
(314,474,o),
(441,517,c),
(425,520,l),
(425,180,l),
(425,150,o),
(425,121,o),
(425,91,c)
);
}
);
width = 552;
},
{
anchors = (
{
name = bottomJhaSide;
pos = (452,349);
},
{
name = bottomVattu;
pos = (368,78);
},
{
name = top_candrabindu;
pos = (436,635);
},
{
name = top_headlineBa;
pos = (522,505);
},
{
name = top_headlineKaArm;
pos = (432,505);
},
{
name = top_vedic;
pos = (300,635);
}
);
background = {
shapes = (
{
closed = 1;
nodes = (
(532,20,l),
(532,425,l),
(432,344,l),
(570,344,o),
(649,321,o),
(649,275,cs),
(649,256,o),
(634,244,o),
(609,244,c),
(629,114,l),
(707,114,o),
(733,143,o),
(733,196,cs),
(733,247,o),
(689,273,o),
(645,273,cs),
(603,273,o),
(561,241,o),
(561,188,cs),
(561,128,o),
(607,92,o),
(668,92,cs),
(758,92,o),
(799,165,o),
(799,248,cs),
(799,424,o),
(621,482,o),
(433,482,cs),
(373,482,l),
(373,231,ls),
(373,191,o),
(376,159,o),
(379,136,c),
(386,141,l),
(352,216,o),
(267,263,o),
(179,280,c),
(189,252,l),
(241,285,o),
(289,305,o),
(333,317,c),
(322,418,l),
(285,453,o),
(223,494,o),
(182,510,c),
(151,505,l),
(828,505,l),
(828,635,l),
(-15,635,l),
(-15,505,l),
(83,505,l),
(31,537,l),
(8,438,l),
(78,421,o),
(154,395,o),
(215,360,c),
(231,420,l),
(149,388,o),
(82,352,o),
(25,316,c),
(84,175,l),
(221,153,o),
(299,114,o),
(374,20,c)
);
}
);
};
guides = (
{
pos = (373,20);
}
);
layerId = "F455777D-7EDD-47E2-866A-D8A5173CE243";
shapes = (
{
closed = 1;
nodes = (
(532,20,l),
(532,635,l),
(-10,635,l),
(-10,505,l),
(375,505,l),
(375,460,l),
(391,497,l),
(278,469,o),
(141,414,o),
(17,341,c),
(77,199,l),
(221,175,o),
(303,117,o),
(374,20,c)
);
},
{
closed = 1;
nodes = (
(393,143,l),
(347,230,o),
(246,294,o),
(159,297,c),
(159,246,l),
(239,296,o),
(320,331,o),
(390,348,c),
(373,376,l),
(373,238,ls),
(373,206,o),
(376,169,o),
(379,143,c)
);
}
);
width = 600;
},
{
anchors = (
{
name = bottomJhaSide;
pos = (304,310);
},
{
name = bottomVattu;
pos = (291,172);
},
{
name = top_candrabindu;
pos = (301,607);
},
{
name = top_headlineBa;
pos = (295,589);
},
{
name = top_headlineKaArm;
pos = (301,589);
},
{
name = top_vedic;
pos = (191,607);
}
);
background = {
shapes = (
{
closed = 1;
nodes = (
(311,0,l),
(311,607,l),
(-10,607,l),
(-10,589,l),
(291,589,l),
(291,513,l),
(302,523,l),
(201,470,o),
(118,403,o),
(31,320,c),
(41,294,l),
(152,255,o),
(243,159,o),
(292,0,c)
);
},
{
closed = 1;
nodes = (
(300,14,l),
(254,188,o),
(149,273,o),
(48,313,c),
(48,307,l),
(127,383,o),
(214,454,o),
(301,498,c),
(291,511,l),
(291,151,ls),
(291,99,o),
(293,49,o),
(296,14,c)
);
},
{
closed = 1;
nodes = (
(438,72,l),
(438,589,l),
(518,589,l),
(518,607,l),
(438,607,l),
(432,660,l),
(418,660,l),
(418,223,ls),
(418,171,o),
(420,121,o),
(423,86,c),
(427,86,l),
(402,190,o),
(358,265,o),
(306,313,c),
(299,293,l),
(349,249,o),
(392,167,o),
(419,72,c)
);
}
);
};
layerId = "ADAF9463-560A-4353-9B5A-2FAD12EBF6B5";
shapes = (
{
closed = 1;
nodes = (
(311,76,l),
(311,607,l),
(-8,607,l),
(-8,589,l),
(291,589,l),
(291,525,l),
(304,540,l),
(203,490,o),
(116,431,o),
(37,353,c),
(47,325,l),
(154,290,o),
(246,201,o),
(292,76,c)
);
},
{
closed = 1;
nodes = (
(301,92,l),
(258,221,o),
(158,304,o),
(52,344,c),
(52,340,l),
(124,413,o),
(217,475,o),
(304,518,c),
(291,520,l),
(291,180,l),
(291,150,o),
(291,121,o),
(291,91,c)
);
}
);
width = 383;
},
{
anchors = (
{
name = bottomJhaSide;
pos = (352,315);
},
{
name = bottomVattu;
pos = (305,73);
},
{
name = top_candrabindu;
pos = (335,621);
},
{
name = top_headlineBa;
pos = (366,558);
},
{
name = top_headlineKaArm;
pos = (340,558);
},
{
name = top_vedic;
pos = (220,621);
}
);
layerId = "D7742CE6-1B18-47A0-AEB5-463D77EA217C";
shapes = (
{
closed = 1;
nodes = (
(375,29,l),
(375,621,l),
(-8,621,l),
(-8,558,l),
(306,558,l),
(306,509,l),
(321,535,l),
(222,488,o),
(123,424,o),
(29,348,c),
(61,262,l),
(174,235,o),
(263,148,o),
(306,29,c)
);
},
{
closed = 1;
nodes = (
(320,107,l),
(282,230,o),
(174,298,o),
(93,320,c),
(89,303,l),
(161,365,o),
(251,422,o),
(320,456,c),
(305,474,l),
(305,209,l),
(305,165,o),
(307,134,o),
(308,107,c)
);
}
);
width = 441;
},
{
anchors = (
{
name = bottomJhaSide;
pos = (386,343);
},
{
name = bottomVattu;
pos = (286,73);
},
{
name = top_candrabindu;
pos = (345,634);
},
{
name = top_headlineBa;
pos = (427,514);
},
{
name = top_headlineKaArm;
pos = (346,514);
},
{
name = top_vedic;
pos = (242,634);
}
);
layerId = "F138D99C-4E28-42C5-9F3E-22494052B08F";
shapes = (
{
closed = 1;
nodes = (
(435,20,l),
(435,634,l),
(-8,634,l),
(-8,514,l),
(290,514,l),
(290,485,l),
(301,502,l),
(199,463,o),
(105,405,o),
(20,338,c),
(71,196,l),
(179,172,o),
(238,119,o),
(290,20,c)
);
},
{
closed = 1;
nodes = (
(311,136,l),
(280,214,o),
(207,285,o),
(148,288,c),
(148,262,l),
(198,307,o),
(257,343,o),
(310,363,c),
(289,394,l),
(289,233,ls),
(289,196,o),
(292,159,o),
(294,136,c)
);
}
);
width = 483;
}
);
script = bengali;
subCategory = Spacing;
}
{
category = Letter;
color = 5;
glyphname = "d-beng.half3";
kernLeft = "L_d-beng_half3";
layers = (
{
anchors = (
{
name = Anchor4;
pos = (285,622);
},
{
name = bottom_vedic;
pos = (439,0);
},
{
name = top_vedic;
pos = (319,622);
}
);
associatedMasterId = UUID0;
background = {
shapes = (
{
closed = 1;
nodes = (
(-10,622,l),
(-10,510.13,l),
(71.63,510.13,l),
(71.63,186.33,l),
(185.53,117.05,l),
(272.57,202.26,o),
(379.89,292.73,o),
(501.6,347.66,c),
(463.37,378.28,l),
(427.56,317.27,o),
(405.34,265.18,o),
(405.34,185.4,cs),
(405.34,116.38,o),
(416.29,54.75,o),
(439.07,-11.27,c),
(572.02,16.71,l),
(552.51,77.07,o),
(543.12,132.07,o),
(543.12,183.65,cs),
(543.12,261.5,o),
(555.68,322.72,o),
(586.97,382.35,c),
(487.81,465.87,l),
(355.47,410.99,o),
(241.47,329.67,o),
(170.01,253.48,c),
(207.8,236.53,l),
(207.8,510.13,l),
(645.94,510.13,l),
(645.94,622,l)
);
}
);
};
layerId = "e1c1e291-8a6c-4e1d-a7a3-2f6a2315d622";
name = "Bold Semi (intermediate)";
shapes = (
{
closed = 1;
nodes = (
(-10,622,l),
(-10,512,l),
(75,512,l),
(75,188,l),
(184,117,l),
(271,199,o),
(383,288,o),
(501,339,c),
(461,395,l),
(434,343,o),
(410,275,o),
(410,201,cs),
(410,122,o),
(423,60,o),
(447,-11,c),
(576,16,l),
(553,84,o),
(543,151,o),
(543,203,cs),
(543,272,o),
(556,332,o),
(585,383,c),
(494,459,l),
(360,404,o),
(250,332,o),
(178,255,c),
(207,235,l),
(207,512,l),
(649,512,l),
(649,622,l)
);
}
);
width = 639;
},
{
anchors = (
{
name = bottomMainForm;
pos = (77,294);
},
{
name = bottomVattu;
pos = (382,160);
},
{
name = top_candrabindu;
pos = (235,622);
},
{
name = top_headline130;
pos = (521,551);
},
{
name = top_vedic;
pos = (265,622);
}
);
background = {
anchors = (
{
name = Anchor8;
pos = (286,622);
},
{
name = bottom;
pos = (403,-1);
},
{
name = nukta;
pos = (222,50);
},
{
name = top_candrabindu;
pos = (115,622);
}
);
};
layerId = UUID0;
shapes = (
{
closed = 1;
nodes = (
(459,188,l),
(459,327,ls),
(459,428,o),
(404,471,o),
(337,471,cs),
(248,471,o),
(159,385,o),
(119,307,c),
(154,292,l),
(154,551,l),
(541,551,l),
(541,622,l),
(-10,622,l),
(-10,551,l),
(77,551,l),
(77,244,l),
(139,221,l),
(202,317,o),
(271,390,o),
(336,390,cs),
(371,390,o),
(382,371,o),
(382,334,cs),
(382,188,l)
);
}
);
width = 531;
},
{
anchors = (
{
name = Anchor4;
pos = (307,622);
},
{
name = bottom_vedic;
pos = (443,0);
},
{
name = top_vedic;
pos = (301,622);
}
);
associatedMasterId = UUID0;
background = {
anchors = (
{
name = Anchor4;
pos = (307,622);
},
{
name = Anchor6;
pos = (443,0);
},
{
name = Anchor8;
pos = (301,622);
}
);
shapes = (
{
closed = 1;
nodes = (
(-10,622,l),
(-10,551,l),
(82,551,l),
(82,215,l),
(141,175,l),
(250,284,o),
(350,358,o),
(465,405,c),
(453,410,l),
(430,374,o),
(409,303,o),
(409,222,cs),
(409,142,o),
(423,70,o),
(447,-7,c),
(522,10,l),
(497,85,o),
(487,140,o),
(487,205,cs),
(487,292,o),
(502,352,o),
(540,422,c),
(475,486,l),
(339,436,o),
(225,362,o),
(145,273,c),
(159,253,l),
(159,551,l),
(613,551,l),
(613,622,l)
);
}
);
};
layerId = "BB9C8358-4F7A-4900-8EA5-FEB23DCB0134";
name = "10 May 24 at 18:05";
shapes = (
{
closed = 1;
nodes = (
(-10,622,l),
(-10,551,l),
(82,551,l),
(82,215,l),
(141,175,l),
(250,284,o),
(350,358,o),
(465,405,c),
(453,410,l),
(430,374,o),
(409,303,o),
(409,222,cs),
(409,142,o),
(423,70,o),
(447,-7,c),
(522,10,l),
(497,85,o),
(487,140,o),
(487,205,cs),
(487,292,o),
(502,352,o),
(540,422,c),
(475,486,l),
(339,436,o),
(225,362,o),
(145,273,c),
(159,253,l),
(159,551,l),
(613,551,l),
(613,622,l)
);
}
);
width = 603;
},
{
anchors = (
{
name = bottomMainForm;
pos = (78,316);
},
{
name = bottomVattu;
pos = (364,210);
},
{
name = top_candrabindu;
pos = (212,607);
},
{
name = top_headline130;
pos = (455,586);
},
{
name = top_vedic;
pos = (232,607);
}
);
background = {
anchors = (
{
name = Anchor8;
pos = (280,607);
},
{
name = bottom;
pos = (424,-5);
},
{
name = nukta;
pos = (205,26);
},
{
name = top_candrabindu;
pos = (92,607);
}
);
shapes = (
{
closed = 1;
nodes = (
(413,-110,l),
(413,372,ls),
(413,468,o),
(372,507,o),
(298,507,cs),
(179,507,o),
(75,387,o),
(75,278,cs),
(75,203,o),
(107,171,o),
(150,171,cs),
(185,171,o),
(204,192,o),
(204,222,cs),
(204,252,o),
(184,271,o),
(155,271,cs),
(132,271,o),
(109,253,o),
(109,224,cs),
(109,201,o),
(124,179,o),
(155,179,c),
(154,190,l),
(112,190,o),
(96,227,o),
(96,275,cs),
(96,368,o),
(184,486,o),
(298,486,cs),
(371,486,o),
(392,445,o),
(392,371,cs),
(392,-59,l),
(372,-5,o),
(334,27,o),
(272,27,cs),
(209,27,o),
(140,5,o),
(66,5,cs),
(-13,5,o),
(-105,29,o),
(-105,160,cs),
(-105,193,o),
(-99,225,o),
(-93,251,c),
(-113,254,l),
(-120,227,o),
(-126,194,o),
(-126,161,cs),
(-126,16,o),
(-21,-16,o),
(67,-16,cs),
(158,-16,o),
(202,6,o),
(272,6,cs),
(347,6,o),
(370,-43,o),
(392,-110,c)
);
}
);
};
guides = (
{
pos = (139,298);
}
);
layerId = "28FB090A-653E-4199-B7BE-FAE23D31B682";
shapes = (
{
closed = 1;
nodes = (
(385,166,l),
(385,392,ls),
(385,442,o),
(368,482,o),
(313,482,cs),
(230,482,o),
(137,382,o),
(86,291,c),
(100,288,l),
(100,586,l),
(475,586,l),
(475,607,l),
(-10,607,l),
(-10,586,l),
(79,586,l),
(79,286,l),
(101,279,l),
(156,369,o),
(241,465,o),
(315,465,cs),
(351,465,o),
(364,438,o),
(364,397,cs),
(364,166,l)
);
}
);
width = 465;
},
{
anchors = (
{
name = bottomMainForm;
pos = (47,300);
},
{
name = bottomVattu;
pos = (386,126);
},
{
name = top_candrabindu;
pos = (248,635);
},
{
name = top_headline130;
pos = (584,505);
},
{
name = top_vedic;
pos = (297,635);
}
);
background = {
anchors = (
{
name = Anchor8;
pos = (296,635);
},
{
name = bottom;
pos = (376,-9);
},
{
name = nukta;
pos = (217,4);
},
{
name = top_candrabindu;
pos = (128,635);
}
);
shapes = (
{
closed = 1;
nodes = (
(505,43,l),
(505,173,ls),
(505,260,o),
(518,323,o),
(544,378,c),
(428,478,l),
(317,435,o),
(213,362,o),
(152,304,c),
(211,279,l),
(211,505,l),
(589,505,l),
(589,635,l),
(-20,635,l),
(-20,505,l),
(48,505,l),
(48,224,l),
(191,143,l),
(273,222,o),
(356,282,o),
(455,331,c),
(405,377,l),
(354,305,o),
(341,248,o),
(341,157,cs),
(341,43,l)
);
}
);
};
layerId = "F455777D-7EDD-47E2-866A-D8A5173CE243";
shapes = (
{
closed = 1;
nodes = (
(550,106,l),
(550,248,ls),
(550,386,o),
(483,453,o),
(380,453,cs),
(286,453,o),
(202,398,o),
(132,324,c),
(211,294,l),
(211,505,l),
(604,505,l),
(604,635,l),
(-10,635,l),
(-10,505,l),
(48,505,l),
(48,229,l),
(191,173,l),
(251,258,o),
(314,306,o),
(353,306,cs),
(378,306,o),
(386,288,o),
(386,256,cs),
(386,106,l)
);
}
);
width = 594;
},
{
anchors = (
{
name = bottomMainForm;
pos = (62,319);
},
{
name = bottomVattu;
pos = (262,211);
},
{
name = top_candrabindu;
pos = (157,607);
},
{
name = top_headline130;
pos = (327,589);
},
{
name = top_vedic;
pos = (167,607);
}
);
layerId = "ADAF9463-560A-4353-9B5A-2FAD12EBF6B5";
shapes = (
{
closed = 1;
nodes = (
(282,165,l),
(282,396,ls),
(282,445,o),
(266,482,o),
(226,482,cs),
(166,482,o),
(101,384,o),
(66,293,c),
(82,288,l),
(82,589,l),
(345,589,l),
(345,607,l),
(-8,607,l),
(-8,589,l),
(62,589,l),
(62,287,l),
(81,280,l),
(119,371,o),
(179,463,o),
(228,463,cs),
(253,463,o),
(262,441,o),
(262,399,cs),
(262,165,l)
);
}
);
width = 337;
},
{
anchors = (
{
name = bottomMainForm;
pos = (57,300);
},
{
name = bottomVattu;
pos = (290,168);
},
{
name = top_candrabindu;
pos = (181,621);
},
{
name = top_headline130;
pos = (399,558);
},
{
name = top_vedic;
pos = (206,621);
}
);
layerId = "D7742CE6-1B18-47A0-AEB5-463D77EA217C";
shapes = (
{
closed = 1;
nodes = (
(360,184,l),
(360,337,ls),
(360,430,o),
(319,473,o),
(263,473,cs),
(196,473,o),
(130,385,o),
(94,305,c),
(127,292,l),
(127,558,l),
(415,558,l),
(415,621,l),
(-8,621,l),
(-8,558,l),
(57,558,l),
(57,250,l),
(121,224,l),
(168,322,o),
(214,401,o),
(258,401,cs),
(282,401,o),
(290,372,o),
(290,335,cs),
(290,184,l)
);
}
);
width = 407;
},
{
anchors = (
{
name = bottomMainForm;
pos = (37,305);
},
{
name = bottomVattu;
pos = (309,130);
},
{
name = top_candrabindu;
pos = (203,634);
},
{
name = top_headline130;
pos = (492,514);
},
{
name = top_vedic;
pos = (246,634);
}
);
layerId = "F138D99C-4E28-42C5-9F3E-22494052B08F";
shapes = (
{
closed = 1;
nodes = (
(458,120,l),
(458,262,ls),
(458,394,o),
(403,456,o),
(309,456,cs),
(223,456,o),
(165,395,o),
(112,321,c),
(183,294,l),
(183,514,l),
(508,514,l),
(508,634,l),
(-8,634,l),
(-8,514,l),
(37,514,l),
(37,232,l),
(171,177,l),
(217,266,o),
(255,308,o),
(285,308,cs),
(300,308,o),
(309,298,o),
(309,268,cs),
(309,120,l)
);
}
);
width = 500;
}
);
script = bengali;
subCategory = Spacing;
}
{
category = Letter;
color = 5;
glyphname = "d-beng.half4";
kernRight = R_BNG_da_half;
layers = (
{
anchors = (
{
name = Anchor4;
pos = (285,622);
},
{
name = bottom_vedic;
pos = (439,0);
},
{
name = top_vedic;
pos = (319,622);
}
);
associatedMasterId = UUID0;
background = {
shapes = (
{
closed = 1;
nodes = (
(-10,622,l),
(-10,510.13,l),
(71.63,510.13,l),
(71.63,186.33,l),
(185.53,117.05,l),
(272.57,202.26,o),
(379.89,292.73,o),
(501.6,347.66,c),
(463.37,378.28,l),
(427.56,317.27,o),
(405.34,265.18,o),
(405.34,185.4,cs),
(405.34,116.38,o),
(416.29,54.75,o),
(439.07,-11.27,c),
(572.02,16.71,l),
(552.51,77.07,o),
(543.12,132.07,o),
(543.12,183.65,cs),
(543.12,261.5,o),
(555.68,322.72,o),
(586.97,382.35,c),
(487.81,465.87,l),
(355.47,410.99,o),
(241.47,329.67,o),
(170.01,253.48,c),
(207.8,236.53,l),
(207.8,510.13,l),
(645.94,510.13,l),
(645.94,622,l)
);
}
);
};
layerId = "e1c1e291-8a6c-4e1d-a7a3-2f6a2315d622";
name = "Bold Semi (intermediate)";
shapes = (
{
closed = 1;
nodes = (
(-10,622,l),
(-10,512,l),
(75,512,l),
(75,188,l),
(184,117,l),
(271,199,o),
(383,288,o),
(501,339,c),
(461,395,l),
(434,343,o),
(410,275,o),
(410,201,cs),
(410,122,o),
(423,60,o),
(447,-11,c),
(576,16,l),
(553,84,o),
(543,151,o),
(543,203,cs),
(543,272,o),
(556,332,o),
(585,383,c),
(494,459,l),
(360,404,o),
(250,332,o),
(178,255,c),
(207,235,l),
(207,512,l),
(649,512,l),
(649,622,l)
);
}
);
width = 639;
},
{
anchors = (
{
name = bottom;
pos = (408,-1);
},
{
name = bottomMainForm;
pos = (82,260);
},
{
name = nukta;
pos = (227,50);
},
{
name = top_candrabindu;
pos = (230,622);
},
{
name = top_vedic;
pos = (216,622);
}
);
background = {
anchors = (
{
name = Anchor8;
pos = (291,622);
},
{
name = bottom;
pos = (408,-1);
},
{
name = nukta;
pos = (227,50);
},
{
name = top_candrabindu;
pos = (120,622);
}
);
shapes = (
{
closed = 1;
nodes = (
(480,7,l),
(456,81,o),
(447,128,o),
(447,202,cs),
(447,287,o),
(462,354,o),
(500,424,c),
(435,489,l),
(311,441,o),
(207,350,o),
(134,268,c),
(159,248,l),
(159,551,l),
(573,551,l),
(573,622,l),
(-10,622,l),
(-10,551,l),
(82,551,l),
(82,210,l),
(141,170,l),
(247,281,o),
(310,343,o),
(425,405,c),
(413,410,l),
(390,374,o),
(369,301,o),
(369,206,cs),
(369,127,o),
(380,66,o),
(404,-10,c)
);
}
);
};
layerId = UUID0;
shapes = (
{
closed = 1;
nodes = (
(470,7,l),
(446,81,o),
(437,128,o),
(437,202,cs),
(437,287,o),
(452,354,o),
(490,424,c),
(425,489,l),
(300,435,o),
(197,350,o),
(134,268,c),
(159,248,l),
(159,551,l),
(433,551,l),
(433,622,l),
(-10,622,l),
(-10,551,l),
(82,551,l),
(82,210,l),
(141,170,l),
(242,287,o),
(311,346,o),
(415,405,c),
(403,410,l),
(380,374,o),
(359,301,o),
(359,206,cs),
(359,127,o),
(370,66,o),
(394,-10,c)
);
}
);
width = 433;
},
{
anchors = (
{
name = Anchor4;
pos = (307,622);
},
{
name = bottom_vedic;
pos = (443,0);
},
{
name = top_vedic;
pos = (301,622);
}
);
associatedMasterId = UUID0;
background = {
anchors = (
{
name = Anchor4;
pos = (307,622);
},
{
name = Anchor6;
pos = (443,0);
},
{
name = Anchor8;
pos = (301,622);
}
);
shapes = (
{
closed = 1;
nodes = (
(-10,622,l),
(-10,551,l),
(82,551,l),
(82,215,l),
(141,175,l),
(250,284,o),
(350,358,o),
(465,405,c),
(453,410,l),
(430,374,o),
(409,303,o),
(409,222,cs),
(409,142,o),
(423,70,o),
(447,-7,c),
(522,10,l),
(497,85,o),
(487,140,o),
(487,205,cs),
(487,292,o),
(502,352,o),
(540,422,c),
(475,486,l),
(339,436,o),
(225,362,o),
(145,273,c),
(159,253,l),
(159,551,l),
(613,551,l),
(613,622,l)
);
}
);
};
layerId = "BB9C8358-4F7A-4900-8EA5-FEB23DCB0134";
name = "10 May 24 at 18:05";
shapes = (
{
closed = 1;
nodes = (
(-10,622,l),
(-10,551,l),
(82,551,l),
(82,215,l),
(141,175,l),
(250,284,o),
(350,358,o),
(465,405,c),
(453,410,l),
(430,374,o),
(409,303,o),
(409,222,cs),
(409,142,o),
(423,70,o),
(447,-7,c),
(522,10,l),
(497,85,o),
(487,140,o),
(487,205,cs),
(487,292,o),
(502,352,o),
(540,422,c),
(475,486,l),
(339,436,o),
(225,362,o),
(145,273,c),
(159,253,l),
(159,551,l),
(613,551,l),
(613,622,l)
);
}
);
width = 603;
},
{
anchors = (
{
name = bottom;
pos = (413,-2);
},
{
name = bottomMainForm;
pos = (89,295);
},
{
name = nukta;
pos = (215,26);
},
{
name = top_candrabindu;
pos = (222,607);
},
{
name = top_vedic;
pos = (185,607);
}
);
background = {
anchors = (
{
name = Anchor8;
pos = (290,607);
},
{
name = bottom;
pos = (434,-5);
},
{
name = nukta;
pos = (215,26);
},
{
name = top_candrabindu;
pos = (102,607);
}
);
shapes = (
{
closed = 1;
nodes = (
(433,4,l),
(405,80,o),
(394,145,o),
(394,220,cs),
(394,292,o),
(409,376,o),
(446,464,c),
(424,482,l),
(294,423,o),
(197,332,o),
(96,222,c),
(110,213,l),
(110,586,l),
(520,586,l),
(520,607,l),
(-10,607,l),
(-10,586,l),
(89,586,l),
(89,218,l),
(111,204,l),
(214,317,o),
(313,408,o),
(434,465,c),
(427,467,l),
(387,385,o),
(374,296,o),
(374,220,cs),
(374,142,o),
(385,75,o),
(413,-2,c)
);
}
);
};
layerId = "28FB090A-653E-4199-B7BE-FAE23D31B682";
shapes = (
{
closed = 1;
nodes = (
(423,4,l),
(395,80,o),
(384,145,o),
(384,230,cs),
(384,292,o),
(391,362,o),
(414,434,c),
(392,452,l),
(286,413,o),
(190,331,o),
(96,222,c),
(110,213,l),
(110,586,l),
(428,586,l),
(428,607,l),
(-10,607,l),
(-10,586,l),
(89,586,l),
(89,218,l),
(111,204,l),
(209,314,o),
(292,395,o),
(402,435,c),
(395,437,l),
(372,373,o),
(364,296,o),
(364,230,cs),
(364,142,o),
(375,75,o),
(403,-2,c)
);
}
);
width = 370;
},
{
anchors = (
{
name = bottom;
pos = (386,-9);
},
{
name = bottomMainForm;
pos = (57,275);
},
{
name = nukta;
pos = (227,4);
},
{
name = top_candrabindu;
pos = (248,635);
},
{
name = top_vedic;
pos = (249,635);
}
);
background = {
anchors = (
{
name = Anchor8;
pos = (306,635);
},
{
name = bottom;
pos = (386,-9);
},
{
name = nukta;
pos = (227,4);
},
{
name = top_candrabindu;
pos = (138,635);
}
);
shapes = (
{
closed = 1;
nodes = (
(540,10,l),
(522,64,o),
(514,120,o),
(514,178,cs),
(514,260,o),
(528,323,o),
(554,378,c),
(438,478,l),
(308,426,o),
(220,354,o),
(162,284,c),
(221,259,l),
(221,505,l),
(599,505,l),
(599,635,l),
(-10,635,l),
(-10,505,l),
(58,505,l),
(58,204,l),
(201,117,l),
(283,208,o),
(366,282,o),
(465,331,c),
(415,377,l),
(371,305,o),
(351,248,o),
(351,157,cs),
(351,89,o),
(359,33,o),
(377,-23,c)
);
}
);
};
layerId = "F455777D-7EDD-47E2-866A-D8A5173CE243";
shapes = (
{
closed = 1;
nodes = (
(530,10,l),
(512,64,o),
(504,120,o),
(504,178,cs),
(504,260,o),
(518,323,o),
(544,378,c),
(428,478,l),
(298,426,o),
(220,354,o),
(162,284,c),
(221,259,l),
(221,505,l),
(422,505,l),
(422,635,l),
(-10,635,l),
(-10,505,l),
(58,505,l),
(58,204,l),
(201,117,l),
(283,208,o),
(356,282,o),
(455,331,c),
(405,377,l),
(361,305,o),
(341,248,o),
(341,157,cs),
(341,89,o),
(349,33,o),
(367,-23,c)
);
}
);
width = 499;
},
{
anchors = (
{
name = bottom;
pos = (278,1);
},
{
name = bottomMainForm;
pos = (62,296);
},
{
name = nukta;
pos = (152,25);
},
{
name = top_candrabindu;
pos = (157,607);
},
{
name = top_vedic;
pos = (130,607);
}
);
background = {
shapes = (
{
closed = 1;
nodes = (
(297,-8,l),
(279,72,o),
(269,141,o),
(269,218,cs),
(269,288,o),
(277,359,o),
(305,460,c),
(287,471,l),
(205,416,o),
(125,324,o),
(70,220,c),
(80,210,l),
(80,579,l),
(358,579,l),
(358,597,l),
(-10,597,l),
(-10,579,l),
(60,579,l),
(60,202,l),
(80,195,l),
(144,314,o),
(219,399,o),
(295,454,c),
(285,461,l),
(261,375,o),
(249,298,o),
(249,217,cs),
(249,138,o),
(260,67,o),
(277,-12,c)
);
}
);
};
layerId = "ADAF9463-560A-4353-9B5A-2FAD12EBF6B5";
shapes = (
{
closed = 1;
nodes = (
(297,2,l),
(279,82,o),
(269,150,o),
(269,231,cs),
(269,307,o),
(276,367,o),
(293,443,c),
(275,454,l),
(209,416,o),
(125,325,o),
(70,224,c),
(82,212,l),
(82,589,l),
(299,589,l),
(299,607,l),
(-8,607,l),
(-8,589,l),
(62,589,l),
(62,212,l),
(82,205,l),
(140,307,o),
(215,393,o),
(282,436,c),
(275,440,l),
(258,374,o),
(249,297,o),
(249,230,cs),
(249,148,o),
(259,75,o),
(277,-2,c)
);
}
);
width = 261;
},
{
anchors = (
{
name = bottom;
pos = (295,3);
},
{
name = bottomMainForm;
pos = (57,266);
},
{
name = nukta;
pos = (168,46);
},
{
name = top_candrabindu;
pos = (174,621);
},
{
name = top_vedic;
pos = (166,621);
}
);
layerId = "D7742CE6-1B18-47A0-AEB5-463D77EA217C";
shapes = (
{
closed = 1;
nodes = (
(359,8,l),
(343,82,o),
(334,146,o),
(334,206,cs),
(334,286,o),
(343,345,o),
(367,430,c),
(297,476,l),
(214,422,o),
(135,341,o),
(95,269,c),
(127,243,l),
(127,558,l),
(320,558,l),
(320,621,l),
(-8,621,l),
(-8,558,l),
(57,558,l),
(57,211,l),
(119,185,l),
(186,295,o),
(255,370,o),
(319,411,c),
(291,410,l),
(271,352,o),
(264,292,o),
(264,210,cs),
(264,144,o),
(274,64,o),
(291,-7,c)
);
}
);
width = 331;
},
{
anchors = (
{
name = bottom;
pos = (285,-17);
},
{
name = bottomMainForm;
pos = (40,272);
},
{
name = nukta;
pos = (177,12);
},
{
name = top_candrabindu;
pos = (199,634);
},
{
name = top_vedic;
pos = (203,634);
}
);
layerId = "F138D99C-4E28-42C5-9F3E-22494052B08F";
shapes = (
{
closed = 1;
nodes = (
(422,-1,l),
(409,56,o),
(399,130,o),
(399,183,cs),
(399,260,o),
(404,318,o),
(430,391,c),
(311,470,l),
(246,431,o),
(176,368,o),
(126,282,c),
(187,257,l),
(187,514,l),
(325,514,l),
(325,634,l),
(-8,634,l),
(-8,514,l),
(41,514,l),
(41,199,l),
(181,144,l),
(225,224,o),
(269,268,o),
(317,305,c),
(302,370,l),
(269,302,o),
(257,224,o),
(257,149,cs),
(257,93,o),
(264,29,o),
(278,-26,c)
);
}
);
width = 407;
}
);
script = bengali;
subCategory = Spacing;
}
{
category = Letter;
color = 10;
export = 0;
glyphname = "d_dha-beng";
layers = (
{
background = {
anchors = (
{
name = Anchor8;
pos = (389,622);
},
{
name = bottom;
pos = (445,0);
},
{
name = top_candrabindu;
pos = (445,622);
}
);
shapes = (
{
closed = 1;
nodes = (
(-10,622,l),
(-10,551,l),
(82,551,l),
(82,215,l),
(141,175,l),
(250,284,o),
(350,358,o),
(465,405,c),
(445,431,l),
(445,197,l),
(522,228,l),
(522,439,l),
(475,486,l),
(339,436,o),
(225,362,o),
(145,273,c),
(159,253,l),
(159,551,l),
(789,551,l),
(789,622,l)
);
},
{
closed = 1;
nodes = (
(703,121,o),
(711,179,o),
(735,237,c),
(681,292,l),
(625,278,o),
(561,258,o),
(500,235,c),
(474,228,l),
(357,186,o),
(246,137,o),
(159,85,c),
(195,6,l),
(291,-10,o),
(370,-40,o),
(445,-117,c),
(522,-117,l),
(522,189,l),
(445,162,l),
(445,38,ls),
(445,20,o),
(446,-14,o),
(448,-36,c),
(388,16,o),
(324,42,o),
(249,60,c),
(238,52,l),
(304,88,o),
(393,127,o),
(490,161,c),
(510,166,l),
(555,183,o),
(611,201,o),
(655,213,c),
(653,229,l),
(634,172,o),
(629,128,o),
(629,75,cs),
(629,21,o),
(640,-38,o),
(658,-98,c),
(727,-81,l),
(711,-25,o),
(703,20,o),
(703,69,cs)
);
}
);
};
layerId = UUID0;
shapes = (
{
alignment = -1;
ref = "d-beng.half3";
},
{
pos = (92,20);
ref = "baphala-beng.alt4";
},
{
pos = (417,-7);
ref = "dha-beng.part";
},
{
pos = (531,0);
ref = "headline-beng.130";
}
);
width = 646;
},
{
background = {
anchors = (
{
name = Anchor8;
pos = (379,622);
},
{
name = bottom;
pos = (457,0);
},
{
name = top_candrabindu;
pos = (457,622);
}
);
shapes = (
{
closed = 1;
nodes = (
(-10,622,l),
(-10,600,l),
(89,600,l),
(89,204,l),
(110,190,l),
(225,310,o),
(341,411,o),
(480,478,c),
(468,475,l),
(468,166,l),
(489,170,l),
(489,481,l),
(471,496,l),
(328,426,o),
(204,322,o),
(97,206,c),
(110,199,l),
(110,600,l),
(748,600,l),
(748,622,l)
);
},
{
closed = 1;
nodes = (
(657,148,o),
(667,197,o),
(692,258,c),
(672,276,l),
(606,256,o),
(550,237,o),
(483,209,c),
(477,207,l),
(365,162,o),
(276,118,o),
(199,70,c),
(211,41,l),
(313,19,o),
(395,-28,o),
(468,-118,c),
(489,-118,l),
(489,206,l),
(468,202,l),
(468,-2,ls),
(468,-20,o),
(468,-67,o),
(470,-89,c),
(395,0,o),
(314,42,o),
(213,63,c),
(217,58,l),
(292,101,o),
(366,139,o),
(475,184,c),
(481,186,l),
(560,218,o),
(610,236,o),
(678,257,c),
(671,264,l),
(645,204,o),
(636,150,o),
(636,79,cs),
(636,33,o),
(645,-23,o),
(664,-88,c),
(685,-82,l),
(664,-12,o),
(657,39,o),
(657,80,cs)
);
}
);
};
layerId = "28FB090A-653E-4199-B7BE-FAE23D31B682";
shapes = (
{
alignment = -1;
ref = "d-beng.half3";
},
{
pos = (87,50);
ref = "baphala-beng.alt4";
},
{
pos = (361,10);
ref = "dha-beng.part";
},
{
pos = (465,0);
ref = "headline-beng.130";
}
);
width = 555;
},
{
background = {
anchors = (
{
name = Anchor8;
pos = (434,622);
},
{
name = bottom;
pos = (429,0);
},
{
name = top_candrabindu;
pos = (429,622);
}
);
shapes = (
{
closed = 1;
nodes = (
(-10,622,l),
(-10,493,l),
(65,493,l),
(65,251,l),
(198,164,l),
(289,228,o),
(416,298,o),
(512,327,c),
(429,376,l),
(429,202,l),
(590,227,l),
(590,368,l),
(491,460,l),
(365,421,o),
(263,364,o),
(183,305,c),
(226,276,l),
(226,493,l),
(878,493,l),
(878,622,l)
);
},
{
closed = 1;
nodes = (
(807,136,o),
(818,188,o),
(840,232,c),
(745,315,l),
(659,295,o),
(584,271,o),
(509,245,c),
(479,241,l),
(362,201,o),
(270,165,o),
(160,105,c),
(212,-23,l),
(309,-43,o),
(357,-65,o),
(429,-117,c),
(590,-117,l),
(590,198,l),
(433,128,l),
(433,37,ls),
(433,29,o),
(434,11,o),
(435,0,c),
(396,29,o),
(338,54,o),
(274,65,c),
(270,34,l),
(338,70,o),
(416,100,o),
(499,126,c),
(524,130,l),
(603,152,o),
(696,177,o),
(790,195,c),
(705,259,l),
(669,200,o),
(652,143,o),
(652,67,cs),
(652,4,o),
(661,-47,o),
(679,-103,c),
(829,-75,l),
(813,-20,o),
(807,29,o),
(807,77,cs)
);
}
);
};
layerId = "F455777D-7EDD-47E2-866A-D8A5173CE243";
shapes = (
{
alignment = -1;
ref = "d-beng.half3";
},
{
pos = (94,6);
ref = "baphala-beng.alt4";
},
{
pos = (455,-12);
ref = "dha-beng.part";
},
{
pos = (594,0);
ref = "headline-beng.130";
}
);
width = 784;
},
{
layerId = "ADAF9463-560A-4353-9B5A-2FAD12EBF6B5";
shapes = (
{
alignment = -1;
ref = "d-beng.half3";
},
{
pos = (69,51);
ref = "baphala-beng.alt4";
},
{
pos = (262,8);
ref = "dha-beng.part";
},
{
pos = (335,0);
ref = "headline-beng.130";
}
);
width = 408;
},
{
layerId = "D7742CE6-1B18-47A0-AEB5-463D77EA217C";
shapes = (
{
alignment = -1;
ref = "d-beng.half3";
},
{
alignment = -1;
pos = (69,25);
ref = "baphala-beng.alt4";
},
{
alignment = -1;
pos = (316,-4);
ref = "dha-beng.part";
},
{
alignment = -1;
pos = (402,0);
ref = "headline-beng.130";
}
);
width = 509;
},
{
layerId = "F138D99C-4E28-42C5-9F3E-22494052B08F";
shapes = (
{
alignment = -1;
ref = "d-beng.half3";
},
{
pos = (81,7);
ref = "baphala-beng.alt4";
},
{
pos = (369,-13);
ref = "dha-beng.part";
},
{
pos = (500,0);
ref = "headline-beng.130";
}
);
width = 668;
}
);
script = bengali;
subCategory = Spacing;
}
{
category = Letter;
color = 10;
export = 0;
glyphname = "dh_na-beng";
layers = (
{
background = {
anchors = (
{
name = Anchor8;
pos = (286,622);
},
{
name = bottom;
pos = (400,0);
}
);
shapes = (
{
closed = 1;
nodes = (
(400,622,l),
(400,498,l),
(423,537,l),
(287,499,o),
(162,443,o),
(37,373,c),
(76,277,l),
(220,256,o),
(316,212,o),
(404,119,c),
(477,117,l),
(477,551,l),
(582,551,l),
(582,622,l)
);
},
{
closed = 1;
nodes = (
(400,286,ls),
(400,253,o),
(402,231,o),
(404,207,c),
(326,279,o),
(238,325,o),
(109,341,c),
(111,328,l),
(210,379,o),
(313,426,o),
(423,460,c),
(400,490,l)
);
},
{
closed = 1;
nodes = (
(135,629,o),
(94,578,o),
(94,524,cs),
(94,462,o),
(138,421,o),
(208,384,c),
(278,423,l),
(200,453,o),
(173,474,o),
(173,509,cs),
(173,536,o),
(196,554,o),
(236,554,cs),
(253,554,o),
(264,553,o),
(272,552,c),
(278,624,l),
(261,627,o),
(241,629,o),
(225,629,cs)
);
},
{
closed = 1;
nodes = (
(119,166,o),
(58,123,o),
(58,48,cs),
(58,-7,o),
(102,-56,o),
(168,-80,c),
(203,-11,l),
(159,5,o),
(139,21,o),
(139,47,cs),
(139,77,o),
(160,95,o),
(200,95,cs),
(273,95,o),
(346,45,o),
(412,-34,c),
(445,25,l),
(365,107,o),
(295,166,o),
(191,166,cs)
);
},
{
closed = 1;
nodes = (
(403,172,l),
(403,39,l),
(400,17,l),
(400,-43,l),
(477,-43,l),
(477,175,l)
);
}
);
};
layerId = UUID0;
shapes = (
{
ref = "dh-beng.half";
},
{
pos = (103,-98);
ref = "na-beng.blws";
}
);
width = 596;
},
{
background = {
anchors = (
{
name = Anchor8;
pos = (272,622);
},
{
name = bottom;
pos = (395,0);
}
);
shapes = (
{
closed = 1;
nodes = (
(390,622,l),
(390,544,l),
(411,554,l),
(286,506,o),
(172,447,o),
(41,362,c),
(53,334,l),
(190,300,o),
(298,237,o),
(389,117,c),
(411,117,l),
(411,600,l),
(526,600,l),
(527,622,l)
);
},
{
closed = 1;
nodes = (
(390,268,ls),
(390,211,o),
(392,174,o),
(394,141,c),
(315,247,o),
(216,316,o),
(59,355,c),
(58,350,l),
(188,431,o),
(291,483,o),
(410,531,c),
(390,537,l)
);
},
{
closed = 1;
nodes = (
(160,629,o),
(120,587,o),
(120,537,cs),
(120,495,o),
(141,464,o),
(193,435,c),
(214,446,l),
(165,475,o),
(142,499,o),
(142,537,cs),
(142,574,o),
(166,607,o),
(229,607,cs),
(245,607,o),
(259,605,o),
(270,603,c),
(271,625,l),
(257,628,o),
(246,629,o),
(230,629,cs)
);
},
{
closed = 1;
nodes = (
(132,159,o),
(74,124,o),
(74,58,cs),
(74,12,o),
(99,-28,o),
(163,-54,c),
(171,-33,l),
(119,-12,o),
(96,16,o),
(96,58,cs),
(96,105,o),
(129,137,o),
(185,137,cs),
(264,137,o),
(326,81,o),
(404,-27,c),
(407,2,l),
(348,86,o),
(281,159,o),
(186,159,cs)
);
},
{
closed = 1;
nodes = (
(389,122,l),
(389,15,l),
(390,3,l),
(390,-43,l),
(411,-43,l),
(411,124,l)
);
}
);
};
layerId = "28FB090A-653E-4199-B7BE-FAE23D31B682";
shapes = (
{
ref = "dh-beng.half";
},
{
pos = (115,-20);
ref = "na-beng.blws";
}
);
width = 552;
},
{
background = {
anchors = (
{
name = Anchor8;
pos = (305,622);
},
{
name = bottom;
pos = (371,0);
}
);
shapes = (
{
closed = 1;
nodes = (
(373,622,l),
(373,474,l),
(389,502,l),
(265,473,o),
(149,427,o),
(29,369,c),
(85,227,l),
(196,214,o),
(294,183,o),
(381,116,c),
(533,122,l),
(533,493,l),
(621,493,l),
(621,622,l)
);
},
{
closed = 1;
nodes = (
(373,314,ls),
(373,296,o),
(374,273,o),
(376,248,c),
(322,287,o),
(248,313,o),
(167,326,c),
(157,293,l),
(224,326,o),
(330,365,o),
(415,384,c),
(373,411,l)
);
},
{
closed = 1;
nodes = (
(106,629,o),
(75,557,o),
(75,509,cs),
(75,425,o),
(151,380,o),
(237,334,c),
(309,432,l),
(252,441,o),
(227,455,o),
(227,482,cs),
(227,496,o),
(240,508,o),
(267,508,cs),
(277,508,o),
(286,507,o),
(291,506,c),
(300,623,l),
(279,627,o),
(257,629,o),
(232,629,cs)
);
},
{
closed = 1;
nodes = (
(85,160,o),
(24,113,o),
(24,38,cs),
(24,-44,o),
(82,-86,o),
(151,-112,c),
(215,-9,l),
(191,0,o),
(184,10,o),
(184,22,cs),
(184,34,o),
(194,43,o),
(214,43,cs),
(258,43,o),
(308,17,o),
(371,-43,c),
(442,29,l),
(349,120,o),
(273,160,o),
(169,160,cs)
);
},
{
closed = 1;
nodes = (
(376,148,l),
(376,76,l),
(371,32,l),
(371,-43,l),
(533,-43,l),
(533,167,l)
);
}
);
};
layerId = "F455777D-7EDD-47E2-866A-D8A5173CE243";
shapes = (
{
ref = "dh-beng.half";
},
{
pos = (46,-53);
ref = "na-beng.blws";
}
);
width = 600;
},
{
layerId = "ADAF9463-560A-4353-9B5A-2FAD12EBF6B5";
shapes = (
{
ref = "dh-beng.half";
},
{
pos = (90,12);
ref = "na-beng.blws";
}
);
width = 398;
},
{
layerId = "D7742CE6-1B18-47A0-AEB5-463D77EA217C";
shapes = (
{
ref = "dh-beng.half";
},
{
pos = (71,-78);
ref = "na-beng.blws";
}
);
width = 447;
},
{
layerId = "F138D99C-4E28-42C5-9F3E-22494052B08F";
shapes = (
{
ref = "dh-beng.half";
},
{
pos = (32,-60);
ref = "na-beng.blws";
}
);
width = 484;
}
);
script = bengali;
subCategory = Spacing;
}
{
category = Mark;
color = 5;
glyphname = "jh-beng.side";
layers = (
{
anchors = (
{
name = _bottomJhaSide;
pos = (-111,316);
},
{
name = top_vedic;
pos = (-192,622);
}
);
background = {
shapes = (
{
closed = 1;
nodes = (
(-95,25,l),
(-95,622,l),
(-606,622,l),
(-606,551,l),
(-172,551,l),
(-172,482,l),
(-149,529,l),
(-295,485,o),
(-431,422,o),
(-559,350,c),
(-520,254,l),
(-366,229,o),
(-231,122,o),
(-172,25,c)
);
},
{
closed = 1;
nodes = (
(-158,108,l),
(-217,212,o),
(-375,300,o),
(-485,319,c),
(-485,303,l),
(-388,357,o),
(-259,416,o),
(-151,451,c),
(-172,474,l),
(-172,209,ls),
(-172,166,o),
(-170,139,o),
(-167,108,c)
);
},
{
closed = 1;
nodes = (
(106,72,l),
(106,551,l),
(211,551,l),
(211,622,l),
(105,622,l),
(82,688,l),
(29,688,l),
(29,256,ls),
(29,213,o),
(30,187,o),
(33,156,c),
(41,159,l),
(17,216,o),
(-53,287,o),
(-111,316,c),
(-144,248,l),
(-75,215,o),
(-7,148,o),
(29,72,c)
);
}
);
};
layerId = UUID0;
shapes = (
{
closed = 1;
nodes = (
(106,72,l),
(106,551,l),
(211,551,l),
(211,622,l),
(105,622,l),
(82,688,l),
(29,688,l),
(29,256,ls),
(29,213,o),
(30,187,o),
(33,156,c),
(41,159,l),
(17,216,o),
(-53,287,o),
(-111,316,c),
(-144,248,l),
(-75,215,o),
(-7,148,o),
(29,72,c)
);
}
);
width = 201;
},
{
anchors = (
{
name = _bottomJhaSide;
pos = (-113,310);
},
{
name = top_vedic;
pos = (-185,607);
}
);
background = {
shapes = (
{
closed = 1;
nodes = (
(-106,50,l),
(-106,607,l),
(-562,607,l),
(-562,586,l),
(-127,586,l),
(-127,524,l),
(-111,540,l),
(-257,490,o),
(-382,430,o),
(-495,353,c),
(-484,324,l),
(-327,289,o),
(-199,199,o),
(-127,50,c)
);
},
{
closed = 1;
nodes = (
(-117,67,l),
(-185,221,o),
(-323,306,o),
(-479,345,c),
(-477,339,l),
(-371,412,o),
(-238,474,o),
(-111,517,c),
(-127,520,l),
(-127,175,ls),
(-127,129,o),
(-125,100,o),
(-121,66,c)
);
},
{
closed = 1;
nodes = (
(75,72,l),
(75,586,l),
(191,586,l),
(191,607,l),
(75,607,l),
(69,660,l),
(54,660,l),
(54,238,ls),
(54,177,o),
(56,128,o),
(60,90,c),
(63,90,l),
(27,186,o),
(-34,266,o),
(-113,310,c),
(-121,291,l),
(-39,247,o),
(16,168,o),
(54,72,c)
);
}
);
};
layerId = "28FB090A-653E-4199-B7BE-FAE23D31B682";
shapes = (
{
closed = 1;
nodes = (
(75,72,l),
(75,586,l),
(191,586,l),
(191,607,l),
(75,607,l),
(69,660,l),
(54,660,l),
(54,238,ls),
(54,177,o),
(56,128,o),
(60,90,c),
(63,90,l),
(27,186,o),
(-34,266,o),
(-113,310,c),
(-121,291,l),
(-39,247,o),
(16,168,o),
(54,72,c)
);
}
);
width = 181;
},
{
anchors = (
{
name = _bottomJhaSide;
pos = (-148,349);
},
{
name = top_vedic;
pos = (-183,635);
}
);
layerId = "F455777D-7EDD-47E2-866A-D8A5173CE243";
shapes = (
{
closed = 1;
nodes = (
(170,72,l),
(170,505,l),
(243,505,l),
(243,635,l),
(169,635,l),
(145,709,l),
(7,709,l),
(7,302,ls),
(7,272,o),
(9,235,o),
(12,209,c),
(32,207,l),
(2,266,o),
(-68,322,o),
(-148,349,c),
(-178,231,l),
(-90,190,o),
(-39,148,o),
(7,72,c)
);
}
);
width = 233;
},
{
anchors = (
{
name = _bottomJhaSide;
pos = (-79,310);
},
{
name = top_vedic;
pos = (-126,607);
}
);
background = {
anchors = (
{
name = top_vedic;
pos = (-126,607);
}
);
shapes = (
{
closed = 1;
nodes = (
(55,72,l),
(55,589,l),
(135,589,l),
(135,607,l),
(55,607,l),
(49,660,l),
(35,660,l),
(35,223,ls),
(35,171,o),
(37,121,o),
(40,86,c),
(44,86,l),
(19,190,o),
(-25,265,o),
(-77,313,c),
(-84,293,l),
(-34,249,o),
(9,167,o),
(36,72,c)
);
}
);
};
layerId = "ADAF9463-560A-4353-9B5A-2FAD12EBF6B5";
shapes = (
{
closed = 1;
nodes = (
(55,72,l),
(55,589,l),
(135,589,l),
(135,607,l),
(55,607,l),
(49,660,l),
(35,660,l),
(35,223,ls),
(35,171,o),
(37,121,o),
(40,86,c),
(44,86,l),
(19,190,o),
(-25,265,o),
(-77,313,c),
(-84,293,l),
(-34,249,o),
(9,167,o),
(36,72,c)
);
}
);
width = 127;
},
{
anchors = (
{
name = _bottomJhaSide;
pos = (-88,315);
},
{
name = top_vedic;
pos = (-145,621);
}
);
layerId = "D7742CE6-1B18-47A0-AEB5-463D77EA217C";
shapes = (
{
closed = 1;
nodes = (
(91,72,l),
(91,558,l),
(165,558,l),
(165,621,l),
(90,621,l),
(73,685,l),
(20,685,l),
(20,252,ls),
(20,205,o),
(21,178,o),
(24,145,c),
(37,148,l),
(18,214,o),
(-36,283,o),
(-88,313,c),
(-111,252,l),
(-52,223,o),
(-8,160,o),
(20,72,c)
);
}
);
width = 157;
},
{
anchors = (
{
name = _bottomJhaSide;
pos = (-97,343);
},
{
name = top_vedic;
pos = (-140,634);
}
);
layerId = "F138D99C-4E28-42C5-9F3E-22494052B08F";
shapes = (
{
closed = 1;
nodes = (
(162,72,l),
(162,514,l),
(218,514,l),
(218,634,l),
(162,634,l),
(143,707,l),
(13,707,l),
(13,285,ls),
(13,251,o),
(16,215,o),
(18,190,c),
(45,191,l),
(14,250,o),
(-42,316,o),
(-110,343,c),
(-133,221,l),
(-59,182,o),
(-23,151,o),
(24,72,c)
);
}
);
width = 210;
}
);
script = bengali;
subCategory = Nonspacing;
}
{
category = Letter;
color = 5;
glyphname = "l_sa-beng";
layers = (
{
anchors = (
{
name = bottom;
pos = (649,0);
},
{
name = nukta;
pos = (454,26);
},
{
name = top_candrabindu;
pos = (659,607);
},
{
name = top_vedic;
pos = (388,607);
}
);
layerId = "28FB090A-653E-4199-B7BE-FAE23D31B682";
shapes = (
{
closed = 1;
nodes = (
(458,283,l),
(458,475,o),
(385,547,o),
(223,588,c),
(217,570,l),
(379,528,o),
(439,465,o),
(439,266,c)
);
},
{
closed = 1;
nodes = (
(142,171,o),
(159,191,o),
(159,215,cs),
(159,237,o),
(142,255,o),
(119,255,cs),
(95,255,o),
(78,237,o),
(78,215,cs),
(78,193,o),
(94,176,o),
(111,176,c),
(109,192,l),
(54,192,o),
(25,240,o),
(25,286,cs),
(25,332,o),
(55,367,o),
(108,367,cs),
(161,367,o),
(208,331,o),
(214,240,c),
(235,240,l),
(233,253,o),
(232,268,o),
(232,284,cs),
(232,327,o),
(254,357,o),
(289,357,cs),
(330,357,o),
(370,317,o),
(399,193,c),
(414,212,l),
(382,348,o),
(329,378,o),
(287,378,cs),
(240,378,o),
(211,343,o),
(211,273,c),
(225,267,l),
(218,344,o),
(167,388,o),
(106,388,cs),
(43,388,o),
(4,345,o),
(4,287,cs),
(4,222,o),
(49,171,o),
(108,171,cs)
);
},
{
closed = 1;
nodes = (
(276,178,l),
(297,161,o),
(319,154,o),
(340,154,cs),
(389,154,o),
(427,187,o),
(471,296,cs),
(512,398,o),
(533,418,o),
(566,418,cs),
(606,418,o),
(639,379,o),
(665,316,c),
(649,364,l),
(649,0,l),
(670,0,l),
(670,586,l),
(786,586,l),
(786,607,l),
(-10,607,l),
(-10,586,l),
(649,586,l),
(649,433,ls),
(649,414,o),
(649,384,o),
(652,352,c),
(667,350,l),
(636,417,o),
(603,439,o),
(565,439,cs),
(522,439,o),
(492,407,o),
(456,310,c),
(451,304,l),
(417,206,o),
(385,175,o),
(338,175,cs),
(321,175,o),
(305,181,o),
(289,196,c)
);
}
);
width = 776;
},
{
anchors = (
{
name = bottom;
pos = (688,0);
},
{
name = nukta;
pos = (528,0);
},
{
name = top_candrabindu;
pos = (723,622);
},
{
name = top_vedic;
pos = (430,622);
}
);
guides = (
{
pos = (192,435);
}
);
layerId = UUID0;
shapes = (
{
closed = 1;
nodes = (
(526,336,l),
(526,480,o),
(398,559,o),
(288,559,c),
(275,494,l),
(400,476,o),
(482,406,o),
(482,251,c)
);
},
{
closed = 1;
nodes = (
(205,119,o),
(234,143,o),
(234,181,cs),
(234,216,o),
(212,237,o),
(179,237,cs),
(149,237,o),
(124,217,o),
(124,182,cs),
(124,152,o),
(145,128,o),
(175,128,c),
(186,180,l),
(134,180,o),
(114,225,o),
(114,263,cs),
(114,306,o),
(139,327,o),
(169,327,cs),
(219,327,o),
(245,282,o),
(257,213,c),
(318,216,l),
(317,223,o),
(316,240,o),
(316,254,c),
(316,295,o),
(330,317,o),
(355,317,cs),
(393,317,o),
(419,270,o),
(441,176,c),
(487,226,l),
(451,361,o),
(388,385,o),
(347,385,cs),
(302,385,o),
(259,352,o),
(259,253,c),
(309,221,l),
(294,343,o),
(227,395,o),
(159,395,cs),
(85,395,o),
(36,343,o),
(36,269,cs),
(36,172,o),
(102,119,o),
(162,119,cs)
);
},
{
closed = 1;
nodes = (
(310,130,l),
(333,111,o),
(362,101,o),
(394,101,cs),
(453,101,o),
(500,143,o),
(552,253,cs),
(594,342,o),
(612,360,o),
(638,360,cs),
(666,360,o),
(692,335,o),
(711,281,c),
(688,378,l),
(688,0,l),
(765,0,l),
(765,551,l),
(870,551,l),
(870,622,l),
(-10,622,l),
(-10,551,l),
(688,551,l),
(688,443,ls),
(688,415,o),
(689,389,o),
(694,358,c),
(714,365,l),
(690,413,o),
(653,434,o),
(622,434,cs),
(583,434,o),
(545,412,o),
(505,312,c),
(499,306,l),
(454,188,o),
(430,171,o),
(394,171,cs),
(376,171,o),
(361,176,o),
(344,189,c)
);
}
);
width = 860;
},
{
anchors = (
{
name = bottom;
pos = (678,0);
},
{
name = nukta;
pos = (554,-37);
},
{
name = top_candrabindu;
pos = (760,635);
},
{
name = top_vedic;
pos = (452,635);
}
);
guides = (
{
angle = 67.2296;
pos = (591,189);
},
{
pos = (360,390);
}
);
layerId = "F455777D-7EDD-47E2-866A-D8A5173CE243";
shapes = (
{
closed = 1;
nodes = (
(569,311,l),
(569,457,o),
(471,552,o),
(295,552,c),
(272,449,l),
(410,436,o),
(484,375,o),
(484,230,c)
);
},
{
closed = 1;
nodes = (
(221,72,o),
(247,106,o),
(247,151,cs),
(247,194,o),
(219,220,o),
(177,220,cs),
(140,220,o),
(107,195,o),
(107,155,cs),
(107,110,o),
(149,82,o),
(194,82,c),
(191,184,l),
(173,184,o),
(155,207,o),
(155,238,cs),
(155,264,o),
(167,280,o),
(191,280,cs),
(219,280,o),
(235,260,o),
(244,198,c),
(347,205,l),
(346,225,o),
(346,229,o),
(346,236,cs),
(346,257,o),
(354,270,o),
(370,270,cs),
(390,270,o),
(409,251,o),
(426,167,c),
(493,205,l),
(468,355,o),
(396,385,o),
(346,385,cs),
(292,385,o),
(261,349,o),
(251,288,c),
(324,219,l),
(304,319,o),
(258,395,o),
(162,395,cs),
(73,395,o),
(18,332,o),
(18,236,cs),
(18,149,o),
(72,72,o),
(163,72,cs)
);
},
{
closed = 1;
nodes = (
(315,70,l),
(341,55,o),
(388,43,o),
(426,43,cs),
(509,43,o),
(543,75,o),
(589,183,cs),
(625,269,o),
(634,283,o),
(656,283,cs),
(673,283,o),
(687,270,o),
(704,242,c),
(678,334,l),
(678,0,l),
(842,0,l),
(842,505,l),
(915,505,l),
(915,635,l),
(-10,635,l),
(-10,505,l),
(678,505,l),
(678,449,ls),
(678,427,o),
(679,407,o),
(682,384,c),
(696,381,l),
(678,413,o),
(647,426,o),
(623,426,cs),
(574,426,o),
(543,393,o),
(511,321,c),
(490,289,l),
(441,173,o),
(422,171,o),
(402,171,cs),
(392,171,o),
(377,175,o),
(364,182,c)
);
}
);
width = 905;
},
{
anchors = (
{
name = bottom;
pos = (477,0);
},
{
name = nukta;
pos = (345,27);
},
{
name = top_candrabindu;
pos = (487,607);
},
{
name = top_vedic;
pos = (284,607);
}
);
layerId = "ADAF9463-560A-4353-9B5A-2FAD12EBF6B5";
shapes = (
{
closed = 1;
nodes = (
(348,282,l),
(348,475,o),
(295,550,o),
(185,591,c),
(178,574,l),
(295,530,o),
(332,458,o),
(332,266,c)
);
},
{
closed = 1;
nodes = (
(129,172,o),
(140,192,o),
(140,216,cs),
(140,239,o),
(130,255,o),
(111,255,cs),
(92,255,o),
(81,239,o),
(81,218,cs),
(81,194,o),
(93,176,o),
(106,176,c),
(105,191,l),
(69,191,o),
(50,240,o),
(50,283,cs),
(50,332,o),
(69,369,o),
(106,369,cs),
(138,369,o),
(171,337,o),
(175,240,c),
(195,241,l),
(194,252,o),
(193,268,o),
(193,284,cs),
(193,332,o),
(205,359,o),
(229,359,cs),
(258,359,o),
(285,317,o),
(304,192,c),
(316,212,l),
(294,350,o),
(257,378,o),
(226,378,cs),
(193,378,o),
(174,346,o),
(174,287,c),
(186,275,l),
(181,343,o),
(149,388,o),
(102,388,cs),
(57,388,o),
(30,345,o),
(30,287,cs),
(30,222,o),
(62,172,o),
(103,172,cs)
);
},
{
closed = 1;
nodes = (
(213,183,l),
(228,160,o),
(247,151,o),
(264,151,cs),
(302,151,o),
(327,181,o),
(360,299,cs),
(388,399,o),
(402,420,o),
(425,420,cs),
(451,420,o),
(470,381,o),
(487,317,c),
(477,364,l),
(477,0,l),
(497,0,l),
(497,589,l),
(577,589,l),
(577,607,l),
(-8,607,l),
(-8,589,l),
(477,589,l),
(477,433,ls),
(477,411,o),
(477,382,o),
(480,352,c),
(488,349,l),
(474,413,o),
(448,439,o),
(421,439,cs),
(390,439,o),
(371,413,o),
(344,310,c),
(340,304,l),
(314,207,o),
(293,170,o),
(262,170,cs),
(247,170,o),
(237,180,o),
(228,194,c)
);
}
);
width = 569;
},
{
anchors = (
{
name = bottom;
pos = (515,0);
},
{
name = nukta;
pos = (401,4);
},
{
name = top_candrabindu;
pos = (548,621);
},
{
name = top_vedic;
pos = (325,621);
}
);
layerId = "D7742CE6-1B18-47A0-AEB5-463D77EA217C";
shapes = (
{
closed = 1;
nodes = (
(403,328,l),
(403,480,o),
(316,558,o),
(221,564,c),
(204,506,l),
(312,482,o),
(360,414,o),
(360,253,c)
);
},
{
closed = 1;
nodes = (
(159,127,o),
(181,148,o),
(181,186,cs),
(181,220,o),
(164,239,o),
(138,239,cs),
(112,239,o),
(93,220,o),
(93,187,cs),
(93,158,o),
(112,135,o),
(137,135,c),
(142,182,l),
(109,182,o),
(94,222,o),
(94,265,cs),
(94,309,o),
(110,333,o),
(135,333,cs),
(170,333,o),
(187,288,o),
(195,217,c),
(246,222,l),
(245,231,o),
(244,246,o),
(244,260,cs),
(244,301,o),
(253,323,o),
(272,323,cs),
(297,323,o),
(312,275,o),
(325,176,c),
(361,221,l),
(342,361,o),
(288,384,o),
(259,384,cs),
(220,384,o),
(189,354,o),
(189,266,c),
(236,228,l),
(225,343,o),
(180,394,o),
(122,394,cs),
(62,394,o),
(28,343,o),
(28,271,cs),
(28,180,o),
(73,127,o),
(124,127,cs)
);
},
{
closed = 1;
nodes = (
(225,147,l),
(248,117,o),
(274,107,o),
(300,107,cs),
(351,107,o),
(383,134,o),
(422,260,cs),
(452,355,o),
(465,369,o),
(483,369,cs),
(502,369,o),
(518,343,o),
(533,287,c),
(515,376,l),
(515,0,l),
(585,0,l),
(585,558,l),
(659,558,l),
(659,621,l),
(-8,621,l),
(-8,558,l),
(515,558,l),
(515,441,ls),
(515,410,o),
(516,387,o),
(519,357,c),
(527,359,l),
(511,414,o),
(489,434,o),
(464,434,cs),
(436,434,o),
(408,410,o),
(382,312,c),
(373,306,l),
(342,190,o),
(322,169,o),
(299,169,cs),
(287,169,o),
(275,176,o),
(265,189,c)
);
}
);
width = 651;
},
{
anchors = (
{
name = bottom;
pos = (518,0);
},
{
name = nukta;
pos = (430,-31);
},
{
name = top_candrabindu;
pos = (592,634);
},
{
name = top_vedic;
pos = (357,634);
}
);
layerId = "F138D99C-4E28-42C5-9F3E-22494052B08F";
shapes = (
{
closed = 1;
nodes = (
(447,315,l),
(447,460,o),
(378,550,o),
(230,550,c),
(205,445,l),
(312,431,o),
(370,390,o),
(370,233,c)
);
},
{
closed = 1;
nodes = (
(167,80,o),
(191,112,o),
(191,154,cs),
(191,195,o),
(167,223,o),
(133,223,cs),
(102,223,o),
(74,198,o),
(74,160,cs),
(74,118,o),
(113,90,o),
(152,90,c),
(146,184,l),
(142,184,o),
(128,210,o),
(128,247,cs),
(128,273,o),
(135,288,o),
(151,288,cs),
(167,288,o),
(177,265,o),
(183,213,c),
(271,219,l),
(270,226,o),
(269,237,o),
(269,250,cs),
(269,269,o),
(273,278,o),
(282,278,cs),
(295,278,o),
(305,253,o),
(323,168,c),
(386,200,l),
(351,360,o),
(295,385,o),
(252,385,cs),
(204,385,o),
(178,348,o),
(178,283,c),
(250,228,l),
(234,323,o),
(204,395,o),
(118,395,cs),
(45,395,o),
(6,335,o),
(6,251,cs),
(6,162,o),
(49,80,o),
(116,80,cs)
);
},
{
closed = 1;
nodes = (
(208,106,l),
(256,65,o),
(285,54,o),
(324,54,cs),
(386,54,o),
(429,85,o),
(461,195,cs),
(486,285,o),
(492,302,o),
(505,302,cs),
(517,302,o),
(524,286,o),
(536,253,c),
(518,342,l),
(518,0,l),
(667,0,l),
(667,514,l),
(722,514,l),
(722,634,l),
(-8,634,l),
(-8,514,l),
(518,514,l),
(518,448,ls),
(518,424,o),
(519,404,o),
(521,379,c),
(526,378,l),
(514,414,o),
(492,426,o),
(470,426,cs),
(434,426,o),
(413,394,o),
(392,319,c),
(375,292,l),
(355,193,o),
(327,171,o),
(308,171,cs),
(299,171,o),
(286,175,o),
(273,191,c)
);
}
);
width = 714;
}
);
script = bengali;
subCategory = Spacing;
}
{
category = Letter;
color = 5;
glyphname = "ma-beng.side2";
layers = (
{
anchors = (
{
name = bottom;
pos = (55,-53);
},
{
name = nukta;
pos = (-110,-53);
},
{
name = top_candrabindu;
pos = (96,622);
},
{
name = top_vedic;
pos = (113,622);
}
);
background = {
anchors = (
{
name = Anchor8;
pos = (-225,622);
},
{
name = bottom;
pos = (55,0);
}
);
shapes = (
{
closed = 1;
nodes = (
(-116,622,l),
(-139,688,l),
(-192,688,l),
(-192,585,ls),
(-192,545,o),
(-190,501,o),
(-187,483,c),
(-169,472,l),
(-250,576,o),
(-322,629,o),
(-421,629,cs),
(-520,629,o),
(-593,562,o),
(-654,458,c),
(-573,392,l),
(-539,409,o),
(-511,417,o),
(-476,417,cs),
(-433,417,o),
(-410,394,o),
(-410,365,cs),
(-410,312,o),
(-472,275,o),
(-545,245,c),
(-494,172,l),
(-382,232,o),
(-330,290,o),
(-330,369,cs),
(-330,423,o),
(-368,487,o),
(-460,487,cs),
(-511,487,o),
(-552,474,o),
(-570,457,c),
(-556,465,l),
(-523,513,o),
(-484,556,o),
(-413,556,cs),
(-328,556,o),
(-264,495,o),
(-171,362,c),
(-192,425,l),
(-192,169,l),
(-115,169,l),
(-115,551,l),
(-10,551,l),
(-10,622,l)
);
},
{
closed = 1;
nodes = (
(-215,193,o),
(-271,156,o),
(-271,85,cs),
(-271,29,o),
(-233,-13,o),
(-171,-37,c),
(-136,32,l),
(-172,45,o),
(-191,58,o),
(-191,85,cs),
(-191,108,o),
(-172,123,o),
(-143,123,cs),
(-62,123,o),
(5,55,o),
(68,-30,c),
(94,37,l),
(25,128,o),
(-47,193,o),
(-151,193,cs)
);
},
{
closed = 1;
nodes = (
(-39,622,l),
(-39,551,l),
(55,551,l),
(55,172,ls),
(55,139,o),
(55,106,o),
(58,74,c),
(55,32,l),
(55,-43,l),
(132,-43,l),
(132,551,l),
(237,551,l),
(237,622,l)
);
}
);
};
layerId = UUID0;
shapes = (
{
closed = 1;
nodes = (
(132,-53,l),
(132,551,l),
(237,551,l),
(237,622,l),
(-209,622,l),
(-199,551,l),
(55,551,l),
(55,177,ls),
(55,144,o),
(55,111,o),
(58,79,c),
(55,79,l),
(55,-53,l)
);
},
{
closed = 1;
nodes = (
(92,69,l),
(46,144,o),
(-59,212,o),
(-151,212,cs),
(-219,212,o),
(-265,178,o),
(-265,121,cs),
(-265,70,o),
(-227,37,o),
(-181,37,cs),
(-121,37,o),
(-80,80,o),
(-80,173,c),
(-138,130,l),
(-31,125,o),
(58,49,o),
(87,-23,c)
);
},
{
closed = 1;
nodes = (
(-93,190,l),
(-93,277,o),
(-119,328,o),
(-157,361,c),
(-215,317,l),
(-182,291,o),
(-167,255,o),
(-167,190,c)
);
}
);
width = 227;
},
{
anchors = (
{
name = bottom;
pos = (88,0);
},
{
name = nukta;
pos = (-111,7);
},
{
name = top_candrabindu;
pos = (97,607);
},
{
name = top_vedic;
pos = (107,607);
}
);
background = {
anchors = (
{
name = Anchor8;
pos = (-150,622);
},
{
name = bottom;
pos = (130,0);
}
);
shapes = (
{
closed = 1;
nodes = (
(-91,622,l),
(-95,675,l),
(-112,675,l),
(-112,543,ls),
(-112,508,o),
(-111,471,o),
(-109,448,c),
(-87,439,l),
(-166,560,o),
(-225,629,o),
(-333,629,cs),
(-425,629,o),
(-493,559,o),
(-557,453,c),
(-530,431,l),
(-492,455,o),
(-453,471,o),
(-403,471,cs),
(-344,471,o),
(-312,441,o),
(-312,391,cs),
(-312,323,o),
(-359,280,o),
(-463,241,c),
(-455,221,l),
(-341,267,o),
(-289,313,o),
(-289,392,cs),
(-289,434,o),
(-316,494,o),
(-402,494,cs),
(-463,494,o),
(-503,472,o),
(-542,447,c),
(-537,447,l),
(-478,539,o),
(-420,607,o),
(-334,607,cs),
(-256,607,o),
(-205,579,o),
(-91,413,c),
(-112,448,l),
(-112,162,l),
(-91,161,l),
(-91,600,l),
(25,600,l),
(25,622,l)
);
},
{
closed = 1;
nodes = (
(-146,173,o),
(-190,142,o),
(-190,85,cs),
(-190,39,o),
(-161,6,o),
(-101,-18,c),
(-93,2,l),
(-143,23,o),
(-168,44,o),
(-168,85,cs),
(-168,127,o),
(-142,150,o),
(-92,150,cs),
(-17,150,o),
(48,103,o),
(124,-4,c),
(128,25,l),
(68,111,o),
(-3,173,o),
(-91,173,cs)
);
},
{
closed = 1;
nodes = (
(-1,622,l),
(-1,600,l),
(110,600,l),
(110,105,ls),
(110,85,o),
(110,59,o),
(112,28,c),
(110,17,l),
(110,-43,l),
(131,-43,l),
(131,600,l),
(247,600,l),
(247,622,l)
);
}
);
};
layerId = "28FB090A-653E-4199-B7BE-FAE23D31B682";
shapes = (
{
closed = 1;
nodes = (
(109,0,l),
(109,586,l),
(225,586,l),
(225,607,l),
(-268,607,l),
(-258,586,l),
(88,586,l),
(88,158,ls),
(88,138,o),
(88,112,o),
(90,81,c),
(88,81,l),
(88,0,l)
);
},
{
closed = 1;
nodes = (
(106,50,l),
(72,151,o),
(-65,212,o),
(-154,212,cs),
(-207,212,o),
(-225,189,o),
(-225,165,cs),
(-225,136,o),
(-200,120,o),
(-171,120,cs),
(-136,120,o),
(-109,142,o),
(-102,198,c),
(-155,191,l),
(-72,191,o),
(53,142,o),
(104,26,c)
);
},
{
closed = 1;
nodes = (
(-101,203,l),
(-101,272,o),
(-118,322,o),
(-135,348,c),
(-156,339,l),
(-136,310,o),
(-123,271,o),
(-123,203,c)
);
}
);
width = 215;
},
{
anchors = (
{
name = bottom;
pos = (35,-108);
},
{
name = nukta;
pos = (-127,-156);
},
{
name = top_candrabindu;
pos = (123,635);
},
{
name = top_vedic;
pos = (131,635);
}
);
background = {
shapes = (
{
closed = 1;
nodes = (
(198,-70,l),
(198,435,l),
(276,435,l),
(276,565,l),
(-376,565,l),
(-376,435,l),
(34,435,l),
(34,250,ls),
(34,223,o),
(35,183,o),
(38,153,c),
(53,141,l),
(3,226,o),
(-77,254,o),
(-176,254,cs),
(-247,254,o),
(-305,207,o),
(-305,140,cs),
(-305,70,o),
(-252,26,o),
(-185,26,cs),
(-111,26,o),
(-55,75,o),
(-55,197,cs),
(-55,335,o),
(-117,465,o),
(-283,465,c),
(-323,475,l),
(-349,364,l),
(-249,356,o),
(-201,300,o),
(-201,229,cs),
(-201,205,o),
(-205,185,o),
(-211,171,c),
(-129,101,l),
(-40,98,o),
(23,59,o),
(53,-24,c),
(34,48,l),
(34,-70,l)
);
}
);
};
layerId = "F455777D-7EDD-47E2-866A-D8A5173CE243";
shapes = (
{
closed = 1;
nodes = (
(199,-108,l),
(199,505,l),
(272,505,l),
(272,635,l),
(-246,635,l),
(-216,505,l),
(37,505,l),
(37,174,ls),
(37,140,o),
(37,108,o),
(40,75,c),
(35,76,l),
(35,-108,l)
);
},
{
closed = 1;
nodes = (
(68,56,l),
(18,131,o),
(-67,179,o),
(-164,179,cs),
(-253,179,o),
(-311,137,o),
(-311,61,cs),
(-311,-7,o),
(-260,-53,o),
(-189,-53,cs),
(-111,-53,o),
(-65,-5,o),
(-65,82,c),
(-119,31,l),
(-40,28,o),
(38,-16,o),
(68,-89,c)
);
},
{
closed = 1;
nodes = (
(-62,133,l),
(-62,216,o),
(-97,287,o),
(-130,321,c),
(-282,280,l),
(-222,253,o),
(-204,196,o),
(-204,133,c)
);
}
);
width = 262;
},
{
anchors = (
{
name = bottom;
pos = (64,1);
},
{
name = nukta;
pos = (-71,8);
},
{
name = top_candrabindu;
pos = (74,607);
},
{
name = top_vedic;
pos = (78,607);
}
);
annotations = (
{
pos = (2823.903,545.137);
type = Text;
}
);
layerId = "ADAF9463-560A-4353-9B5A-2FAD12EBF6B5";
shapes = (
{
closed = 1;
nodes = (
(84,1,l),
(84,589,l),
(164,589,l),
(164,607,l),
(-177,607,l),
(-170,589,l),
(65,589,l),
(65,158,ls),
(65,138,o),
(65,112,o),
(67,81,c),
(64,81,l),
(64,1,l)
);
},
{
closed = 1;
nodes = (
(79,50,l),
(58,145,o),
(-32,212,o),
(-96,212,cs),
(-133,212,o),
(-148,189,o),
(-148,165,cs),
(-148,137,o),
(-129,121,o),
(-107,121,cs),
(-83,121,o),
(-62,141,o),
(-58,199,c),
(-94,192,l),
(-40,191,o),
(40,141,o),
(77,27,c)
);
},
{
closed = 1;
nodes = (
(-58,203,l),
(-58,268,o),
(-70,318,o),
(-82,344,c),
(-101,336,l),
(-86,307,o),
(-77,267,o),
(-77,203,c)
);
}
);
width = 156;
},
{
anchors = (
{
name = bottom;
pos = (39,-45);
},
{
name = nukta;
pos = (-85,-44);
},
{
name = top_candrabindu;
pos = (77,621);
},
{
name = top_vedic;
pos = (87,621);
}
);
layerId = "D7742CE6-1B18-47A0-AEB5-463D77EA217C";
shapes = (
{
closed = 1;
nodes = (
(110,-45,l),
(110,558,l),
(184,558,l),
(184,621,l),
(-165,621,l),
(-154,558,l),
(40,558,l),
(40,174,ls),
(40,143,o),
(40,111,o),
(42,79,c),
(39,79,l),
(39,-45,l)
);
},
{
closed = 1;
nodes = (
(65,66,l),
(31,147,o),
(-47,212,o),
(-114,212,cs),
(-168,212,o),
(-203,180,o),
(-203,128,cs),
(-203,80,o),
(-173,50,o),
(-134,50,cs),
(-88,50,o),
(-57,89,o),
(-57,177,c),
(-99,139,l),
(-26,134,o),
(39,62,o),
(62,-16,c)
);
},
{
closed = 1;
nodes = (
(-63,192,l),
(-63,276,o),
(-84,327,o),
(-109,359,c),
(-169,320,l),
(-140,294,o),
(-128,257,o),
(-128,192,c)
);
}
);
width = 176;
},
{
anchors = (
{
name = bottom;
pos = (21,-98);
},
{
name = nukta;
pos = (-103,-138);
},
{
name = top_candrabindu;
pos = (102,634);
},
{
name = top_vedic;
pos = (109,634);
}
);
layerId = "F138D99C-4E28-42C5-9F3E-22494052B08F";
shapes = (
{
closed = 1;
nodes = (
(170,-98,l),
(170,514,l),
(227,514,l),
(227,634,l),
(-200,634,l),
(-172,514,l),
(23,514,l),
(23,174,ls),
(23,140,o),
(23,108,o),
(25,75,c),
(21,76,l),
(21,-98,l)
);
},
{
closed = 1;
nodes = (
(45,58,l),
(5,135,o),
(-55,185,o),
(-130,185,cs),
(-205,185,o),
(-253,145,o),
(-253,72,cs),
(-253,7,o),
(-210,-37,o),
(-148,-37,cs),
(-82,-37,o),
(-46,10,o),
(-46,98,c),
(-86,48,l),
(-33,45,o),
(23,-5,o),
(46,-78,c)
);
},
{
closed = 1;
nodes = (
(-39,143,l),
(-39,227,o),
(-64,289,o),
(-91,329,c),
(-222,286,l),
(-187,259,o),
(-163,206,o),
(-163,143,c)
);
}
);
width = 219;
}
);
script = bengali;
subCategory = Spacing;
}
{
category = Mark;
color = 5;
glyphname = "n-beng.float";
layers = (
{
anchors = (
{
name = _bottomMainForm;
pos = (393,284);
}
);
background = {
anchors = (
{
name = Anchor8;
pos = (268,622);
},
{
name = bottom;
pos = (398,0);
},
{
name = nukta;
pos = (209,50);
},
{
name = top_candrabindu;
pos = (430,622);
}
);
shapes = (
{
closed = 1;
nodes = (
(475,0,l),
(475,551,l),
(580,551,l),
(580,622,l),
(-44,622,l),
(-44,551,l),
(398,551,l),
(398,361,ls),
(398,330,o),
(399,300,o),
(403,270,c),
(417,274,l),
(360,362,o),
(275,428,o),
(158,428,cs),
(77,428,o),
(18,388,o),
(18,312,cs),
(18,257,o),
(54,214,o),
(114,214,cs),
(167,214,o),
(199,246,o),
(199,296,cs),
(199,347,o),
(172,376,o),
(116,376,cs),
(60,376,o),
(42,334,o),
(42,297,c),
(104,297,l),
(104,336,o),
(123,356,o),
(172,356,cs),
(260,356,o),
(358,285,o),
(414,177,c),
(398,233,l),
(398,0,l)
);
}
);
};
guides = (
{
angle = 270;
pos = (393,483);
}
);
layerId = UUID0;
shapes = (
{
closed = 1;
nodes = (
(412,234,l),
(412,312,l),
(357,394,o),
(280,458,o),
(179,458,cs),
(110,458,o),
(57,421,o),
(57,352,cs),
(57,302,o),
(92,261,o),
(147,261,cs),
(194,261,o),
(228,292,o),
(228,342,cs),
(228,386,o),
(201,411,o),
(150,411,cs),
(99,411,o),
(81,366,o),
(81,334,c),
(138,334,l),
(138,368,o),
(157,386,o),
(199,386,cs),
(270,386,o),
(352,318,o),
(393,234,c)
);
}
);
width = 570;
},
{
anchors = (
{
name = bottom;
pos = (432,0);
},
{
name = top_vedic;
pos = (302,622);
}
);
associatedMasterId = UUID0;
background = {
anchors = (
{
name = Anchor6;
pos = (432,0);
},
{
name = Anchor8;
pos = (302,622);
}
);
shapes = (
{
closed = 1;
nodes = (
(-10,622,l),
(-10,551,l),
(432,551,l),
(432,371,ls),
(432,340,o),
(433,310,o),
(437,280,c),
(451,284,l),
(382,365,o),
(307,423,o),
(204,423,cs),
(128,423,o),
(46,375,o),
(46,277,cs),
(46,205,o),
(94,146,o),
(176,113,c),
(214,184,l),
(155,207,o),
(128,234,o),
(128,274,cs),
(128,325,o),
(167,351,o),
(216,351,cs),
(294,351,o),
(381,278,o),
(448,187,c),
(432,243,l),
(432,0,l),
(509,0,l),
(509,551,l),
(614,551,l),
(614,622,l)
);
}
);
};
layerId = "A4C84087-225D-49D5-93A2-84D006A0F643";
name = "7 May 24 at 12:35";
shapes = (
{
closed = 1;
nodes = (
(-10,622,l),
(-10,551,l),
(432,551,l),
(432,371,ls),
(432,340,o),
(433,310,o),
(437,280,c),
(451,284,l),
(382,365,o),
(307,423,o),
(204,423,cs),
(128,423,o),
(46,375,o),
(46,277,cs),
(46,205,o),
(94,146,o),
(176,113,c),
(214,184,l),
(155,207,o),
(128,234,o),
(128,274,cs),
(128,325,o),
(167,351,o),
(216,351,cs),
(294,351,o),
(381,278,o),
(448,187,c),
(432,243,l),
(432,0,l),
(509,0,l),
(509,551,l),
(614,551,l),
(614,622,l)
);
}
);
width = 604;
},
{
anchors = (
{
name = _bottomMainForm;
pos = (379,300);
}
);
background = {
shapes = (
{
closed = 1;
nodes = (
(397,286,l),
(397,607,l),
(-10,607,l),
(-10,586,l),
(379,586,l),
(379,390,ls),
(379,370,o),
(379,332,o),
(381,304,c),
(389,296,l),
(354,398,o),
(258,473,o),
(161,473,cs),
(102,473,o),
(77,442,o),
(77,404,cs),
(77,376,o),
(97,350,o),
(131,350,cs),
(163,350,o),
(180,372,o),
(180,399,cs),
(180,426,o),
(157,445,o),
(130,445,cs),
(105,445,o),
(85,418,o),
(85,400,c),
(99,405,l),
(99,441,o),
(131,452,o),
(164,452,cs),
(249,452,o),
(336,389,o),
(379,273,c)
);
}
);
};
layerId = "28FB090A-653E-4199-B7BE-FAE23D31B682";
shapes = (
{
closed = 1;
nodes = (
(388,275,l),
(388,295,l),
(361,397,o),
(262,473,o),
(163,473,cs),
(100,473,o),
(73,442,o),
(73,406,cs),
(73,376,o),
(93,350,o),
(127,350,cs),
(158,350,o),
(176,372,o),
(176,399,cs),
(176,426,o),
(155,445,o),
(125,445,cs),
(99,445,o),
(81,418,o),
(81,400,c),
(95,405,l),
(95,441,o),
(125,452,o),
(165,452,cs),
(250,452,o),
(341,389,o),
(380,275,c)
);
}
);
width = 506;
},
{
anchors = (
{
name = _bottomMainForm;
pos = (367,300);
}
);
background = {
anchors = (
{
name = Anchor8;
pos = (281,635);
},
{
name = bottom;
pos = (367,0);
},
{
name = nukta;
pos = (181,14);
},
{
name = top_candrabindu;
pos = (437,635);
}
);
shapes = (
{
closed = 1;
nodes = (
(530,0,l),
(530,505,l),
(609,505,l),
(609,635,l),
(-46,635,l),
(-46,505,l),
(367,505,l),
(367,394,ls),
(367,366,o),
(368,326,o),
(371,279,c),
(404,263,l),
(364,358,o),
(269,435,o),
(143,435,cs),
(47,435,o),
(-17,378,o),
(-17,292,cs),
(-17,223,o),
(31,163,o),
(110,163,cs),
(183,163,o),
(224,218,o),
(224,278,cs),
(224,346,o),
(182,385,o),
(110,385,cs),
(30,385,o),
(7,329,o),
(7,264,c),
(150,253,l),
(150,272,o),
(164,281,o),
(187,281,cs),
(260,281,o),
(335,231,o),
(388,118,c),
(367,191,l),
(367,0,l)
);
}
);
};
guides = (
{
angle = 270;
pos = (367,462);
}
);
layerId = "F455777D-7EDD-47E2-866A-D8A5173CE243";
shapes = (
{
closed = 1;
nodes = (
(394,229,l),
(414,327,l),
(354,409,o),
(261,470,o),
(168,470,cs),
(81,470,o),
(19,419,o),
(19,339,cs),
(19,274,o),
(67,221,o),
(137,221,cs),
(203,221,o),
(244,276,o),
(244,327,cs),
(244,391,o),
(202,430,o),
(135,430,cs),
(63,430,o),
(43,364,o),
(43,299,c),
(176,299,l),
(176,311,o),
(190,316,o),
(220,316,cs),
(280,316,o),
(340,268,o),
(368,229,c)
);
}
);
width = 600;
},
{
anchors = (
{
name = _bottomMainForm;
pos = (264,300);
}
);
background = {
shapes = (
{
closed = 1;
nodes = (
(296,76,l),
(296,665,l),
(376,665,l),
(376,683,l),
(-28,683,l),
(-28,665,l),
(276,665,l),
(276,370,ls),
(276,352,o),
(276,313,o),
(278,284,c),
(290,257,l),
(260,394,o),
(182,478,o),
(101,478,cs),
(56,478,o),
(31,448,o),
(31,404,cs),
(31,369,o),
(47,343,o),
(74,343,cs),
(102,343,o),
(114,366,o),
(114,397,cs),
(114,432,o),
(98,450,o),
(73,450,cs),
(51,450,o),
(37,424,o),
(37,399,c),
(53,405,l),
(53,447,o),
(77,459,o),
(103,459,cs),
(169,459,o),
(248,389,o),
(282,231,c),
(276,279,l),
(276,76,l)
);
}
);
};
layerId = "ADAF9463-560A-4353-9B5A-2FAD12EBF6B5";
shapes = (
{
closed = 1;
nodes = (
(271,268,l),
(271,300,l),
(251,398,o),
(183,468,o),
(115,468,cs),
(70,468,o),
(50,437,o),
(50,400,cs),
(50,368,o),
(65,345,o),
(90,345,cs),
(113,345,o),
(126,365,o),
(126,395,cs),
(126,421,o),
(112,440,o),
(88,440,cs),
(69,440,o),
(56,426,o),
(56,396,c),
(70,401,l),
(70,437,o),
(90,449,o),
(117,449,cs),
(177,449,o),
(237,390,o),
(264,268,c)
);
}
);
width = 356;
},
{
anchors = (
{
name = _bottomMainForm;
pos = (288,286);
}
);
layerId = "D7742CE6-1B18-47A0-AEB5-463D77EA217C";
shapes = (
{
closed = 1;
nodes = (
(302,236,l),
(306,306,l),
(274,400,o),
(203,462,o),
(130,462,cs),
(74,462,o),
(36,425,o),
(36,362,cs),
(36,312,o),
(62,274,o),
(106,274,cs),
(146,274,o),
(170,304,o),
(170,350,cs),
(170,394,o),
(148,419,o),
(111,419,cs),
(67,419,o),
(53,375,o),
(53,344,c),
(107,344,l),
(107,378,o),
(121,396,o),
(150,396,cs),
(203,396,o),
(256,326,o),
(288,236,c)
);
}
);
width = 426;
},
{
anchors = (
{
name = _bottomMainForm;
pos = (282,297);
}
);
layerId = "F138D99C-4E28-42C5-9F3E-22494052B08F";
shapes = (
{
closed = 1;
nodes = (
(304,224,l),
(325,317,l),
(284,409,o),
(216,468,o),
(129,468,cs),
(53,468,o),
(5,419,o),
(5,341,cs),
(5,277,o),
(46,229,o),
(102,229,cs),
(164,229,o),
(193,279,o),
(193,330,cs),
(193,391,o),
(156,427,o),
(101,427,cs),
(39,427,o),
(23,364,o),
(23,305,c),
(148,305,l),
(148,322,o),
(158,329,o),
(177,329,cs),
(220,329,o),
(264,277,o),
(282,224,c)
);
}
);
width = 476;
}
);
script = bengali;
subCategory = Nonspacing;
}
{
category = Letter;
color = 5;
glyphname = "n-beng.half2";
layers = (
{
anchors = (
{
name = bottomVattu;
pos = (409,267);
},
{
name = top_candrabindu;
pos = (427,622);
},
{
name = top_vedic;
pos = (306,622);
}
);
background = {
shapes = (
{
closed = 1;
nodes = (
(490,300,o),
(539,350,o),
(539,442,cs),
(539,502,o),
(515,553,o),
(471,591,c),
(392,577,l),
(432,542,o),
(462,493,o),
(462,442,cs),
(462,392,o),
(436,371,o),
(388,371,cs),
(346,371,o),
(311,385,o),
(267,418,cs),
(234,443,o),
(186,476,o),
(135,476,cs),
(78,476,o),
(44,445,o),
(44,400,cs),
(44,356,o),
(78,323,o),
(128,323,cs),
(178,323,o),
(226,359,o),
(226,435,cs),
(226,513,o),
(201,575,o),
(75,617,c),
(46,556,l),
(119,540,o),
(147,502,o),
(147,470,cs),
(147,440,o),
(139,426,o),
(126,421,c),
(125,405,l),
(157,405,o),
(188,390,o),
(223,365,cs),
(286,320,o),
(322,300,o),
(395,300,cs)
);
},
{
closed = 1;
nodes = (
(606,551,l),
(606,622,l),
(-40,622,l),
(-40,551,l)
);
}
);
};
layerId = UUID0;
shapes = (
{
closed = 1;
nodes = (
(495,300,o),
(543,350,o),
(543,442,cs),
(543,502,o),
(518,554,o),
(475,591,c),
(396,577,l),
(436,542,o),
(466,493,o),
(466,442,cs),
(466,392,o),
(440,371,o),
(403,371,cs),
(370,371,o),
(340,385,o),
(294,429,cs),
(247,474,o),
(207,500,o),
(148,500,cs),
(78,500,o),
(41,460,o),
(41,406,cs),
(41,358,o),
(77,322,o),
(127,322,cs),
(178,322,o),
(202,360,o),
(202,403,cs),
(202,439,o),
(175,467,o),
(132,467,c),
(157,427,l),
(192,427,o),
(207,411,o),
(248,372,cs),
(296,327,o),
(349,300,o),
(404,300,cs)
);
},
{
closed = 1;
nodes = (
(623,551,l),
(623,622,l),
(-10,622,l),
(-10,551,l)
);
}
);
width = 613;
},
{
anchors = (
{
name = bottomVattu;
pos = (427,257);
},
{
name = top_candrabindu;
pos = (397,607);
},
{
name = top_vedic;
pos = (291,607);
}
);
background = {
anchors = (
{
name = bottomVattu;
pos = (422,257);
},
{
name = top_candrabindu;
pos = (417,607);
},
{
name = top_vedic;
pos = (289,607);
}
);
shapes = (
{
closed = 1;
nodes = (
(484,317,o),
(514,363,o),
(514,439,cs),
(514,512,o),
(484,559,o),
(446,598,c),
(420,598,l),
(466,552,o),
(493,512,o),
(493,443,cs),
(493,370,o),
(465,338,o),
(392,338,cs),
(336,338,o),
(295,365,o),
(259,390,cs),
(215,421,o),
(184,440,o),
(127,440,cs),
(92,440,o),
(72,422,o),
(72,399,cs),
(72,373,o),
(94,357,o),
(121,357,cs),
(155,357,o),
(192,379,o),
(192,459,cs),
(192,565,o),
(122,594,o),
(72,605,c),
(72,590,l),
(113,581,o),
(171,546,o),
(171,466,cs),
(171,443,o),
(169,435,o),
(167,426,c),
(166,411,l),
(189,409,o),
(218,393,o),
(245,374,cs),
(288,343,o),
(334,317,o),
(394,317,cs)
);
},
{
closed = 1;
nodes = (
(593,586,l),
(593,607,l),
(-40,607,l),
(-40,586,l)
);
}
);
};
layerId = "28FB090A-653E-4199-B7BE-FAE23D31B682";
shapes = (
{
closed = 1;
nodes = (
(454,317,o),
(493,353,o),
(493,435,cs),
(493,507,o),
(461,563,o),
(426,598,c),
(399,598,l),
(445,552,o),
(472,505,o),
(472,439,cs),
(472,360,o),
(435,338,o),
(383,338,cs),
(346,338,o),
(312,354,o),
(263,406,cs),
(219,452,o),
(187,478,o),
(139,478,cs),
(102,478,o),
(82,456,o),
(82,430,cs),
(82,401,o),
(104,384,o),
(130,384,cs),
(156,384,o),
(175,402,o),
(176,430,cs),
(177,453,o),
(160,472,o),
(133,472,c),
(139,457,l),
(178,457,o),
(201,439,o),
(245,393,cs),
(299,337,o),
(339,317,o),
(386,317,cs)
);
},
{
closed = 1;
nodes = (
(592,586,l),
(592,607,l),
(-10,607,l),
(-10,586,l)
);
}
);
width = 582;
},
{
anchors = (
{
name = bottomVattu;
pos = (417,243);
},
{
name = top_candrabindu;
pos = (447,635);
},
{
name = top_vedic;
pos = (330,635);
}
);
background = {
shapes = (
{
closed = 1;
nodes = (
(562,246,o),
(611,320,o),
(611,411,cs),
(611,477,o),
(578,528,o),
(546,558,c),
(379,541,l),
(418,516,o),
(447,480,o),
(447,434,cs),
(447,396,o),
(433,376,o),
(401,376,cs),
(381,376,o),
(355,386,o),
(314,416,cs),
(259,457,o),
(221,474,o),
(174,474,cs),
(98,474,o),
(55,432,o),
(55,373,cs),
(55,317,o),
(98,273,o),
(165,273,cs),
(229,273,o),
(286,322,o),
(286,417,cs),
(286,477,o),
(252,531,o),
(170,566,c),
(33,529,l),
(100,515,o),
(141,485,o),
(141,431,cs),
(141,407,o),
(137,387,o),
(131,373,c),
(175,353,l),
(218,353,o),
(233,343,o),
(265,319,cs),
(335,266,o),
(379,246,o),
(447,246,cs)
);
},
{
closed = 1;
nodes = (
(671,505,l),
(671,635,l),
(-32,635,l),
(-32,505,l)
);
}
);
};
layerId = "F455777D-7EDD-47E2-866A-D8A5173CE243";
shapes = (
{
closed = 1;
nodes = (
(562,246,o),
(611,320,o),
(611,411,cs),
(611,477,o),
(578,528,o),
(546,558,c),
(379,541,l),
(418,516,o),
(447,480,o),
(447,434,cs),
(447,396,o),
(434,376,o),
(403,376,cs),
(380,376,o),
(360,386,o),
(319,419,cs),
(268,460,o),
(228,487,o),
(165,487,cs),
(85,487,o),
(38,434,o),
(38,367,cs),
(38,304,o),
(85,254,o),
(154,254,cs),
(215,254,o),
(255,299,o),
(255,350,cs),
(255,407,o),
(209,442,o),
(154,442,c),
(199,356,l),
(219,356,o),
(236,345,o),
(266,318,cs),
(316,273,o),
(371,246,o),
(440,246,cs)
);
},
{
closed = 1;
nodes = (
(671,505,l),
(671,635,l),
(-10,635,l),
(-10,505,l)
);
}
);
width = 661;
},
{
anchors = (
{
name = bottomVattu;
pos = (299,257);
},
{
name = top_candrabindu;
pos = (281,607);
},
{
name = top_vedic;
pos = (205,607);
}
);
background = {
shapes = (
{
closed = 1;
nodes = (
(322,317,o),
(349,354,o),
(349,430,cs),
(349,494,o),
(329,552,o),
(303,589,c),
(280,589,l),
(311,544,o),
(331,496,o),
(331,434,cs),
(331,359,o),
(306,337,o),
(271,337,cs),
(245,337,o),
(223,353,o),
(186,409,cs),
(158,451,o),
(134,474,o),
(101,474,cs),
(71,474,o),
(57,452,o),
(57,428,cs),
(57,398,o),
(73,381,o),
(93,381,cs),
(110,381,o),
(128,391,o),
(128,425,cs),
(128,459,o),
(108,469,o),
(96,469,c),
(102,454,l),
(129,454,o),
(145,438,o),
(172,397,cs),
(212,336,o),
(240,317,o),
(273,317,cs)
);
},
{
closed = 1;
nodes = (
(417,579,l),
(417,597,l),
(-63,597,l),
(-63,579,l)
);
}
);
};
guides = (
{
angle = -56.5346;
pos = (187,407);
}
);
layerId = "ADAF9463-560A-4353-9B5A-2FAD12EBF6B5";
shapes = (
{
closed = 1;
nodes = (
(322,317,o),
(350,352,o),
(350,435,cs),
(350,506,o),
(326,565,o),
(301,599,c),
(279,599,l),
(310,556,o),
(331,503,o),
(331,439,cs),
(331,360,o),
(306,337,o),
(271,337,cs),
(246,337,o),
(223,353,o),
(187,407,cs),
(157,452,o),
(135,477,o),
(101,477,cs),
(73,477,o),
(58,455,o),
(58,431,cs),
(58,401,o),
(74,384,o),
(94,384,cs),
(111,384,o),
(129,395,o),
(129,428,cs),
(129,461,o),
(108,472,o),
(96,472,c),
(102,458,l),
(127,458,o),
(141,442,o),
(170,398,cs),
(209,339,o),
(239,317,o),
(273,317,cs)
);
},
{
closed = 1;
nodes = (
(418,589,l),
(418,607,l),
(-8,607,l),
(-8,589,l)
);
}
);
width = 410;
},
{
anchors = (
{
name = bottomVattu;
pos = (312,265);
},
{
name = top_candrabindu;
pos = (325,621);
},
{
name = top_vedic;
pos = (233,621);
}
);
layerId = "D7742CE6-1B18-47A0-AEB5-463D77EA217C";
shapes = (
{
closed = 1;
nodes = (
(386,301,o),
(419,351,o),
(419,438,cs),
(419,504,o),
(397,556,o),
(375,593,c),
(297,581,l),
(326,545,o),
(348,498,o),
(348,443,cs),
(348,388,o),
(332,367,o),
(299,367,cs),
(281,367,o),
(260,380,o),
(229,422,cs),
(190,472,o),
(160,496,o),
(114,496,cs),
(66,496,o),
(37,460,o),
(37,414,cs),
(37,364,o),
(66,331,o),
(105,331,cs),
(147,331,o),
(167,366,o),
(167,407,cs),
(167,441,o),
(140,467,o),
(107,467,c),
(120,431,l),
(146,431,o),
(160,417,o),
(188,381,cs),
(229,327,o),
(268,301,o),
(310,301,cs)
);
},
{
closed = 1;
nodes = (
(476,558,l),
(476,621,l),
(-8,621,l),
(-8,558,l)
);
}
);
width = 468;
},
{
anchors = (
{
name = bottomVattu;
pos = (323,247);
},
{
name = top_candrabindu;
pos = (350,634);
},
{
name = top_vedic;
pos = (265,634);
}
);
layerId = "F138D99C-4E28-42C5-9F3E-22494052B08F";
shapes = (
{
closed = 1;
nodes = (
(452,253,o),
(489,319,o),
(489,413,cs),
(489,471,o),
(464,531,o),
(441,565,c),
(287,548,l),
(315,523,o),
(338,475,o),
(338,423,cs),
(338,395,o),
(330,375,o),
(309,375,cs),
(295,375,o),
(281,387,o),
(251,419,cs),
(214,459,o),
(180,489,o),
(129,489,cs),
(66,489,o),
(28,443,o),
(28,380,cs),
(28,314,o),
(68,266,o),
(126,266,cs),
(177,266,o),
(212,310,o),
(212,359,cs),
(212,412,o),
(171,447,o),
(125,447,c),
(163,368,l),
(173,368,o),
(185,358,o),
(208,330,cs),
(246,281,o),
(294,253,o),
(348,253,cs)
);
},
{
closed = 1;
nodes = (
(539,514,l),
(539,634,l),
(-8,634,l),
(-8,514,l)
);
}
);
width = 531;
}
);
script = bengali;
subCategory = Spacing;
}
{
category = Letter;
color = 10;
export = 0;
glyphname = "n_dha-beng";
layers = (
{
background = {
anchors = (
{
name = Anchor8;
pos = (387,622);
},
{
name = bottom;
pos = (440,0);
},
{
name = top_candrabindu;
pos = (440,622);
}
);
shapes = (
{
closed = 1;
nodes = (
(440,579,l),
(440,330,l),
(460,375,l),
(354,335,o),
(232,277,o),
(145,225,c),
(182,137,l),
(280,117,o),
(350,94,o),
(440,0,c),
(517,0,l),
(517,580,l)
);
},
{
closed = 1;
nodes = (
(440,172,ls),
(440,152,o),
(442,112,o),
(444,86,c),
(379,147,o),
(301,180,o),
(210,200,c),
(218,185,l),
(276,220,o),
(375,267,o),
(460,301,c),
(440,326,l)
);
},
{
closed = 1;
nodes = (
(784,551,l),
(784,622,l),
(-10,622,l),
(-10,551,l)
);
},
{
closed = 1;
nodes = (
(114,511,o),
(46,472,o),
(46,393,cs),
(46,346,o),
(70,303,o),
(121,270,c),
(168,332,l),
(141,348,o),
(128,368,o),
(128,389,cs),
(128,422,o),
(156,438,o),
(193,438,cs),
(262,438,o),
(332,390,o),
(399,303,c),
(442,363,l),
(360,454,o),
(281,511,o),
(184,511,cs)
);
},
{
closed = 1;
nodes = (
(694,280,o),
(705,336,o),
(731,395,c),
(676,451,l),
(604,430,o),
(528,400,o),
(471,377,c),
(480,307,l),
(539,331,o),
(596,354,o),
(655,373,c),
(648,385,l),
(626,328,o),
(620,276,o),
(620,228,cs),
(620,175,o),
(631,110,o),
(652,51,c),
(721,68,l),
(702,123,o),
(694,177,o),
(694,224,cs)
);
}
);
};
layerId = UUID0;
shapes = (
{
alignment = -1;
ref = "n-beng.headline";
},
{
pos = (291,0);
ref = "aaMatra-beng.part";
},
{
pos = (-7,7);
ref = "n-beng.float";
},
{
pos = (96,45);
ref = "baphala-beng.alt4";
},
{
pos = (421,18);
ref = "dha-beng.part";
},
{
pos = (555,0);
ref = "headline-beng.130";
}
);
width = 670;
},
{
background = {
anchors = (
{
name = Anchor8;
pos = (370,622);
},
{
name = bottom;
pos = (437,0);
},
{
name = top_candrabindu;
pos = (437,622);
}
);
shapes = (
{
closed = 1;
nodes = (
(434,614,l),
(434,351,l),
(439,358,l),
(351,319,o),
(243,265,o),
(144,202,c),
(156,173,l),
(265,150,o),
(346,111,o),
(434,0,c),
(455,0,l),
(455,620,l)
);
},
{
closed = 1;
nodes = (
(434,144,ls),
(434,89,o),
(435,57,o),
(437,30,c),
(363,117,o),
(284,167,o),
(160,195,c),
(163,189,l),
(269,253,o),
(362,301,o),
(447,339,c),
(434,343,l)
);
},
{
closed = 1;
nodes = (
(719,600,l),
(719,622,l),
(-10,622,l),
(-10,600,l)
);
},
{
closed = 1;
nodes = (
(109,513,o),
(52,477,o),
(52,412,cs),
(52,364,o),
(71,328,o),
(133,292,c),
(142,312,l),
(99,339,o),
(74,361,o),
(74,411,cs),
(74,460,o),
(108,491,o),
(162,491,cs),
(237,491,o),
(296,457,o),
(404,334,c),
(426,342,l),
(325,453,o),
(264,513,o),
(163,513,cs)
);
},
{
closed = 1;
nodes = (
(627,315,o),
(636,362,o),
(660,424,c),
(642,443,l),
(578,418,o),
(517,393,o),
(452,363,c),
(453,341,l),
(518,371,o),
(585,400,o),
(642,421,c),
(640,428,l),
(612,363,o),
(605,300,o),
(605,243,cs),
(605,188,o),
(614,133,o),
(633,67,c),
(654,73,l),
(633,143,o),
(627,196,o),
(627,244,cs)
);
}
);
};
layerId = "28FB090A-653E-4199-B7BE-FAE23D31B682";
shapes = (
{
alignment = -1;
ref = "n-beng.headline";
},
{
pos = (292,0);
ref = "aaMatra-beng.part";
},
{
pos = (7,-12);
ref = "n-beng.float";
},
{
pos = (109,35);
ref = "baphala-beng.alt4";
},
{
pos = (383,-5);
ref = "dha-beng.part";
},
{
pos = (512,0);
ref = "headline-beng.130";
}
);
width = 604;
},
{
background = {
anchors = (
{
name = Anchor8;
pos = (438,622);
},
{
name = bottom;
pos = (432,0);
},
{
name = top_candrabindu;
pos = (432,622);
}
);
shapes = (
{
closed = 1;
nodes = (
(432,524,l),
(432,324,l),
(440,342,l),
(325,308,o),
(241,273,o),
(153,226,c),
(208,87,l),
(299,69,o),
(359,46,o),
(432,-11,c),
(594,-11,l),
(594,514,l)
);
},
{
closed = 1;
nodes = (
(437,172,ls),
(437,148,o),
(437,132,o),
(439,114,c),
(400,143,o),
(344,174,o),
(260,186,c),
(271,159,l),
(333,190,o),
(393,217,o),
(460,237,c),
(437,290,l)
);
},
{
closed = 1;
nodes = (
(887,493,l),
(887,622,l),
(-10,622,l),
(-10,493,l)
);
},
{
closed = 1;
nodes = (
(81,470,o),
(25,416,o),
(25,337,cs),
(25,278,o),
(57,236,o),
(103,204,c),
(207,295,l),
(188,307,o),
(182,316,o),
(182,328,cs),
(182,340,o),
(192,349,o),
(210,349,cs),
(271,349,o),
(333,300,o),
(399,232,c),
(472,321,l),
(393,407,o),
(302,470,o),
(188,470,cs)
);
},
{
closed = 1;
nodes = (
(815,264,o),
(827,317,o),
(847,359,c),
(752,442,l),
(672,421,o),
(598,398,o),
(531,373,c),
(546,251,l),
(608,273,o),
(691,295,o),
(789,316,c),
(716,385,l),
(679,330,o),
(660,271,o),
(660,195,cs),
(660,142,o),
(669,92,o),
(687,36,c),
(837,65,l),
(823,112,o),
(815,150,o),
(815,211,cs)
);
}
);
};
layerId = "F455777D-7EDD-47E2-866A-D8A5173CE243";
shapes = (
{
alignment = -1;
ref = "n-beng.headline";
},
{
pos = (290,0);
ref = "aaMatra-beng.part";
},
{
pos = (1,0);
ref = "n-beng.float";
},
{
pos = (76,40);
ref = "baphala-beng.alt4";
},
{
pos = (437,22);
ref = "dha-beng.part";
},
{
pos = (595,0);
ref = "headline-beng.130";
}
);
width = 785;
},
{
layerId = "ADAF9463-560A-4353-9B5A-2FAD12EBF6B5";
shapes = (
{
alignment = -1;
ref = "n-beng.headline";
},
{
pos = (196,0);
ref = "aaMatra-beng.part";
},
{
pos = (-5,-7);
ref = "n-beng.float";
},
{
pos = (66,32);
ref = "baphala-beng.alt4";
},
{
pos = (259,-11);
ref = "dha-beng.part";
},
{
pos = (351,0);
ref = "headline-beng.130";
}
);
width = 424;
},
{
layerId = "D7742CE6-1B18-47A0-AEB5-463D77EA217C";
shapes = (
{
alignment = -1;
ref = "n-beng.headline";
},
{
pos = (221,0);
ref = "aaMatra-beng.part";
},
{
pos = (-1,5);
ref = "n-beng.float";
},
{
pos = (71,44);
ref = "baphala-beng.alt4";
},
{
pos = (318,14);
ref = "dha-beng.part";
},
{
pos = (423,0);
ref = "headline-beng.130";
}
);
width = 530;
},
{
layerId = "F138D99C-4E28-42C5-9F3E-22494052B08F";
shapes = (
{
alignment = -1;
ref = "n-beng.headline";
},
{
pos = (244,0);
ref = "aaMatra-beng.part";
},
{
pos = (5,1);
ref = "n-beng.float";
},
{
pos = (59,51);
ref = "baphala-beng.alt4";
},
{
pos = (347,31);
ref = "dha-beng.part";
},
{
pos = (483,0);
ref = "headline-beng.130";
}
);
width = 651;
}
);
script = bengali;
subCategory = Spacing;
}
{
category = Letter;
color = 10;
export = 0;
glyphname = "n_th_ra-beng";
layers = (
{
background = {
anchors = (
{
name = Anchor8;
pos = (307,622);
},
{
name = top_candrabindu;
pos = (356,622);
}
);
shapes = (
{
closed = 1;
nodes = (
(496,305,o),
(545,352,o),
(545,442,cs),
(545,508,o),
(509,562,o),
(477,591,c),
(398,575,l),
(437,540,o),
(468,492,o),
(468,442,cs),
(468,392,o),
(440,371,o),
(398,371,cs),
(357,371,o),
(333,387,o),
(286,429,cs),
(243,467,o),
(210,489,o),
(155,489,cs),
(102,489,o),
(42,454,o),
(42,380,cs),
(42,328,o),
(71,289,o),
(111,253,c),
(166,308,l),
(140,332,o),
(124,351,o),
(124,375,cs),
(124,403,o),
(145,417,o),
(167,417,cs),
(188,417,o),
(202,407,o),
(235,377,cs),
(294,323,o),
(331,305,o),
(398,305,cs)
);
},
{
closed = 1;
nodes = (
(-10,622,l),
(-10,551,l),
(625,551,l),
(625,622,l)
);
},
{
closed = 1;
nodes = (
(262,319,o),
(201,280,o),
(201,213,cs),
(201,196,o),
(206,174,o),
(212,156,c),
(287,169,l),
(283,177,o),
(280,189,o),
(280,200,cs),
(280,234,o),
(300,255,o),
(359,255,cs),
(426,255,o),
(470,224,o),
(470,168,cs),
(470,115,o),
(429,81,o),
(320,81,cs),
(271,81,o),
(234,87,o),
(190,100,c),
(177,30,l),
(321,5,o),
(435,-32,o),
(562,-117,c),
(598,-60,l),
(522,-14,o),
(435,26,o),
(364,43,c),
(361,18,l),
(477,32,o),
(547,78,o),
(547,169,cs),
(547,235,o),
(495,319,o),
(350,319,cs)
);
},
{
closed = 1;
nodes = (
(516,-150,ls),
(516,-106,o),
(513,-56,o),
(508,-26,c),
(441,-24,l),
(439,-44,o),
(439,-65,o),
(439,-85,c),
(439,-137,l),
(406,-100,o),
(375,-85,o),
(337,-85,cs),
(287,-85,o),
(253,-102,o),
(200,-102,cs),
(148,-102,o),
(114,-83,o),
(114,-16,cs),
(114,2,o),
(117,21,o),
(122,38,c),
(45,47,l),
(40,29,o),
(36,8,o),
(36,-19,cs),
(36,-141,o),
(119,-174,o),
(193,-174,cs),
(250,-174,o),
(287,-157,o),
(339,-157,cs),
(397,-157,o),
(427,-188,o),
(441,-244,c),
(516,-244,l)
);
}
);
};
layerId = UUID0;
shapes = (
{
ref = "n-beng.half2";
},
{
pos = (118,-146);
ref = "tha-beng.blws";
},
{
pos = (16,-272);
ref = "raphala-beng.alt07";
}
);
width = 613;
},
{
background = {
anchors = (
{
name = Anchor8;
pos = (295,622);
},
{
name = top_candrabindu;
pos = (354,622);
}
);
shapes = (
{
closed = 1;
nodes = (
(451,346,o),
(484,393,o),
(484,464,cs),
(484,529,o),
(439,587,o),
(404,620,c),
(382,613,l),
(423,572,o),
(462,521,o),
(462,464,cs),
(462,397,o),
(436,369,o),
(374,369,cs),
(323,369,o),
(293,388,o),
(250,429,cs),
(211,467,o),
(178,495,o),
(132,495,cs),
(88,495,o),
(49,460,o),
(49,407,cs),
(49,357,o),
(77,321,o),
(112,293,c),
(126,308,l),
(90,338,o),
(71,370,o),
(71,408,cs),
(71,444,o),
(94,473,o),
(131,473,cs),
(168,473,o),
(193,454,o),
(231,418,cs),
(277,373,o),
(313,346,o),
(374,346,cs)
);
},
{
closed = 1;
nodes = (
(-10,622,l),
(-10,600,l),
(578,600,l),
(578,622,l)
);
},
{
closed = 1;
nodes = (
(244,340,o),
(196,297,o),
(196,239,cs),
(196,226,o),
(198,207,o),
(203,187,c),
(224,192,l),
(219,212,o),
(218,227,o),
(218,240,cs),
(218,280,o),
(246,317,o),
(319,317,cs),
(418,317,o),
(464,270,o),
(464,208,cs),
(464,125,o),
(413,88,o),
(289,88,cs),
(255,88,o),
(211,95,o),
(179,104,c),
(172,83,l),
(287,58,o),
(432,-7,o),
(538,-84,c),
(552,-66,l),
(462,-5,o),
(361,52,o),
(256,76,c),
(290,68,l),
(437,67,o),
(486,123,o),
(486,208,cs),
(486,278,o),
(434,340,o),
(320,340,cs)
);
},
{
closed = 1;
nodes = (
(452,-77,ls),
(452,-54,o),
(452,-34,o),
(451,-16,c),
(432,-6,l),
(431,-23,o),
(431,-41,o),
(431,-68,cs),
(431,-201,l),
(399,-139,o),
(359,-107,o),
(308,-107,cs),
(259,-107,o),
(233,-123,o),
(176,-123,cs),
(114,-123,o),
(71,-93,o),
(71,-21,cs),
(71,8,o),
(74,25,o),
(79,42,c),
(58,46,l),
(53,31,o),
(49,11,o),
(49,-20,cs),
(49,-106,o),
(105,-144,o),
(177,-144,cs),
(231,-144,o),
(261,-128,o),
(309,-128,cs),
(359,-128,o),
(392,-165,o),
(431,-244,c),
(452,-244,l)
);
}
);
};
layerId = "28FB090A-653E-4199-B7BE-FAE23D31B682";
shapes = (
{
ref = "n-beng.half2";
},
{
pos = (132,-156);
ref = "tha-beng.blws";
},
{
pos = (65,-182);
ref = "raphala-beng.alt07";
}
);
width = 582;
},
{
background = {
anchors = (
{
name = Anchor8;
pos = (365,622);
},
{
name = top_candrabindu;
pos = (412,622);
}
);
shapes = (
{
closed = 1;
nodes = (
(622,255,o),
(679,313,o),
(679,398,cs),
(679,464,o),
(645,515,o),
(613,545,c),
(447,528,l),
(485,502,o),
(515,467,o),
(515,425,cs),
(515,393,o),
(497,377,o),
(468,377,cs),
(437,377,o),
(413,389,o),
(364,416,cs),
(307,448,o),
(265,467,o),
(202,467,cs),
(129,467,o),
(53,423,o),
(53,338,cs),
(53,269,o),
(96,219,o),
(144,183,c),
(239,278,l),
(217,292,o),
(205,304,o),
(205,319,cs),
(205,332,o),
(214,341,o),
(231,341,cs),
(251,341,o),
(270,332,o),
(311,309,cs),
(379,270,o),
(443,255,o),
(499,255,cs)
);
},
{
closed = 1;
nodes = (
(-10,622,l),
(-10,493,l),
(741,493,l),
(741,622,l)
);
},
{
closed = 1;
nodes = (
(338,333,o),
(252,295,o),
(252,217,cs),
(252,197,o),
(256,172,o),
(265,156,c),
(413,172,l),
(411,177,o),
(409,184,o),
(409,194,cs),
(409,215,o),
(422,228,o),
(451,228,cs),
(486,228,o),
(511,206,o),
(511,174,cs),
(511,134,o),
(488,110,o),
(396,110,cs),
(340,110,o),
(282,116,o),
(236,128,c),
(212,8,l),
(388,-18,o),
(488,-40,o),
(673,-124,c),
(737,-11,l),
(663,27,o),
(549,59,o),
(471,72,c),
(420,12,l),
(556,22,o),
(673,44,o),
(673,169,cs),
(673,234,o),
(626,333,o),
(437,333,cs)
);
},
{
closed = 1;
nodes = (
(628,-187,ls),
(628,-160,o),
(627,-127,o),
(623,-94,c),
(471,-20,l),
(468,-43,o),
(467,-77,o),
(467,-98,cs),
(467,-119,l),
(440,-91,o),
(408,-72,o),
(368,-72,cs),
(320,-72,o),
(301,-84,o),
(248,-84,cs),
(203,-84,o),
(177,-63,o),
(177,-9,cs),
(177,4,o),
(179,21,o),
(182,38,c),
(29,54,l),
(23,29,o),
(20,1,o),
(20,-24,cs),
(20,-188,o),
(135,-213,o),
(223,-213,cs),
(304,-213,o),
(328,-199,o),
(382,-199,cs),
(427,-199,o),
(450,-216,o),
(469,-244,c),
(628,-244,l)
);
}
);
};
layerId = "F455777D-7EDD-47E2-866A-D8A5173CE243";
shapes = (
{
ref = "n-beng.half2";
},
{
pos = (142,-194);
ref = "tha-beng.blws";
},
{
pos = (-4,-319);
ref = "raphala-beng.alt07";
}
);
width = 661;
},
{
layerId = "ADAF9463-560A-4353-9B5A-2FAD12EBF6B5";
shapes = (
{
ref = "n-beng.half2";
},
{
pos = (95,-156);
ref = "tha-beng.blws";
},
{
pos = (45,-178);
ref = "raphala-beng.alt07";
}
);
width = 410;
},
{
layerId = "D7742CE6-1B18-47A0-AEB5-463D77EA217C";
shapes = (
{
ref = "n-beng.half2";
},
{
pos = (98,-148);
ref = "tha-beng.blws";
},
{
pos = (15,-257);
ref = "raphala-beng.alt07";
}
);
width = 468;
},
{
layerId = "F138D99C-4E28-42C5-9F3E-22494052B08F";
shapes = (
{
ref = "n-beng.half2";
},
{
pos = (112,-195);
ref = "tha-beng.blws";
},
{
pos = (-14,-319);
ref = "raphala-beng.alt07";
}
);
width = 531;
}
);
script = bengali;
subCategory = Spacing;
}
{
category = Letter;
color = 5;
glyphname = "nn-beng.half3";
layers = (
{
background = {
anchors = (
{
name = Anchor8;
pos = (351,622);
},
{
name = bottom;
pos = (467,0);
}
);
shapes = (
{
closed = 1;
nodes = (
(572,0,o),
(655,89,o),
(655,232,cs),
(655,352,o),
(606,451,o),
(511,553,c),
(531,551,o),
(547,551,o),
(573,551,cs),
(727,551,l),
(727,622,l),
(444,622,l),
(394,679,o),
(363,723,o),
(363,765,cs),
(363,804,o),
(381,828,o),
(424,861,c),
(373,917,l),
(314,878,o),
(284,834,o),
(284,778,cs),
(284,714,o),
(319,669,o),
(365,604,cs),
(408,544,o),
(418,497,o),
(418,438,cs),
(418,316,o),
(336,252,o),
(203,247,c),
(181,168,l),
(221,68,o),
(306,0,o),
(430,0,cs)
);
},
{
closed = 1;
nodes = (
(345,74,o),
(267,128,o),
(246,221,c),
(231,172,l),
(402,188,o),
(488,296,o),
(488,403,cs),
(488,458,o),
(477,495,o),
(464,532,c),
(448,536,l),
(543,423,o),
(574,329,o),
(574,239,cs),
(574,147,o),
(531,74,o),
(428,74,cs)
);
},
{
closed = 1;
nodes = (
(266,299,o),
(303,325,o),
(303,371,cs),
(303,411,o),
(275,436,o),
(238,436,cs),
(201,436,o),
(172,405,o),
(172,369,cs),
(172,341,o),
(196,307,o),
(236,307,c),
(221,378,l),
(162,378,o),
(122,413,o),
(122,468,cs),
(122,522,o),
(160,559,o),
(225,559,cs),
(296,559,o),
(378,514,o),
(433,366,c),
(435,471,l),
(390,580,o),
(300,632,o),
(215,632,cs),
(109,632,o),
(40,563,o),
(40,475,cs),
(40,365,o),
(132,299,o),
(212,299,cs)
);
}
);
};
layerId = UUID0;
shapes = (
{
closed = 1;
nodes = (
(266,299,o),
(303,325,o),
(303,371,cs),
(303,411,o),
(275,436,o),
(238,436,cs),
(201,436,o),
(172,405,o),
(172,369,cs),
(172,341,o),
(196,307,o),
(236,307,c),
(221,378,l),
(162,378,o),
(122,413,o),
(122,468,cs),
(122,522,o),
(160,559,o),
(225,559,cs),
(296,559,o),
(378,514,o),
(433,366,c),
(435,471,l),
(390,580,o),
(300,632,o),
(215,632,cs),
(109,632,o),
(40,563,o),
(40,475,cs),
(40,365,o),
(132,299,o),
(212,299,cs)
);
}
);
width = 569;
},
{
background = {
shapes = (
{
closed = 1;
nodes = (
(504,9,o),
(583,82,o),
(583,224,cs),
(583,346,o),
(520,456,o),
(403,588,c),
(423,586,o),
(440,586,o),
(466,586,cs),
(693,586,l),
(693,607,l),
(384,607,l),
(339,664,o),
(318,713,o),
(318,753,cs),
(318,799,o),
(338,839,o),
(401,885,c),
(388,901,l),
(327,854,o),
(297,815,o),
(297,756,cs),
(297,694,o),
(330,656,o),
(362,590,cs),
(384,545,o),
(407,464,o),
(407,404,cs),
(407,308,o),
(338,236,o),
(183,220,c),
(177,194,l),
(204,95,o),
(281,9,o),
(399,9,cs)
);
},
{
closed = 1;
nodes = (
(296,30,o),
(222,107,o),
(197,206,c),
(182,198,l),
(361,216,o),
(428,297,o),
(428,408,cs),
(428,460,o),
(410,539,o),
(379,595,c),
(366,602,l),
(500,451,o),
(562,348,o),
(562,228,cs),
(562,101,o),
(491,30,o),
(400,30,cs)
);
},
{
closed = 1;
nodes = (
(229,335,o),
(251,353,o),
(251,382,cs),
(251,409,o),
(232,427,o),
(207,427,cs),
(183,427,o),
(163,409,o),
(163,384,cs),
(163,361,o),
(180,340,o),
(202,340,c),
(207,355,l),
(153,355,o),
(80,398,o),
(80,484,cs),
(80,537,o),
(116,596,o),
(197,596,cs),
(275,596,o),
(361,541,o),
(412,388,c),
(418,414,l),
(375,554,o),
(284,617,o),
(197,617,cs),
(108,617,o),
(58,552,o),
(58,487,cs),
(58,381,o),
(144,335,o),
(196,335,cs)
);
}
);
};
layerId = "28FB090A-653E-4199-B7BE-FAE23D31B682";
shapes = (
{
closed = 1;
nodes = (
(229,335,o),
(251,353,o),
(251,382,cs),
(251,409,o),
(232,427,o),
(207,427,cs),
(183,427,o),
(163,409,o),
(163,384,cs),
(163,361,o),
(180,340,o),
(202,340,c),
(207,355,l),
(153,355,o),
(80,398,o),
(80,484,cs),
(80,537,o),
(116,596,o),
(197,596,cs),
(275,596,o),
(361,541,o),
(412,388,c),
(418,414,l),
(375,554,o),
(284,617,o),
(197,617,cs),
(108,617,o),
(58,552,o),
(58,487,cs),
(58,381,o),
(144,335,o),
(196,335,cs)
);
}
);
width = 476;
},
{
background = {
shapes = (
{
closed = 1;
nodes = (
(658,-99,o),
(752,10,o),
(752,163,cs),
(752,297,o),
(708,404,o),
(635,507,c),
(652,505,o),
(673,505,o),
(699,505,cs),
(801,505,l),
(801,635,l),
(523,635,l),
(486,670,o),
(460,700,o),
(460,736,cs),
(460,764,o),
(476,790,o),
(513,821,c),
(377,917,l),
(324,879,o),
(294,838,o),
(294,779,cs),
(294,732,o),
(324,681,o),
(362,622,cs),
(410,549,o),
(425,467,o),
(425,402,cs),
(425,294,o),
(362,228,o),
(219,217,c),
(177,65,l),
(242,-35,o),
(339,-99,o),
(483,-99,cs)
);
},
{
closed = 1;
nodes = (
(401,55,o),
(353,94,o),
(315,164,c),
(322,90,l),
(495,121,o),
(545,231,o),
(545,343,cs),
(545,424,o),
(521,534,o),
(497,587,c),
(464,580,l),
(549,471,o),
(590,351,o),
(590,219,cs),
(590,117,o),
(544,55,o),
(468,55,cs)
);
},
{
closed = 1;
nodes = (
(283,256,o),
(333,298,o),
(333,357,cs),
(333,411,o),
(293,448,o),
(241,448,cs),
(195,448,o),
(153,411,o),
(153,361,cs),
(153,313,o),
(188,265,o),
(240,265,c),
(240,386,l),
(210,389,o),
(180,408,o),
(180,447,cs),
(180,483,o),
(210,509,o),
(259,509,cs),
(338,509,o),
(409,449,o),
(436,327,c),
(431,508,l),
(391,589,o),
(321,645,o),
(218,645,cs),
(100,645,o),
(25,567,o),
(25,458,cs),
(25,339,o),
(114,256,o),
(212,256,cs)
);
}
);
};
layerId = "F455777D-7EDD-47E2-866A-D8A5173CE243";
shapes = (
{
closed = 1;
nodes = (
(283,256,o),
(333,298,o),
(333,357,cs),
(333,411,o),
(293,448,o),
(241,448,cs),
(195,448,o),
(153,411,o),
(153,361,cs),
(153,313,o),
(188,265,o),
(240,265,c),
(240,386,l),
(210,389,o),
(180,408,o),
(180,447,cs),
(180,483,o),
(210,509,o),
(259,509,cs),
(338,509,o),
(409,449,o),
(436,327,c),
(431,508,l),
(391,589,o),
(321,645,o),
(218,645,cs),
(100,645,o),
(25,567,o),
(25,458,cs),
(25,339,o),
(114,256,o),
(212,256,cs)
);
}
);
width = 612;
},
{
background = {
shapes = (
{
closed = 1;
nodes = (
(175,317,o),
(189,336,o),
(189,361,cs),
(189,386,o),
(174,402,o),
(155,402,cs),
(136,402,o),
(122,386,o),
(122,362,cs),
(122,340,o),
(134,322,o),
(155,322,c),
(154,337,l),
(110,337,o),
(59,393,o),
(59,479,cs),
(59,538,o),
(87,598,o),
(151,598,cs),
(212,598,o),
(264,535,o),
(305,409,c),
(309,442,l),
(273,558,o),
(215,617,o),
(149,617,cs),
(74,617,o),
(39,551,o),
(39,481,cs),
(39,376,o),
(103,317,o),
(147,317,cs)
);
}
);
};
layerId = "ADAF9463-560A-4353-9B5A-2FAD12EBF6B5";
shapes = (
{
closed = 1;
nodes = (
(162,336,o),
(178,354,o),
(178,382,cs),
(178,409,o),
(164,427,o),
(146,427,cs),
(128,427,o),
(114,408,o),
(114,384,cs),
(114,361,o),
(127,340,o),
(143,340,c),
(137,355,l),
(109,355,o),
(59,400,o),
(59,487,cs),
(59,539,o),
(84,598,o),
(141,598,cs),
(199,598,o),
(247,544,o),
(284,388,c),
(291,413,l),
(262,552,o),
(208,617,o),
(137,617,cs),
(74,617,o),
(39,559,o),
(39,491,cs),
(39,384,o),
(100,336,o),
(138,336,cs)
);
}
);
width = 337;
},
{
layerId = "D7742CE6-1B18-47A0-AEB5-463D77EA217C";
shapes = (
{
closed = 1;
nodes = (
(202,305,o),
(231,330,o),
(231,374,cs),
(231,412,o),
(210,434,o),
(179,434,cs),
(146,434,o),
(127,406,o),
(127,373,cs),
(127,345,o),
(147,312,o),
(178,312,c),
(166,371,l),
(128,371,o),
(102,415,o),
(102,472,cs),
(102,527,o),
(129,565,o),
(175,565,cs),
(229,565,o),
(279,520,o),
(324,370,c),
(325,462,l),
(293,574,o),
(232,631,o),
(163,631,cs),
(82,631,o),
(31,566,o),
(31,478,cs),
(31,369,o),
(98,305,o),
(160,305,cs)
);
}
);
width = 429;
},
{
layerId = "F138D99C-4E28-42C5-9F3E-22494052B08F";
shapes = (
{
closed = 1;
nodes = (
(228,264,o),
(263,303,o),
(263,359,cs),
(263,412,o),
(235,446,o),
(187,446,cs),
(143,446,o),
(112,410,o),
(112,363,cs),
(112,318,o),
(144,273,o),
(188,273,c),
(192,384,l),
(177,387,o),
(155,410,o),
(155,448,cs),
(155,488,o),
(177,514,o),
(215,514,cs),
(269,514,o),
(321,459,o),
(335,334,c),
(328,501,l),
(300,585,o),
(252,644,o),
(171,644,cs),
(76,644,o),
(15,567,o),
(15,460,cs),
(15,343,o),
(82,264,o),
(169,264,cs)
);
}
);
width = 482;
}
);
script = bengali;
subCategory = Spacing;
}
{
category = Letter;
color = 10;
export = 0;
glyphname = "nn_nna-beng";
layers = (
{
background = {
anchors = (
{
name = Anchor8;
pos = (301,622);
},
{
name = bottom;
pos = (431,0);
},
{
name = top_candrabindu;
pos = (370,622);
}
);
shapes = (
{
closed = 1;
nodes = (
(507,622,l),
(484,688,l),
(431,688,l),
(431,576,ls),
(431,543,o),
(432,500,o),
(437,477,c),
(452,477,l),
(369,572,o),
(303,629,o),
(202,629,cs),
(121,629,o),
(40,580,o),
(40,469,cs),
(40,358,o),
(135,302,o),
(255,290,c),
(261,373,l),
(169,384,o),
(122,410,o),
(122,470,cs),
(122,532,o),
(166,556,o),
(213,556,cs),
(292,556,o),
(366,485,o),
(449,369,c),
(431,430,l),
(431,235,l),
(431,206,o),
(432,174,o),
(433,149,c),
(431,130,l),
(431,-43,l),
(508,-43,l),
(508,551,l),
(613,551,l),
(613,622,l)
);
},
{
closed = 1;
nodes = (
(141,277,o),
(78,218,o),
(78,128,cs),
(78,20,o),
(164,-30,o),
(279,-43,c),
(286,39,l),
(191,52,o),
(159,79,o),
(159,127,cs),
(159,179,o),
(195,205,o),
(241,205,cs),
(310,205,o),
(368,149,o),
(432,68,c),
(449,151,l),
(390,219,o),
(324,277,o),
(231,277,cs)
);
}
);
};
layerId = UUID0;
shapes = (
{
ref = "nn-beng.half";
},
{
pos = (400,0);
ref = "aaMatra-beng.side";
},
{
pos = (47,-33);
ref = "nna-beng.blws1";
}
);
width = 592;
},
{
background = {
anchors = (
{
name = Anchor8;
pos = (289,622);
},
{
name = bottom;
pos = (429,0);
},
{
name = top_candrabindu;
pos = (385,622);
}
);
shapes = (
{
closed = 1;
nodes = (
(448,622,l),
(444,675,l),
(427,675,l),
(427,543,ls),
(427,507,o),
(428,477,o),
(430,446,c),
(448,441,l),
(369,563,o),
(294,629,o),
(194,629,cs),
(101,629,o),
(43,564,o),
(43,487,cs),
(43,380,o),
(131,333,o),
(234,320,c),
(236,340,l),
(128,358,o),
(65,398,o),
(65,487,cs),
(65,547,o),
(103,607,o),
(194,607,cs),
(268,607,o),
(333,575,o),
(439,423,c),
(427,446,l),
(427,180,ls),
(427,154,o),
(428,120,o),
(429,98,c),
(427,89,l),
(427,-43,l),
(448,-43,l),
(448,600,l),
(564,600,l),
(564,622,l)
);
},
{
closed = 1;
nodes = (
(121,260,o),
(67,198,o),
(67,127,cs),
(67,27,o),
(148,-18,o),
(246,-30,c),
(247,-9,l),
(145,7,o),
(89,45,o),
(89,127,cs),
(89,183,o),
(125,238,o),
(208,238,cs),
(277,238,o),
(338,207,o),
(438,62,c),
(446,83,l),
(371,198,o),
(302,260,o),
(208,260,cs)
);
}
);
};
layerId = "28FB090A-653E-4199-B7BE-FAE23D31B682";
shapes = (
{
ref = "nn-beng.half";
},
{
pos = (405,0);
ref = "aaMatra-beng.side";
},
{
pos = (62,0);
ref = "nna-beng.blws1";
}
);
width = 552;
},
{
background = {
anchors = (
{
name = Anchor8;
pos = (334,622);
},
{
name = bottom;
pos = (427,0);
},
{
name = top_candrabindu;
pos = (370,622);
}
);
shapes = (
{
closed = 1;
nodes = (
(588,622,l),
(564,691,l),
(427,691,l),
(427,612,ls),
(427,585,o),
(428,549,o),
(431,514,c),
(451,508,l),
(393,566,o),
(324,629,o),
(221,629,cs),
(110,629,o),
(32,555,o),
(32,461,cs),
(32,340,o),
(113,271,o),
(269,254,c),
(288,403,l),
(217,407,o),
(197,424,o),
(197,454,cs),
(197,478,o),
(214,495,o),
(245,495,cs),
(307,495,o),
(371,439,o),
(433,362,c),
(427,409,l),
(427,259,ls),
(427,226,o),
(428,193,o),
(430,160,c),
(427,142,l),
(427,-43,l),
(589,-43,l),
(589,493,l),
(677,493,l),
(677,622,l)
);
},
{
closed = 1;
nodes = (
(129,282,o),
(59,220,o),
(59,130,cs),
(59,21,o),
(134,-45,o),
(282,-61,c),
(300,79,l),
(238,83,o),
(219,99,o),
(219,124,cs),
(219,146,o),
(234,156,o),
(258,156,cs),
(313,156,o),
(378,101,o),
(435,30,c),
(454,170,l),
(401,223,o),
(334,282,o),
(236,282,cs)
);
}
);
};
layerId = "F455777D-7EDD-47E2-866A-D8A5173CE243";
shapes = (
{
ref = "nn-beng.half";
},
{
pos = (399,0);
ref = "aaMatra-beng.side";
},
{
pos = (31,-42);
ref = "nna-beng.blws1";
}
);
width = 646;
},
{
layerId = "ADAF9463-560A-4353-9B5A-2FAD12EBF6B5";
shapes = (
{
ref = "nn-beng.half";
},
{
pos = (281,0);
ref = "aaMatra-beng.side";
},
{
pos = (42,0);
ref = "nna-beng.blws1";
}
);
width = 387;
},
{
layerId = "D7742CE6-1B18-47A0-AEB5-463D77EA217C";
shapes = (
{
ref = "nn-beng.half";
},
{
pos = (307,0);
ref = "aaMatra-beng.side";
},
{
pos = (42,-28);
ref = "nna-beng.blws1";
}
);
width = 458;
},
{
layerId = "F138D99C-4E28-42C5-9F3E-22494052B08F";
shapes = (
{
ref = "nn-beng.half";
},
{
pos = (307,0);
ref = "aaMatra-beng.side";
},
{
pos = (18,-41);
ref = "nna-beng.blws1";
}
);
width = 513;
}
);
script = bengali;
subCategory = Spacing;
}
{
category = Letter;
color = 5;
glyphname = "ny-beng.half";
layers = (
{
anchors = (
{
name = bottomVattu;
pos = (495,63);
},
{
name = top_candrabindu;
pos = (427,622);
},
{
name = top_vedic;
pos = (452,622);
}
);
background = {
anchors = (
{
name = Anchor8;
pos = (529,622);
},
{
name = bottom;
pos = (566,0);
},
{
name = nukta;
pos = (375,-39);
},
{
name = top_candrabindu;
pos = (519,622);
}
);
shapes = (
{
closed = 1;
nodes = (
(883,113,o),
(929,171,o),
(929,251,cs),
(929,329,o),
(883,416,o),
(788,416,cs),
(734,416,o),
(713,380,o),
(713,352,cs),
(713,318,o),
(739,287,o),
(779,287,cs),
(846,287,o),
(923,377,o),
(923,469,cs),
(923,548,o),
(871,597,o),
(784,597,cs),
(723,597,o),
(647,559,o),
(606,458,c),
(636,375,l),
(668,478,o),
(727,528,o),
(781,528,cs),
(821,528,o),
(847,510,o),
(847,469,cs),
(847,414,o),
(802,358,o),
(737,358,c),
(735,352,l),
(815,352,o),
(853,316,o),
(853,254,cs),
(853,201,o),
(824,182,o),
(788,182,cs),
(716,182,o),
(664,240,o),
(636,346,c),
(624,225,l),
(652,164,o),
(702,113,o),
(788,113,cs)
);
},
{
ref = "e-beng";
}
);
};
layerId = UUID0;
shapes = (
{
closed = 1;
nodes = (
(572,99,l),
(572,474,ls),
(572,584,o),
(514,632,o),
(425,632,cs),
(308,632,o),
(229,520,o),
(229,430,cs),
(229,358,o),
(272,324,o),
(321,324,cs),
(367,324,o),
(398,349,o),
(398,392,cs),
(398,428,o),
(378,455,o),
(335,455,cs),
(297,455,o),
(275,432,o),
(275,396,cs),
(275,363,o),
(296,339,o),
(344,334,c),
(362,394,l),
(316,394,o),
(308,418,o),
(308,438,cs),
(308,478,o),
(352,561,o),
(429,561,cs),
(480,561,o),
(495,532,o),
(495,482,cs),
(495,150,l),
(511,162,l),
(487,227,o),
(441,250,o),
(388,250,cs),
(333,250,o),
(279,233,o),
(223,233,cs),
(182,233,o),
(124,245,o),
(124,336,cs),
(124,368,o),
(128,393,o),
(133,414,c),
(57,426,l),
(49,397,o),
(46,364,o),
(46,333,cs),
(46,184,o),
(156,159,o),
(224,159,cs),
(291,159,o),
(342,176,o),
(406,176,cs),
(452,176,o),
(483,149,o),
(495,99,c)
);
},
{
closed = 1;
nodes = (
(795,178,o),
(841,236,o),
(841,306,cs),
(841,376,o),
(792,454,o),
(709,454,cs),
(657,454,o),
(638,412,o),
(638,384,cs),
(638,350,o),
(662,333,o),
(703,333,cs),
(753,333,o),
(835,394,o),
(835,494,cs),
(835,563,o),
(783,612,o),
(701,612,cs),
(645,612,o),
(578,589,o),
(537,498,c),
(567,415,l),
(594,508,o),
(649,543,o),
(698,543,cs),
(733,543,o),
(759,525,o),
(759,494,cs),
(759,446,o),
(718,400,o),
(662,400,c),
(660,394,l),
(726,394,o),
(765,358,o),
(765,306,cs),
(765,266,o),
(736,247,o),
(700,247,cs),
(638,247,o),
(590,300,o),
(567,396,c),
(555,277,l),
(583,224,o),
(624,178,o),
(705,178,cs)
);
}
);
width = 905;
},
{
anchors = (
{
name = bottomVattu;
pos = (528,121);
},
{
name = top_candrabindu;
pos = (440,607);
},
{
name = top_vedic;
pos = (440,607);
}
);
background = {
anchors = (
{
name = Anchor8;
pos = (493,607);
},
{
name = bottom;
pos = (571,0);
},
{
name = nukta;
pos = (346,-37);
},
{
name = top_candrabindu;
pos = (494,607);
}
);
shapes = (
{
closed = 1;
nodes = (
(818,157,o),
(862,198,o),
(862,266,cs),
(862,335,o),
(807,399,o),
(739,399,cs),
(715,399,o),
(698,389,o),
(698,373,cs),
(698,357,o),
(710,347,o),
(736,347,cs),
(803,347,o),
(860,409,o),
(860,478,cs),
(860,534,o),
(822,576,o),
(749,576,cs),
(671,576,o),
(585,512,o),
(573,399,c),
(579,364,l),
(601,494,o),
(673,555,o),
(751,555,cs),
(807,555,o),
(838,523,o),
(838,478,cs),
(838,436,o),
(817,396,o),
(775,377,c),
(775,370,l),
(824,348,o),
(840,306,o),
(840,267,cs),
(840,207,o),
(799,179,o),
(752,179,cs),
(653,179,o),
(606,275,o),
(581,337,c),
(575,306,l),
(600,240,o),
(653,157,o),
(751,157,cs)
);
},
{
alignment = -1;
pos = (-1,0);
ref = "e-beng";
}
);
};
layerId = "28FB090A-653E-4199-B7BE-FAE23D31B682";
shapes = (
{
closed = 1;
nodes = (
(549,96,l),
(549,482,ls),
(549,578,o),
(508,617,o),
(438,617,cs),
(330,617,o),
(245,515,o),
(245,414,cs),
(245,357,o),
(272,329,o),
(309,329,cs),
(342,329,o),
(361,350,o),
(361,378,cs),
(361,406,o),
(343,425,o),
(315,425,cs),
(290,425,o),
(270,407,o),
(270,380,cs),
(270,359,o),
(285,337,o),
(314,337,c),
(313,348,l),
(275,348,o),
(266,380,o),
(266,413,cs),
(266,496,o),
(335,596,o),
(438,596,cs),
(507,596,o),
(528,555,o),
(528,481,cs),
(528,117,l),
(533,110,l),
(519,175,o),
(472,204,o),
(412,204,cs),
(333,204,o),
(274,183,o),
(202,183,cs),
(134,183,o),
(76,209,o),
(76,310,cs),
(76,346,o),
(82,376,o),
(88,402,c),
(67,406,l),
(59,378,o),
(54,347,o),
(54,310,cs),
(54,198,o),
(122,161,o),
(204,161,cs),
(280,161,o),
(338,183,o),
(412,183,cs),
(479,183,o),
(510,143,o),
(528,96,c)
);
},
{
closed = 1;
nodes = (
(764,188,o),
(810,227,o),
(810,290,cs),
(810,354,o),
(755,418,o),
(695,418,cs),
(674,418,o),
(657,408,o),
(657,392,cs),
(657,376,o),
(669,366,o),
(692,366,cs),
(751,366,o),
(808,423,o),
(808,491,cs),
(808,544,o),
(770,583,o),
(703,583,cs),
(635,583,o),
(549,532,o),
(537,419,c),
(543,384,l),
(564,515,o),
(637,562,o),
(705,562,cs),
(755,562,o),
(786,533,o),
(786,491,cs),
(786,450,o),
(765,415,o),
(723,396,c),
(723,389,l),
(772,367,o),
(788,325,o),
(788,291,cs),
(788,236,o),
(745,210,o),
(704,210,cs),
(620,210,o),
(568,292,o),
(545,356,c),
(539,325,l),
(562,257,o),
(620,188,o),
(703,188,cs)
);
}
);
width = 880;
},
{
anchors = (
{
name = bottomVattu;
pos = (474,55);
},
{
name = top_candrabindu;
pos = (491,635);
},
{
name = top_vedic;
pos = (490,635);
}
);
background = {
anchors = (
{
name = Anchor8;
pos = (494,635);
},
{
name = bottom;
pos = (492,0);
},
{
name = nukta;
pos = (357,-66);
},
{
name = top_candrabindu;
pos = (491,635);
}
);
shapes = (
{
closed = 1;
nodes = (
(917,78,o),
(974,144,o),
(974,233,cs),
(974,336,o),
(907,423,o),
(786,423,cs),
(740,423,o),
(698,395,o),
(698,345,cs),
(698,292,o),
(740,265,o),
(785,265,cs),
(890,265,o),
(969,382,o),
(969,470,cs),
(969,559,o),
(902,615,o),
(802,615,cs),
(713,615,o),
(635,566,o),
(594,469,c),
(637,351,l),
(669,460,o),
(729,496,o),
(775,496,cs),
(806,496,o),
(819,483,o),
(819,458,cs),
(819,415,o),
(779,377,o),
(728,377,c),
(742,332,l),
(793,324,o),
(826,285,o),
(826,245,cs),
(826,212,o),
(808,196,o),
(775,196,cs),
(724,196,o),
(665,242,o),
(641,351,c),
(592,215,l),
(645,123,o),
(711,78,o),
(805,78,cs)
);
},
{
alignment = -1;
pos = (-25,0);
ref = "e-beng";
}
);
};
layerId = "F455777D-7EDD-47E2-866A-D8A5173CE243";
shapes = (
{
closed = 1;
nodes = (
(638,77,l),
(638,439,ls),
(638,579,o),
(572,641,o),
(454,641,cs),
(306,641,o),
(211,522,o),
(211,419,cs),
(211,360,o),
(248,307,o),
(321,307,cs),
(375,307,o),
(419,337,o),
(419,397,cs),
(419,447,o),
(385,480,o),
(332,480,cs),
(289,480,o),
(239,460,o),
(239,408,cs),
(239,354,o),
(275,333,o),
(352,333,c),
(384,391,l),
(354,391,o),
(351,403,o),
(351,420,cs),
(351,456,o),
(389,511,o),
(433,511,cs),
(464,511,o),
(476,498,o),
(476,447,cs),
(476,172,l),
(496,192,l),
(462,237,o),
(440,261,o),
(372,261,cs),
(329,261,o),
(284,252,o),
(246,252,cs),
(199,252,o),
(169,278,o),
(169,345,cs),
(169,364,o),
(173,392,o),
(178,411,c),
(24,432,l),
(16,400,o),
(11,362,o),
(11,329,cs),
(11,169,o),
(110,123,o),
(208,123,cs),
(272,123,o),
(327,136,o),
(382,136,cs),
(433,136,o),
(457,123,o),
(475,77,c)
);
},
{
closed = 1;
nodes = (
(890,123,o),
(947,189,o),
(947,273,cs),
(947,366,o),
(880,448,o),
(769,448,cs),
(721,448,o),
(685,420,o),
(685,375,cs),
(685,327,o),
(723,300,o),
(768,300,cs),
(863,300,o),
(942,407,o),
(942,490,cs),
(942,574,o),
(875,630,o),
(780,630,cs),
(696,630,o),
(618,586,o),
(577,494,c),
(620,381,l),
(652,485,o),
(712,511,o),
(753,511,cs),
(779,511,o),
(792,498,o),
(792,478,cs),
(792,440,o),
(757,402,o),
(711,402,c),
(720,362,l),
(771,354,o),
(799,320,o),
(799,285,cs),
(799,257,o),
(781,241,o),
(753,241,cs),
(707,241,o),
(648,277,o),
(624,381,c),
(575,255,l),
(628,172,o),
(694,123,o),
(783,123,cs)
);
}
);
width = 981;
},
{
anchors = (
{
name = bottomVattu;
pos = (363,122);
},
{
name = top_candrabindu;
pos = (305,607);
},
{
name = top_vedic;
pos = (305,607);
}
);
layerId = "ADAF9463-560A-4353-9B5A-2FAD12EBF6B5";
shapes = (
{
closed = 1;
nodes = (
(383,96,l),
(383,483,ls),
(383,578,o),
(353,617,o),
(303,617,cs),
(225,617,o),
(168,515,o),
(168,414,cs),
(168,358,o),
(188,329,o),
(214,329,cs),
(238,329,o),
(252,350,o),
(252,378,cs),
(252,405,o),
(240,425,o),
(219,425,cs),
(201,425,o),
(187,406,o),
(187,380,cs),
(187,360,o),
(196,337,o),
(219,337,c),
(220,348,l),
(193,348,o),
(187,379,o),
(187,412,cs),
(187,497,o),
(231,598,o),
(303,598,cs),
(350,598,o),
(364,555,o),
(364,481,cs),
(364,122,l),
(369,125,l),
(356,176,o),
(325,203,o),
(284,203,cs),
(230,203,o),
(190,181,o),
(141,181,cs),
(97,181,o),
(56,208,o),
(56,309,cs),
(56,343,o),
(60,374,o),
(65,403,c),
(45,406,l),
(40,379,o),
(36,347,o),
(36,309,cs),
(36,199,o),
(85,162,o),
(142,162,cs),
(195,162,o),
(234,184,o),
(285,184,cs),
(331,184,o),
(353,141,o),
(364,96,c)
);
},
{
closed = 1;
nodes = (
(534,188,o),
(565,227,o),
(565,290,cs),
(565,353,o),
(528,417,o),
(483,417,cs),
(467,417,o),
(455,407,o),
(455,391,cs),
(455,377,o),
(464,366,o),
(482,366,cs),
(523,366,o),
(564,423,o),
(564,491,cs),
(564,544,o),
(536,582,o),
(489,582,cs),
(441,582,o),
(383,530,o),
(373,418,c),
(381,384,l),
(396,517,o),
(445,563,o),
(489,563,cs),
(523,563,o),
(544,533,o),
(544,491,cs),
(544,450,o),
(528,415,o),
(499,396,c),
(499,393,l),
(533,371,o),
(545,326,o),
(545,291,cs),
(545,236,o),
(517,207,o),
(489,207,cs),
(432,207,o),
(397,294,o),
(381,357,c),
(375,325,l),
(392,258,o),
(431,188,o),
(489,188,cs)
);
}
);
width = 610;
},
{
anchors = (
{
name = bottomVattu;
pos = (368,72);
},
{
name = top_candrabindu;
pos = (331,621);
},
{
name = top_vedic;
pos = (343,621);
}
);
layerId = "D7742CE6-1B18-47A0-AEB5-463D77EA217C";
shapes = (
{
closed = 1;
nodes = (
(438,99,l),
(438,476,ls),
(438,583,o),
(394,631,o),
(323,631,cs),
(221,631,o),
(169,519,o),
(169,428,cs),
(169,358,o),
(199,324,o),
(239,324,cs),
(274,324,o),
(299,349,o),
(299,390,cs),
(299,425,o),
(281,451,o),
(248,451,cs),
(220,451,o),
(199,428,o),
(199,394,cs),
(199,364,o),
(215,339,o),
(256,334,c),
(271,387,l),
(250,387,o),
(240,413,o),
(240,434,cs),
(240,481,o),
(268,565,o),
(321,565,cs),
(356,565,o),
(368,536,o),
(368,482,cs),
(368,144,l),
(385,148,l),
(365,216,o),
(332,245,o),
(288,245,cs),
(247,245,o),
(209,229,o),
(169,229,cs),
(136,229,o),
(99,239,o),
(99,332,cs),
(99,364,o),
(102,390,o),
(106,412,c),
(38,423,l),
(32,395,o),
(29,363,o),
(29,329,cs),
(29,186,o),
(106,159,o),
(163,159,cs),
(213,159,o),
(252,176,o),
(299,176,cs),
(336,176,o),
(358,146,o),
(368,99,c)
);
},
{
closed = 1;
nodes = (
(608,180,o),
(646,234,o),
(646,304,cs),
(646,372,o),
(605,448,o),
(539,448,cs),
(504,448,o),
(484,423,o),
(484,393,cs),
(484,361,o),
(506,338,o),
(536,338,cs),
(582,338,o),
(643,398,o),
(643,494,cs),
(643,560,o),
(600,608,o),
(537,608,cs),
(492,608,o),
(438,583,o),
(408,486,c),
(432,411,l),
(453,508,o),
(494,544,o),
(531,544,cs),
(556,544,o),
(572,526,o),
(572,494,cs),
(572,447,o),
(545,401,o),
(506,400,c),
(506,394,l),
(551,390,o),
(576,354,o),
(576,304,cs),
(576,261,o),
(557,244,o),
(532,244,cs),
(489,244,o),
(451,296,o),
(433,390,c),
(417,284,l),
(443,227,o),
(479,180,o),
(540,180,cs)
);
}
);
width = 688;
},
{
anchors = (
{
name = bottomVattu;
pos = (373,57);
},
{
name = top_candrabindu;
pos = (408,634);
},
{
name = top_vedic;
pos = (393,634);
}
);
layerId = "F138D99C-4E28-42C5-9F3E-22494052B08F";
shapes = (
{
closed = 1;
nodes = (
(522,81,l),
(522,436,ls),
(522,571,o),
(469,639,o),
(371,639,cs),
(247,639,o),
(170,522,o),
(170,421,cs),
(170,361,o),
(196,310,o),
(260,310,cs),
(303,310,o),
(341,339,o),
(341,396,cs),
(341,443,o),
(311,475,o),
(267,475,cs),
(233,475,o),
(186,455,o),
(186,406,cs),
(186,357,o),
(224,333,o),
(286,333,c),
(314,391,l),
(297,391,o),
(295,405,o),
(295,423,cs),
(295,460,o),
(313,520,o),
(347,520,cs),
(367,520,o),
(376,503,o),
(376,463,cs),
(376,161,l),
(393,173,l),
(371,226,o),
(353,259,o),
(295,259,cs),
(265,259,o),
(231,249,o),
(203,249,cs),
(169,249,o),
(147,273,o),
(147,343,cs),
(147,364,o),
(150,391,o),
(154,411,c),
(22,431,l),
(16,401,o),
(11,363,o),
(11,329,cs),
(11,172,o),
(84,129,o),
(168,129,cs),
(217,129,o),
(260,143,o),
(300,143,cs),
(341,143,o),
(357,127,o),
(373,81,c)
);
},
{
closed = 1;
nodes = (
(724,132,o),
(771,197,o),
(771,279,cs),
(771,367,o),
(715,449,o),
(621,449,cs),
(586,449,o),
(553,419,o),
(553,377,cs),
(553,332,o),
(586,306,o),
(622,306,cs),
(708,306,o),
(768,405,o),
(768,490,cs),
(768,572,o),
(712,627,o),
(635,627,cs),
(566,627,o),
(501,590,o),
(468,494,c),
(505,387,l),
(531,487,o),
(568,517,o),
(598,517,cs),
(620,517,o),
(631,502,o),
(631,481,cs),
(631,440,o),
(606,402,o),
(574,402,c),
(583,368,l),
(618,361,o),
(638,327,o),
(638,288,cs),
(638,258,o),
(628,242,o),
(607,242,cs),
(577,242,o),
(528,280,o),
(509,384,c),
(461,260,l),
(511,177,o),
(570,132,o),
(637,132,cs)
);
}
);
width = 786;
}
);
script = bengali;
subCategory = Spacing;
}
{
category = Letter;
color = 10;
export = 0;
glyphname = "ra_uMatra-beng";
layers = (
{
background = {
anchors = (
{
name = Anchor8;
pos = (401,622);
},
{
name = top_candrabindu;
pos = (424,622);
}
);
shapes = (
{
closed = 1;
nodes = (
(-10,622,l),
(-10,551,l),
(424,551,l),
(424,482,l),
(447,524,l),
(301,480,o),
(165,416,o),
(37,339,c),
(76,243,l),
(230,218,o),
(363,119,o),
(424,0,c),
(501,0,l),
(501,195,l),
(501,221,o),
(500,248,o),
(498,274,c),
(501,288,l),
(501,551,l),
(813,551,l),
(813,622,l)
);
},
{
closed = 1;
nodes = (
(424,189,l),
(424,146,o),
(426,119,o),
(429,88,c),
(438,88,l),
(382,204,o),
(238,280,o),
(130,304,c),
(225,362,o),
(344,413,o),
(445,446,c),
(424,474,l)
);
},
{
closed = 1;
nodes = (
(716,164,o),
(767,217,o),
(767,299,cs),
(767,396,o),
(694,446,o),
(610,463,c),
(595,389,l),
(666,375,o),
(691,339,o),
(691,298,cs),
(691,250,o),
(658,233,o),
(628,233,cs),
(572,233,o),
(528,279,o),
(498,385,c),
(461,317,l),
(500,206,o),
(564,164,o),
(638,164,cs)
);
},
{
pos = (440,177);
ref = "nukta-beng";
}
);
};
layerId = UUID0;
shapes = (
{
ref = "ra-beng";
},
{
pos = (596,0);
ref = "uMatra-beng.side";
}
);
width = 790;
},
{
background = {
anchors = (
{
name = Anchor8;
pos = (391,622);
},
{
name = top_candrabindu;
pos = (424,622);
}
);
shapes = (
{
closed = 1;
nodes = (
(-10,622,l),
(-10,600,l),
(424,600,l),
(424,530,l),
(443,545,l),
(294,489,o),
(168,420,o),
(42,336,c),
(54,307,l),
(224,269,o),
(355,162,o),
(424,0,c),
(445,0,l),
(445,257,ls),
(445,286,o),
(445,304,o),
(442,333,c),
(445,347,l),
(445,600,l),
(770,600,l),
(770,622,l)
);
},
{
closed = 1;
nodes = (
(424,165,ls),
(424,109,o),
(426,50,o),
(430,18,c),
(436,15,l),
(371,196,o),
(208,292,o),
(64,327,c),
(180,403,o),
(315,476,o),
(446,524,c),
(424,525,l)
);
},
{
closed = 1;
nodes = (
(658,203,o),
(705,244,o),
(705,319,cs),
(705,386,o),
(659,442,o),
(570,467,c),
(564,447,l),
(658,421,o),
(682,364,o),
(682,319,cs),
(682,252,o),
(647,225,o),
(594,225,cs),
(524,225,o),
(471,276,o),
(437,395,c),
(435,349,l),
(459,256,o),
(522,203,o),
(595,203,cs)
);
},
{
alignment = -1;
pos = (512,148);
ref = "nukta-beng";
}
);
};
layerId = "28FB090A-653E-4199-B7BE-FAE23D31B682";
shapes = (
{
ref = "ra-beng";
},
{
pos = (572,0);
ref = "uMatra-beng.side";
}
);
width = 737;
},
{
background = {
anchors = (
{
name = Anchor8;
pos = (431,622);
},
{
name = top_candrabindu;
pos = (394,622);
}
);
shapes = (
{
closed = 1;
nodes = (
(-10,622,l),
(-10,493,l),
(400,493,l),
(400,448,l),
(416,476,l),
(279,443,o),
(142,392,o),
(15,325,c),
(74,180,l),
(218,154,o),
(313,99,o),
(394,0,c),
(555,0,l),
(555,99,ls),
(555,128,o),
(554,154,o),
(551,182,c),
(555,212,l),
(555,493,l),
(871,493,l),
(871,622,l)
);
},
{
closed = 1;
nodes = (
(394,225,ls),
(394,195,o),
(396,161,o),
(399,134,c),
(423,136,l),
(370,202,o),
(277,252,o),
(205,266,c),
(274,299,o),
(337,323,o),
(413,343,c),
(394,355,l)
);
},
{
closed = 1;
nodes = (
(775,108,o),
(836,165,o),
(836,260,cs),
(836,347,o),
(781,419,o),
(657,457,c),
(610,326,l),
(655,313,o),
(681,294,o),
(681,267,cs),
(681,245,o),
(668,234,o),
(646,234,cs),
(603,234,o),
(562,270,o),
(540,348,c),
(450,298,l),
(511,183,o),
(572,108,o),
(684,108,cs)
);
},
{
alignment = -1;
pos = (468,186);
ref = "nukta-beng";
}
);
};
layerId = "F455777D-7EDD-47E2-866A-D8A5173CE243";
shapes = (
{
ref = "ra-beng";
},
{
pos = (605,0);
ref = "uMatra-beng.side";
}
);
width = 833;
},
{
layerId = "ADAF9463-560A-4353-9B5A-2FAD12EBF6B5";
shapes = (
{
ref = "ra-beng";
},
{
pos = (385,0);
ref = "uMatra-beng.side";
}
);
width = 500;
},
{
layerId = "D7742CE6-1B18-47A0-AEB5-463D77EA217C";
shapes = (
{
ref = "ra-beng";
},
{
pos = (441,0);
ref = "uMatra-beng.side";
}
);
width = 604;
},
{
layerId = "F138D99C-4E28-42C5-9F3E-22494052B08F";
shapes = (
{
ref = "ra-beng";
},
{
pos = (466,0);
ref = "uMatra-beng.side";
}
);
width = 666;
}
);
script = bengali;
subCategory = Spacing;
}
{
category = Mark;
color = 5;
glyphname = "reph-beng.altIiMatra";
layers = (
{
anchors = (
{
name = _top_reph;
pos = (-172,622);
},
{
name = top_candrabindu;
pos = (-164,734);
}
);
background = {
anchors = (
{
name = _top_candrabindu;
pos = (-172,622);
}
);
shapes = (
{
closed = 1;
nodes = (
(-209,644,l),
(110,860,l),
(72,917,l),
(-254,707,l)
);
},
{
closed = 1;
nodes = (
(140,848,l),
(106,895,l),
(-214,707,l),
(-169,644,l)
);
}
);
};
layerId = UUID0;
shapes = (
{
closed = 1;
nodes = (
(94,892,l),
(53,931,l),
(-211,663,l),
(-150,615,l)
);
}
);
width = 0;
},
{
anchors = (
{
name = _top_reph;
pos = (-148,622);
},
{
name = top_candrabindu;
pos = (-97,718);
}
);
background = {
anchors = (
{
name = _top_candrabindu;
pos = (-148,622);
}
);
shapes = (
{
closed = 1;
nodes = (
(-197,674,l),
(107,881,l),
(95,899,l),
(-210,692,l)
);
}
);
};
layerId = "28FB090A-653E-4199-B7BE-FAE23D31B682";
shapes = (
{
closed = 1;
nodes = (
(79,879,l),
(66,891,l),
(-154,636,l),
(-132,624,l)
);
}
);
width = 0;
},
{
anchors = (
{
name = _top_reph;
pos = (-245,622);
},
{
name = top_candrabindu;
pos = (-210,744);
}
);
background = {
anchors = (
{
name = _top_candrabindu;
pos = (-245,622);
}
);
shapes = (
{
closed = 1;
nodes = (
(159,824,l),
(103,915,l),
(-341,664,l),
(-176,618,l)
);
}
);
};
layerId = "F455777D-7EDD-47E2-866A-D8A5173CE243";
shapes = (
{
closed = 1;
nodes = (
(120,867,l),
(49,946,l),
(-344,622,l),
(-174,605,l)
);
}
);
width = 0;
},
{
anchors = (
{
name = _top_reph;
pos = (-105,622);
},
{
name = top_candrabindu;
pos = (-60,723);
}
);
layerId = "ADAF9463-560A-4353-9B5A-2FAD12EBF6B5";
shapes = (
{
closed = 1;
nodes = (
(61,868,l),
(47,877,l),
(-94,649,l),
(-74,643,l)
);
}
);
width = 0;
},
{
anchors = (
{
name = _top_reph;
pos = (-141,622);
},
{
name = top_candrabindu;
pos = (-140,730);
}
);
layerId = "D7742CE6-1B18-47A0-AEB5-463D77EA217C";
shapes = (
{
closed = 1;
nodes = (
(71,883,l),
(31,915,l),
(-171,668,l),
(-116,627,l)
);
}
);
width = 0;
},
{
anchors = (
{
name = _top_reph;
pos = (-209,622);
},
{
name = top_candrabindu;
pos = (-203,755);
}
);
layerId = "F138D99C-4E28-42C5-9F3E-22494052B08F";
shapes = (
{
closed = 1;
nodes = (
(105,877,l),
(35,943,l),
(-284,650,l),
(-140,610,l)
);
}
);
width = 0;
}
);
subCategory = Nonspacing;
}
